{"glyphs":{"0":{"ha":719,"x_min":49,"x_max":671,"o":"m 375 719 q 593 627 515 719 q 671 367 671 535 q 586 85 671 185 q 347 -14 501 -14 q 127 78 206 -14 q 49 338 49 169 q 134 619 49 518 q 375 719 219 719 m 358 514 q 252 476 285 514 q 219 351 219 438 q 253 221 219 263 q 360 179 286 179 q 467 218 433 179 q 501 342 501 257 q 467 473 501 432 q 358 514 432 514 z "},"1":{"ha":511,"x_min":10,"x_max":386,"o":"m 375 290 l 385 0 l 161 0 l 171 267 l 171 465 l 25 429 l 10 440 l 10 618 l 354 717 l 386 693 l 375 290 z "},"2":{"ha":665,"x_min":49,"x_max":635,"o":"m 343 717 q 510 669 444 717 q 575 539 575 622 q 422 267 575 428 l 336 174 l 340 168 l 494 168 l 624 181 l 635 167 l 610 -10 l 428 0 l 111 0 l 61 -4 l 50 4 l 50 139 l 233 310 q 327 412 297 372 q 357 481 357 451 q 290 529 357 529 q 201 509 249 529 q 110 453 153 489 l 86 453 l 49 624 q 343 717 204 717 z "},"3":{"ha":611,"x_min":28,"x_max":563,"o":"m 292 718 q 478 664 407 718 q 549 521 549 610 q 518 414 549 467 q 419 324 488 361 l 419 315 q 563 131 563 272 q 517 -6 563 53 q 390 -98 472 -65 q 199 -131 307 -131 q 43 -117 122 -131 l 31 50 l 46 64 q 206 36 133 36 q 351 132 351 36 q 251 208 351 207 l 146 208 l 136 222 l 142 374 l 203 376 q 288 404 253 378 q 324 474 324 431 q 242 540 324 540 q 82 483 181 540 l 60 483 l 28 639 q 292 718 154 718 z "},"4":{"ha":714,"x_min":26,"x_max":679,"o":"m 563 63 l 569 -107 l 558 -122 l 386 -133 l 375 -119 l 381 64 l 175 64 l 40 60 l 26 78 l 26 218 l 361 707 l 564 707 l 560 233 l 665 233 l 679 214 l 669 60 l 563 63 m 383 233 l 383 461 l 369 461 l 214 233 l 383 233 z "},"5":{"ha":608,"x_min":18,"x_max":571,"o":"m 547 533 l 533 518 l 394 535 l 256 535 l 251 408 l 336 390 q 506 311 453 365 q 558 167 558 257 q 513 10 558 78 q 384 -96 467 -58 q 193 -133 301 -133 q 29 -115 108 -133 l 18 49 l 33 64 q 203 35 122 35 q 310 63 271 35 q 349 139 349 90 q 322 201 349 179 q 236 235 296 224 l 94 258 l 82 275 l 89 688 l 113 711 l 196 707 l 407 707 l 558 717 l 571 703 l 547 533 z "},"6":{"ha":679,"x_min":38,"x_max":640,"o":"m 406 510 q 532 476 479 510 q 613 387 585 443 q 640 264 640 331 q 606 126 640 190 q 502 24 571 63 q 335 -15 433 -15 q 116 69 194 -15 q 38 301 38 154 q 142 604 38 467 q 438 829 247 742 l 449 829 l 594 732 l 594 710 q 384 608 458 658 q 275 493 310 558 l 285 482 q 406 510 344 510 m 342 128 q 416 156 390 128 q 442 240 442 185 q 339 357 442 357 q 238 328 293 357 l 238 304 q 260 170 238 213 q 342 128 282 128 z "},"7":{"ha":611,"x_min":17,"x_max":575,"o":"m 503 707 l 575 710 l 575 549 l 365 92 l 279 -137 l 103 -89 l 90 -54 l 364 525 l 167 525 l 28 510 l 17 528 l 31 713 l 203 707 l 503 707 z "},"8":{"ha":697,"x_min":53,"x_max":639,"o":"m 367 828 q 551 772 483 828 q 618 621 618 717 q 500 436 618 514 l 500 426 q 601 350 564 394 q 639 235 639 306 q 555 53 639 119 q 329 -14 471 -14 q 125 44 197 -14 q 53 197 53 103 q 201 389 53 324 l 201 399 q 76 590 76 465 q 156 764 76 700 q 367 828 235 828 m 351 678 q 281 656 306 678 q 256 599 256 635 q 285 534 256 558 q 369 488 314 510 q 446 596 446 535 q 420 656 446 633 q 351 678 394 678 m 331 333 q 258 292 282 315 q 235 226 235 268 q 265 158 235 183 q 347 132 294 132 q 431 157 401 132 q 460 218 460 182 q 428 283 460 260 q 331 333 396 307 z "},"9":{"ha":679,"x_min":39,"x_max":642,"o":"m 274 197 q 147 231 200 197 q 67 320 94 264 q 39 443 39 376 q 74 581 39 517 q 177 683 108 644 q 344 722 246 722 q 563 638 485 722 q 642 406 642 553 q 537 103 642 240 q 242 -122 432 -35 l 231 -122 l 85 -25 l 85 -3 q 295 99 221 49 q 404 214 369 149 l 394 225 q 274 197 335 197 m 338 579 q 263 551 289 579 q 238 467 238 522 q 340 350 238 350 q 442 379 386 350 l 442 403 q 419 537 442 494 q 338 579 397 579 z "}," ":{"ha":201,"x_min":0,"x_max":0,"o":""},"!":{"ha":372,"x_min":57,"x_max":313,"o":"m 254 342 l 129 324 l 108 346 l 92 892 l 111 917 l 288 928 l 313 901 l 254 342 m 175 219 q 254 190 226 219 q 282 110 282 161 q 251 22 282 54 q 167 -11 219 -11 q 85 18 114 -11 q 57 100 57 47 q 89 187 57 154 q 175 219 121 219 z "},"\"":{"ha":543,"x_min":75,"x_max":490,"o":"m 201 550 l 100 535 l 83 549 l 75 883 l 246 894 l 257 879 l 201 550 m 433 550 l 332 535 l 315 549 l 308 883 l 478 894 l 490 879 l 433 550 z "},"#":{"ha":783,"x_min":28,"x_max":756,"o":"m 585 353 l 699 353 l 713 339 l 703 228 l 563 228 l 529 43 l 403 43 l 392 58 l 422 228 l 289 228 l 256 43 l 129 43 l 118 58 l 149 228 l 40 228 l 28 242 l 38 353 l 171 353 l 196 489 l 85 489 l 72 503 l 81 614 l 218 614 l 251 796 l 374 796 l 388 779 l 358 614 l 492 614 l 525 796 l 647 796 l 661 779 l 632 614 l 743 614 l 756 600 l 746 489 l 610 489 l 585 353 m 336 489 l 311 353 l 444 353 l 469 489 l 336 489 z "},"$":{"ha":636,"x_min":44,"x_max":578,"o":"m 578 224 q 526 78 578 142 q 369 -6 474 15 l 358 -192 l 231 -192 l 214 -175 l 224 -11 q 44 28 132 -4 l 74 215 l 94 231 q 203 162 143 188 q 307 136 263 136 q 354 150 336 136 q 372 185 372 164 q 349 224 372 208 q 268 263 325 239 q 165 311 206 288 q 94 376 124 335 q 64 482 64 418 q 118 626 64 565 q 268 708 172 688 l 279 897 l 404 897 l 424 879 l 414 715 q 563 682 492 707 l 532 501 l 501 494 q 410 544 457 526 q 332 563 364 563 q 287 549 303 563 q 271 517 271 536 q 294 478 271 493 q 375 439 318 463 q 477 392 436 415 q 548 328 518 369 q 578 224 578 286 z "},"%":{"ha":1206,"x_min":36,"x_max":1168,"o":"m 953 875 l 307 -129 l 214 -72 l 206 -51 l 853 957 l 940 903 l 953 875 m 272 906 q 429 842 375 906 q 483 661 483 779 q 423 464 483 532 q 250 396 363 396 q 92 459 147 396 q 36 640 36 522 q 97 837 36 768 q 272 906 158 906 m 258 767 q 191 740 211 767 q 171 651 171 713 q 192 555 171 585 q 260 525 213 525 q 328 553 307 525 q 350 643 350 582 q 328 738 350 708 q 258 767 306 767 m 957 501 q 1114 438 1060 501 q 1168 257 1168 375 q 1108 60 1168 128 q 935 -8 1047 -8 q 776 55 832 -8 q 721 236 721 118 q 782 433 721 364 q 957 501 843 501 m 943 363 q 876 335 896 363 q 856 247 856 308 q 876 151 856 181 q 944 121 897 121 q 1013 149 992 121 q 1035 239 1035 178 q 1013 333 1035 304 q 943 363 990 363 z "},"&":{"ha":971,"x_min":35,"x_max":982,"o":"m 965 375 l 949 239 l 761 239 q 406 -17 686 -17 q 133 81 231 -17 q 35 353 35 178 q 74 545 35 463 q 185 673 113 628 q 354 718 257 718 q 491 681 444 718 q 538 583 538 644 l 538 579 q 879 989 779 765 l 897 989 q 982 850 960 928 q 832 647 947 764 q 558 419 717 531 q 242 236 400 307 q 419 136 290 136 q 577 198 522 136 q 639 378 632 260 l 653 392 l 953 392 l 965 375 m 347 581 q 253 530 288 581 q 217 388 219 479 q 361 461 296 422 q 404 531 404 489 q 347 581 404 581 z "},"'":{"ha":310,"x_min":75,"x_max":257,"o":"m 201 550 l 100 535 l 83 549 l 75 883 l 246 894 l 257 879 l 201 550 z "},"(":{"ha":414,"x_min":89,"x_max":410,"o":"m 410 833 q 301 646 335 761 q 265 351 267 531 q 301 73 267 182 q 410 -108 335 -36 l 410 -126 l 331 -192 l 311 -192 q 143 22 196 -107 q 89 350 90 151 q 143 697 90 561 q 311 917 196 832 l 331 917 l 410 851 l 410 833 z "},")":{"ha":414,"x_min":3,"x_max":324,"o":"m 3 -110 q 112 78 78 -37 q 147 372 146 193 q 112 651 146 542 q 3 832 78 760 l 3 850 l 82 915 l 101 915 q 269 701 217 831 q 324 374 322 572 q 269 27 322 163 q 101 -193 217 -108 l 82 -193 l 3 -128 l 3 -110 z "},"*":{"ha":539,"x_min":31,"x_max":525,"o":"m 300 850 l 236 843 l 225 853 l 219 1015 q 338 1036 271 1033 l 344 1024 l 300 850 m 197 772 l 183 767 l 31 810 q 47 929 31 869 l 61 933 l 208 836 l 197 772 m 469 894 q 525 786 507 840 l 517 776 l 343 767 l 314 824 l 321 838 l 469 894 m 435 614 q 350 528 406 571 l 338 532 l 275 700 l 321 743 l 336 742 l 435 614 m 250 697 l 165 563 q 56 614 126 574 l 57 629 l 192 742 l 249 713 l 250 697 z "},"+":{"ha":667,"x_min":28,"x_max":640,"o":"m 408 432 l 625 432 l 640 418 l 629 285 l 408 285 l 408 63 l 275 53 l 260 67 l 260 285 l 42 285 l 28 300 l 39 432 l 260 432 l 260 654 l 393 665 l 408 651 l 408 432 z "},",":{"ha":317,"x_min":15,"x_max":272,"o":"m 208 213 q 272 82 272 157 q 88 -185 272 -54 l 17 -124 l 15 -107 q 93 35 93 -42 q 47 126 93 85 l 49 146 q 208 213 132 192 z "},"-":{"ha":419,"x_min":36,"x_max":382,"o":"m 382 303 l 53 251 l 36 268 l 36 404 l 365 454 l 382 439 l 382 303 z "},".":{"ha":317,"x_min":46,"x_max":271,"o":"m 163 219 q 242 190 214 219 q 271 110 271 161 q 239 22 271 54 q 154 -11 207 -11 q 74 18 101 -11 q 46 100 46 47 q 77 187 46 154 q 163 219 108 219 z "},"/":{"ha":392,"x_min":-17,"x_max":436,"o":"m 149 -161 l -4 -161 l -17 -144 l 271 946 l 419 946 l 436 928 l 149 -161 z "},":":{"ha":317,"x_min":40,"x_max":265,"o":"m 157 219 q 237 190 208 219 q 265 110 265 161 q 233 22 265 54 q 149 -11 201 -11 q 68 18 96 -11 q 40 100 40 47 q 72 187 40 154 q 157 219 103 219 m 157 579 q 237 550 208 579 q 265 469 265 521 q 233 381 265 414 q 149 349 201 349 q 68 378 96 349 q 40 460 40 407 q 72 547 40 514 q 157 579 103 579 z "},";":{"ha":317,"x_min":10,"x_max":267,"o":"m 203 213 q 267 82 267 157 q 82 -185 267 -54 l 11 -124 l 10 -107 q 88 35 88 -42 q 42 126 88 85 l 43 146 q 203 213 126 192 m 157 579 q 237 550 208 579 q 265 469 265 521 q 233 381 265 414 q 149 349 201 349 q 68 378 96 349 q 40 460 40 407 q 72 547 40 514 q 157 579 103 579 z "},"<":{"ha":667,"x_min":46,"x_max":619,"o":"m 46 447 l 46 269 l 563 76 l 581 90 l 611 214 l 199 358 l 199 369 l 611 518 l 619 533 l 574 660 l 60 467 l 46 447 z "},"=":{"ha":667,"x_min":28,"x_max":640,"o":"m 629 421 l 42 421 l 28 436 l 39 568 l 625 568 l 640 554 l 629 421 m 629 147 l 42 147 l 28 163 l 39 294 l 625 294 l 640 281 l 629 147 z "},">":{"ha":667,"x_min":47,"x_max":621,"o":"m 621 447 l 621 269 l 104 76 l 86 90 l 56 214 l 468 358 l 468 369 l 56 518 l 47 533 l 93 660 l 607 467 l 621 447 z "},"?":{"ha":479,"x_min":56,"x_max":511,"o":"m 115 933 q 408 865 306 924 q 511 706 511 807 q 477 597 511 647 q 381 511 443 546 l 289 458 l 285 451 l 294 342 l 140 319 l 125 335 l 110 504 l 118 519 l 239 575 q 313 672 313 613 q 258 747 313 721 q 71 781 203 772 l 56 800 l 96 922 l 115 933 m 226 219 q 306 190 278 219 q 335 110 335 161 q 303 22 335 54 q 218 -11 271 -11 q 138 18 165 -11 q 110 100 110 47 q 141 187 110 154 q 226 219 172 219 z "},"@":{"ha":1185,"x_min":33,"x_max":1161,"o":"m 1161 442 q 1019 117 1161 231 q 614 0 878 3 l 640 188 l 621 188 q 483 -8 557 71 l 457 -8 q 335 72 371 18 q 300 213 300 126 q 335 388 300 301 q 443 541 371 474 q 621 638 515 608 l 628 638 l 744 613 l 861 643 l 876 633 l 811 157 l 811 150 q 964 244 908 168 q 1019 435 1019 321 q 975 606 1019 532 q 849 719 931 679 q 658 760 768 760 q 408 698 517 760 q 239 527 299 636 q 179 281 179 418 q 244 33 179 138 q 428 -125 310 -71 q 706 -179 547 -179 l 714 -199 l 656 -300 q 328 -234 468 -299 q 110 -44 188 -169 q 33 256 33 81 q 113 583 33 438 q 335 813 192 729 q 667 896 479 896 q 927 841 815 896 q 1100 683 1039 786 q 1161 442 1161 581 m 510 176 q 576 245 532 176 q 675 442 621 314 l 678 468 l 589 494 q 507 439 536 494 q 478 288 478 383 q 510 176 478 176 z "},"A":{"ha":849,"x_min":8,"x_max":831,"o":"m 601 0 l 578 129 l 565 181 l 404 183 l 265 179 l 254 143 l 229 0 l 8 0 l 297 896 l 568 896 l 831 0 l 601 0 m 435 690 l 421 690 l 317 350 l 419 347 l 522 350 l 435 690 z "},"B":{"ha":833,"x_min":97,"x_max":792,"o":"m 618 463 q 750 390 708 440 q 792 256 792 339 q 364 -8 792 -8 q 99 0 225 -8 l 97 0 l 110 265 l 97 896 l 450 897 q 674 839 593 897 q 754 671 754 781 q 719 547 754 600 q 618 463 683 493 m 525 640 q 490 719 525 697 q 363 742 454 742 l 318 742 l 313 524 l 432 518 q 502 561 479 532 q 525 640 525 590 m 406 147 q 522 178 481 147 q 564 265 564 208 q 538 334 564 308 q 456 372 511 360 l 310 369 l 308 288 l 313 153 q 406 147 385 147 z "},"C":{"ha":717,"x_min":33,"x_max":707,"o":"m 475 908 q 707 863 603 908 l 667 678 l 651 669 q 467 725 567 725 q 319 663 367 725 q 271 465 271 600 q 478 174 271 174 q 668 221 578 174 l 688 210 l 669 25 q 460 -14 572 -14 q 142 103 250 -14 q 33 440 33 219 q 149 786 33 664 q 475 908 264 908 z "},"D":{"ha":915,"x_min":97,"x_max":882,"o":"m 476 901 q 778 794 674 901 q 882 483 882 686 q 763 117 882 244 q 421 -11 643 -11 q 99 0 293 -11 l 97 0 l 110 265 l 97 896 l 99 896 l 476 901 m 463 160 q 647 429 647 160 q 603 656 647 588 q 458 724 558 724 q 324 718 385 724 l 315 288 l 318 171 q 463 160 400 160 z "},"E":{"ha":725,"x_min":97,"x_max":710,"o":"m 703 167 l 689 0 l 97 0 l 110 265 l 97 896 l 697 896 l 710 879 l 694 713 l 476 721 l 324 719 l 321 540 l 467 540 l 613 544 l 625 528 l 611 361 l 451 365 l 317 365 l 315 288 l 318 176 l 465 175 l 690 183 l 703 167 z "},"F":{"ha":647,"x_min":97,"x_max":671,"o":"m 319 511 l 432 511 l 588 515 l 600 499 l 586 332 l 415 336 l 317 336 l 315 288 l 324 0 l 97 0 l 110 265 l 97 896 l 658 896 l 671 879 l 656 713 l 439 721 l 324 719 l 319 511 z "},"G":{"ha":829,"x_min":33,"x_max":776,"o":"m 517 908 q 776 860 667 908 l 729 658 l 710 658 q 588 712 642 696 q 475 728 535 728 q 356 701 400 728 q 290 611 311 674 q 268 440 268 549 q 289 273 268 333 q 355 186 310 213 q 479 160 400 160 q 569 174 518 160 l 571 236 l 567 381 l 774 394 l 771 274 l 772 44 q 460 -14 607 -14 q 140 101 247 -14 q 33 429 33 215 q 158 785 33 663 q 517 908 283 908 z "},"H":{"ha":975,"x_min":97,"x_max":876,"o":"m 874 0 l 647 0 l 658 265 l 657 356 l 476 358 l 317 354 l 315 288 l 324 0 l 97 0 l 110 265 l 97 896 l 328 896 l 321 540 l 490 536 l 654 539 l 647 896 l 876 896 l 864 288 l 874 0 z "},"I":{"ha":428,"x_min":97,"x_max":328,"o":"m 324 0 l 97 0 l 110 265 l 97 896 l 328 896 l 315 288 l 324 0 z "},"J":{"ha":481,"x_min":10,"x_max":385,"o":"m 375 169 q 348 30 375 88 q 258 -71 321 -28 q 86 -151 196 -114 l 22 -33 l 22 -14 q 135 68 103 26 q 167 175 167 110 l 167 274 l 158 735 l 24 731 l 10 746 l 19 896 l 385 896 l 372 296 l 375 169 z "},"K":{"ha":836,"x_min":97,"x_max":854,"o":"m 533 474 q 854 47 675 264 l 851 22 q 628 -15 738 -6 l 603 -1 q 317 443 431 254 l 314 288 l 324 0 l 97 0 l 110 265 l 97 896 l 326 896 l 318 494 l 536 806 l 586 896 l 828 896 l 533 474 z "},"L":{"ha":613,"x_min":92,"x_max":611,"o":"m 596 0 l 92 0 l 104 265 l 92 896 l 321 896 l 308 288 l 313 185 l 597 185 l 611 168 l 596 0 z "},"M":{"ha":1113,"x_min":51,"x_max":1054,"o":"m 856 0 l 844 272 l 819 567 l 806 567 l 628 90 l 456 90 l 300 567 l 285 567 l 257 293 l 239 0 l 51 0 l 140 896 l 400 896 l 432 765 l 547 382 l 561 382 l 686 761 l 722 896 l 978 896 l 1054 0 l 856 0 z "},"N":{"ha":974,"x_min":97,"x_max":876,"o":"m 872 0 l 628 0 l 310 554 l 296 554 l 294 315 l 304 0 l 97 0 l 110 264 l 99 896 l 343 896 l 661 342 l 675 342 l 668 888 l 876 900 l 864 283 l 872 0 z "},"O":{"ha":899,"x_min":33,"x_max":867,"o":"m 467 910 q 763 795 658 910 q 867 469 867 681 q 753 112 867 239 q 432 -15 639 -15 q 138 102 242 -15 q 33 435 33 219 q 147 786 33 663 q 467 910 260 910 m 447 729 q 342 704 381 729 q 285 622 303 679 q 268 465 268 564 q 286 281 268 347 q 344 185 304 214 q 451 156 383 156 q 556 181 517 156 q 613 265 594 207 q 631 422 631 322 q 613 605 631 539 q 555 700 594 671 q 447 729 515 729 z "},"P":{"ha":792,"x_min":97,"x_max":776,"o":"m 475 897 q 698 825 619 897 q 776 619 776 753 q 729 437 776 515 q 596 315 682 358 q 396 272 510 272 l 315 272 l 324 0 l 97 0 l 110 265 l 97 896 l 475 897 m 436 435 q 540 597 540 469 q 506 700 540 667 q 400 736 472 733 l 325 732 l 318 440 l 436 435 z "},"Q":{"ha":908,"x_min":33,"x_max":1025,"o":"m 1025 -135 q 918 -278 979 -224 l 901 -286 q 458 -15 660 -183 l 433 -15 q 138 102 242 -15 q 33 435 33 219 q 147 786 33 663 q 467 910 260 910 q 763 795 658 910 q 867 468 867 681 q 813 201 867 311 q 660 38 760 92 q 1017 -112 832 -62 l 1025 -135 m 268 463 q 286 280 268 346 q 344 185 304 214 q 453 156 385 156 q 556 181 518 156 q 613 265 594 207 q 631 424 631 324 q 613 605 631 539 q 554 700 594 671 q 446 729 514 729 q 342 703 381 729 q 285 620 303 678 q 268 463 268 563 z "},"R":{"ha":843,"x_min":97,"x_max":826,"o":"m 618 354 q 826 53 733 175 l 824 28 q 600 -15 718 -7 l 578 3 q 433 288 494 158 l 315 288 l 324 0 l 97 0 l 110 265 l 97 896 l 475 897 q 699 827 621 897 q 778 626 778 757 q 736 474 778 544 q 618 354 694 403 m 440 451 q 540 606 540 488 q 506 702 540 671 q 400 736 472 733 l 325 732 l 319 457 l 440 451 z "},"S":{"ha":708,"x_min":36,"x_max":668,"o":"m 407 910 q 649 863 526 910 l 613 674 l 579 661 q 382 735 465 735 q 309 712 336 735 q 282 658 282 689 q 316 599 282 624 q 424 542 350 575 q 549 476 501 506 q 633 396 597 446 q 668 274 668 346 q 624 128 668 193 q 500 24 581 63 q 314 -14 419 -14 q 36 42 174 -14 l 68 243 l 92 257 q 219 181 150 208 q 338 154 288 154 q 417 178 390 154 q 444 233 444 201 q 410 296 444 271 q 301 354 375 321 q 178 419 226 389 q 96 499 131 449 q 61 621 61 549 q 105 769 61 703 q 227 872 149 835 q 407 910 306 910 z "},"T":{"ha":708,"x_min":17,"x_max":693,"o":"m 681 714 l 506 722 l 467 722 l 460 288 l 468 0 l 243 0 l 256 265 l 249 722 l 207 722 l 31 714 l 17 731 l 31 896 l 681 896 l 693 879 l 681 714 z "},"U":{"ha":894,"x_min":78,"x_max":821,"o":"m 811 313 q 715 71 813 156 q 436 -14 617 -14 q 169 69 261 -14 q 81 308 76 153 l 83 444 l 78 896 l 303 896 l 293 339 q 329 208 292 250 q 446 167 367 167 q 565 208 526 167 q 601 333 603 249 l 592 896 l 821 896 l 813 442 l 811 313 z "},"V":{"ha":832,"x_min":10,"x_max":832,"o":"m 272 0 l 10 896 l 239 896 l 263 765 l 406 206 l 419 206 l 586 753 l 611 896 l 832 896 l 543 0 l 272 0 z "},"W":{"ha":1260,"x_min":25,"x_max":1257,"o":"m 736 0 l 624 386 l 610 386 l 499 0 l 260 0 l 25 896 l 244 896 l 258 774 l 388 229 l 401 229 l 533 682 l 478 896 l 706 896 l 725 751 l 860 229 l 874 229 l 1025 761 l 1049 896 l 1257 896 l 974 0 l 736 0 z "},"X":{"ha":861,"x_min":10,"x_max":856,"o":"m 856 0 l 586 0 l 542 97 l 421 294 l 283 86 l 242 0 l 13 0 l 290 438 l 10 896 l 281 896 l 325 797 l 440 610 l 563 807 l 603 896 l 839 896 l 574 471 l 856 0 z "},"Y":{"ha":796,"x_min":-1,"x_max":810,"o":"m 500 0 l 275 0 l 286 243 l 285 292 l -1 896 l 236 896 l 257 829 l 388 517 l 403 517 l 550 821 l 578 896 l 810 896 l 493 297 l 490 243 l 500 0 z "},"Z":{"ha":774,"x_min":40,"x_max":742,"o":"m 306 169 l 575 169 l 733 181 l 742 169 l 724 -6 l 503 0 l 161 0 l 40 -7 l 40 154 l 464 726 l 208 726 l 50 714 l 42 724 l 58 899 l 250 896 l 631 896 l 725 897 l 725 735 l 306 169 z "},"[":{"ha":414,"x_min":99,"x_max":419,"o":"m 419 792 l 278 772 l 278 -46 l 419 -64 l 419 -162 l 410 -174 l 99 -160 l 111 364 l 99 886 l 410 900 l 419 889 l 419 792 z "},"\\":{"ha":392,"x_min":-25,"x_max":428,"o":"m 263 -161 l 415 -161 l 428 -144 l 140 946 l -8 946 l -25 928 l 263 -161 z "},"]":{"ha":414,"x_min":-7,"x_max":314,"o":"m -7 -65 l 135 -46 l 135 772 l -7 790 l -7 889 l 3 900 l 314 886 l 301 363 l 314 -160 l 3 -174 l -7 -162 l -7 -65 z "},"^":{"ha":624,"x_min":21,"x_max":604,"o":"m 589 193 l 467 164 l 322 542 l 311 542 l 161 164 l 146 154 l 21 200 l 213 681 l 233 693 l 410 693 l 604 211 l 589 193 z "},"_":{"ha":614,"x_min":-21,"x_max":635,"o":"m 624 -262 l -7 -262 l -21 -247 l -10 -125 l 621 -125 l 635 -140 l 624 -262 z "},"`":{"ha":539,"x_min":89,"x_max":450,"o":"m 89 901 l 93 882 q 379 722 231 803 l 399 724 l 450 807 q 188 1024 304 918 l 168 1022 l 89 901 z "},"a":{"ha":746,"x_min":18,"x_max":717,"o":"m 506 0 l 486 113 l 483 124 l 354 126 l 243 124 l 222 0 l 18 0 l 253 706 l 503 706 l 717 0 l 506 0 m 381 518 l 368 518 l 292 279 l 367 278 l 443 279 l 381 518 z "},"b":{"ha":742,"x_min":90,"x_max":693,"o":"m 553 364 q 659 305 625 344 q 693 203 693 265 q 601 44 693 94 q 326 -7 510 -7 q 90 0 218 -7 l 100 207 l 90 706 l 404 707 q 597 660 528 707 q 667 526 667 614 q 637 430 667 472 q 553 364 607 388 m 450 496 q 422 549 450 535 q 317 563 394 563 l 296 563 l 292 419 l 382 417 q 434 444 418 426 q 450 496 450 463 m 364 135 q 478 213 478 135 q 460 254 478 238 q 403 282 442 271 l 289 279 l 288 228 l 290 140 q 364 135 329 135 z "},"c":{"ha":626,"x_min":38,"x_max":607,"o":"m 415 717 q 607 686 519 717 l 571 515 l 556 507 q 404 547 490 547 q 293 506 329 547 q 257 369 257 464 q 417 161 257 161 q 571 192 501 161 l 589 181 l 571 11 q 401 -12 492 -12 q 130 80 222 -12 q 38 346 38 172 q 136 620 38 524 q 415 717 235 717 z "},"d":{"ha":794,"x_min":90,"x_max":757,"o":"m 417 711 q 669 626 581 711 q 757 381 757 540 q 656 91 757 192 q 367 -10 556 -10 q 90 0 242 -10 l 100 207 l 90 706 l 417 711 m 404 147 q 540 331 540 147 q 508 497 540 449 q 399 546 475 546 q 299 542 353 546 l 290 228 l 293 157 q 404 147 358 147 z "},"e":{"ha":647,"x_min":90,"x_max":619,"o":"m 614 154 l 600 0 l 90 0 l 100 207 l 90 706 l 607 706 l 619 690 l 606 538 l 422 544 l 299 544 l 296 436 l 415 436 l 536 440 l 547 425 l 535 271 l 401 275 l 292 274 l 290 228 l 293 161 l 410 161 l 601 168 l 614 154 z "},"f":{"ha":574,"x_min":83,"x_max":579,"o":"m 289 410 l 376 410 l 508 414 l 521 399 l 507 244 l 361 249 l 285 247 l 285 228 l 293 0 l 83 0 l 93 207 l 83 706 l 568 706 l 579 690 l 565 538 l 382 544 l 292 544 l 289 410 z "},"g":{"ha":719,"x_min":38,"x_max":668,"o":"m 449 717 q 668 683 572 717 l 618 496 l 601 496 q 502 538 544 525 q 410 550 460 550 q 319 533 351 550 q 271 472 286 515 q 256 347 256 428 q 271 224 256 267 q 321 165 286 182 q 418 147 356 147 q 478 157 447 147 l 478 190 l 475 308 l 667 321 l 663 225 l 663 35 q 400 -12 525 -12 q 129 78 221 -12 q 38 336 38 168 q 144 619 38 522 q 449 717 250 717 z "},"h":{"ha":844,"x_min":90,"x_max":757,"o":"m 753 0 l 544 0 l 554 207 l 553 265 l 414 267 l 292 264 l 290 228 l 299 0 l 90 0 l 100 207 l 90 706 l 303 706 l 296 436 l 426 433 l 550 436 l 544 706 l 757 706 l 746 228 l 753 0 z "},"i":{"ha":401,"x_min":90,"x_max":303,"o":"m 299 0 l 90 0 l 100 207 l 90 706 l 303 706 l 290 228 l 299 0 z "},"j":{"ha":456,"x_min":22,"x_max":357,"o":"m 349 135 q 326 22 349 68 q 252 -60 304 -25 q 107 -129 200 -96 l 46 -24 l 46 -7 q 131 52 107 21 q 156 133 156 83 l 156 211 l 150 553 l 35 550 l 22 563 l 35 706 l 357 706 l 347 232 l 349 135 z "},"k":{"ha":743,"x_min":90,"x_max":746,"o":"m 489 372 q 746 44 597 218 l 743 21 q 535 -14 644 -3 l 510 -1 q 293 336 386 182 l 290 228 l 299 0 l 90 0 l 100 207 l 90 706 l 303 706 l 294 399 l 458 631 l 500 706 l 725 707 l 489 372 z "},"l":{"ha":547,"x_min":85,"x_max":529,"o":"m 517 0 l 85 0 l 94 207 l 85 706 l 297 706 l 285 228 l 288 171 l 518 171 l 529 157 l 517 0 z "},"m":{"ha":956,"x_min":50,"x_max":901,"o":"m 714 0 l 708 214 l 690 399 l 679 399 l 546 67 l 386 67 l 272 399 l 258 399 l 240 233 l 228 0 l 50 0 l 122 706 l 369 706 l 393 604 l 471 342 l 485 342 l 569 599 l 599 706 l 839 706 l 901 0 l 714 0 z "},"n":{"ha":844,"x_min":90,"x_max":756,"o":"m 753 0 l 525 0 l 285 392 l 274 392 l 272 253 l 279 0 l 90 0 l 100 207 l 90 706 l 317 706 l 557 315 l 571 315 l 564 699 l 756 710 l 744 229 l 753 0 z "},"o":{"ha":781,"x_min":38,"x_max":743,"o":"m 406 718 q 655 627 567 718 q 743 371 743 536 q 647 87 743 188 q 375 -14 551 -14 q 126 79 214 -14 q 38 342 38 172 q 133 619 38 521 q 406 718 229 718 m 386 551 q 308 535 336 551 q 268 480 281 519 q 256 369 256 440 q 269 231 256 279 q 311 164 282 183 q 393 144 340 144 q 472 160 444 144 q 513 215 500 176 q 525 326 525 254 q 513 464 525 415 q 470 532 500 513 q 386 551 440 551 z "},"p":{"ha":704,"x_min":90,"x_max":681,"o":"m 425 707 q 614 649 547 707 q 681 483 681 590 q 640 337 681 400 q 525 239 599 274 q 354 204 451 204 l 292 204 l 299 0 l 90 0 l 100 207 l 90 706 l 425 707 m 386 351 q 443 393 425 367 q 461 463 461 419 q 435 534 461 511 q 353 560 410 557 l 299 556 l 293 356 l 386 351 z "},"q":{"ha":789,"x_min":38,"x_max":861,"o":"m 861 -92 q 765 -219 815 -174 l 750 -222 q 414 -12 558 -133 q 375 -14 401 -14 q 126 79 214 -14 q 38 342 38 172 q 133 619 38 521 q 406 718 229 718 q 655 627 567 718 q 743 371 743 536 q 581 35 743 129 q 853 -72 701 -28 l 861 -92 m 256 369 q 269 231 256 279 q 311 164 282 183 q 393 144 340 144 q 472 160 444 144 q 513 215 500 176 q 525 326 525 254 q 513 464 525 415 q 470 532 500 513 q 386 551 440 551 q 308 535 336 551 q 268 480 281 519 q 256 369 256 440 z "},"r":{"ha":747,"x_min":90,"x_max":724,"o":"m 556 276 q 724 49 621 178 l 721 25 q 518 -12 614 -7 l 489 8 q 382 215 431 115 l 290 215 l 299 0 l 90 0 l 100 207 l 90 706 l 425 707 q 615 651 549 707 q 682 490 682 594 q 649 371 682 426 q 556 276 615 315 m 461 469 q 435 536 461 515 q 353 560 410 557 l 299 556 l 294 369 l 388 364 q 461 469 461 392 z "},"s":{"ha":632,"x_min":44,"x_max":578,"o":"m 360 718 q 563 682 461 718 l 532 501 l 501 494 q 410 544 457 526 q 332 563 364 563 q 287 549 303 563 q 271 517 271 536 q 294 478 271 493 q 375 439 318 463 q 477 392 436 415 q 548 328 518 369 q 578 224 578 286 q 547 107 578 161 q 448 19 515 53 q 281 -14 381 -14 q 44 28 160 -14 l 74 215 l 94 231 q 203 162 143 188 q 307 136 263 136 q 354 150 336 136 q 372 185 372 164 q 349 224 372 208 q 268 263 325 239 q 165 311 206 288 q 94 376 124 335 q 64 482 64 418 q 99 602 64 549 q 201 687 135 656 q 360 718 268 718 z "},"t":{"ha":626,"x_min":25,"x_max":600,"o":"m 588 535 l 440 543 l 415 543 l 410 228 l 418 0 l 210 0 l 219 207 l 214 543 l 189 543 l 39 535 l 25 550 l 38 706 l 589 706 l 600 690 l 588 535 z "},"u":{"ha":779,"x_min":72,"x_max":707,"o":"m 699 236 q 615 52 699 117 q 378 -12 532 -12 q 151 52 229 -12 q 75 236 72 117 l 78 349 l 72 706 l 281 706 l 271 265 q 298 181 269 207 q 388 154 326 154 q 477 181 449 154 q 504 265 506 207 l 494 706 l 707 706 l 700 347 l 699 236 z "},"v":{"ha":732,"x_min":21,"x_max":719,"o":"m 233 0 l 21 706 l 232 706 l 253 592 l 357 188 l 369 188 l 494 579 l 515 706 l 719 706 l 485 0 l 233 0 z "},"w":{"ha":1078,"x_min":35,"x_max":1068,"o":"m 615 0 l 535 263 l 522 263 l 444 0 l 218 0 l 35 706 l 242 706 l 253 599 l 340 215 l 353 215 l 450 542 l 408 706 l 624 706 l 639 576 l 732 215 l 746 215 l 851 586 l 872 706 l 1068 706 l 840 0 l 615 0 z "},"x":{"ha":756,"x_min":15,"x_max":743,"o":"m 743 0 l 493 0 l 456 85 l 371 208 l 268 74 l 232 0 l 21 0 l 249 340 l 15 706 l 267 706 l 306 619 l 388 500 l 478 631 l 511 706 l 729 706 l 513 372 l 743 0 z "},"y":{"ha":706,"x_min":8,"x_max":707,"o":"m 447 0 l 239 0 l 249 188 l 247 217 l 8 706 l 228 706 l 246 649 l 344 428 l 356 428 l 468 640 l 493 706 l 707 706 l 440 222 l 439 188 l 447 0 z "},"z":{"ha":681,"x_min":44,"x_max":642,"o":"m 293 156 l 496 156 l 636 167 l 642 158 l 626 -6 l 428 0 l 154 0 l 46 -6 l 46 143 l 385 550 l 188 550 l 51 538 l 44 546 l 60 708 l 226 706 l 544 706 l 628 707 l 628 557 l 293 156 z "},"{":{"ha":414,"x_min":44,"x_max":411,"o":"m 304 914 q 403 899 353 914 l 411 883 l 393 774 q 346 781 365 781 q 275 703 275 781 q 292 615 275 676 q 308 525 308 554 q 213 382 308 426 l 213 374 q 284 315 260 353 q 308 233 308 278 q 292 139 308 203 q 275 54 275 81 q 346 -25 275 -25 q 393 -18 365 -25 l 411 -128 l 403 -143 q 304 -157 357 -157 q 155 -113 207 -157 q 103 10 103 -69 q 119 135 103 57 q 132 224 132 194 q 44 328 132 301 l 44 428 q 132 533 132 457 q 119 621 132 561 q 103 746 103 699 q 155 870 103 826 q 304 914 207 914 z "},"|":{"ha":422,"x_min":126,"x_max":297,"o":"m 292 406 l 293 -346 l 143 -358 l 126 -339 l 128 389 l 129 1107 l 282 1119 l 297 1104 l 292 406 z "},"}":{"ha":414,"x_min":1,"x_max":368,"o":"m 108 -158 q 10 -143 60 -158 l 1 -128 l 19 -18 q 67 -25 47 -25 q 138 53 138 -25 q 121 140 138 79 q 104 231 104 201 q 200 374 104 329 l 200 382 q 128 440 153 403 q 104 522 104 478 q 121 617 104 553 q 138 701 138 675 q 67 781 138 781 q 19 774 47 781 l 1 883 l 10 899 q 108 913 56 913 q 258 869 206 913 q 310 746 310 825 q 293 621 310 699 q 281 532 281 561 q 368 428 281 454 l 368 328 q 281 222 281 299 q 293 135 281 194 q 310 10 310 57 q 258 -115 310 -71 q 108 -158 206 -158 z "},"~":{"ha":667,"x_min":28,"x_max":639,"o":"m 208 314 q 170 299 189 314 q 132 263 151 283 q 106 233 113 242 l 86 233 l 28 306 l 28 325 l 147 465 l 167 475 q 310 436 218 465 q 461 399 433 399 q 499 415 481 399 q 538 451 518 431 q 564 479 557 472 l 582 479 l 639 407 l 639 389 l 521 247 l 501 240 q 347 281 464 246 q 208 314 228 314 z "}," ":{"ha":201,"x_min":0,"x_max":0,"o":""},"¡":{"ha":372,"x_min":71,"x_max":326,"o":"m 129 313 l 254 331 l 275 308 l 292 -237 l 272 -262 l 96 -274 l 71 -247 l 129 313 m 208 435 q 129 464 157 435 q 101 544 101 493 q 133 633 101 600 q 217 665 164 665 q 298 636 269 665 q 326 554 326 607 q 294 467 326 500 q 208 435 263 435 z "},"¢":{"ha":531,"x_min":32,"x_max":525,"o":"m 368 211 q 497 240 418 211 l 514 228 l 492 63 q 392 43 439 49 l 379 -175 l 232 -175 l 215 -158 l 228 51 q 83 160 133 78 q 32 369 32 242 q 93 595 32 507 q 265 708 154 683 l 276 915 l 419 915 l 442 896 l 431 711 q 525 685 486 703 l 489 513 l 472 506 q 354 540 399 540 q 242 392 242 540 q 368 211 242 211 z "},"£":{"ha":639,"x_min":21,"x_max":607,"o":"m 592 -6 l 399 0 l 29 0 l 21 11 l 31 132 q 108 176 83 144 q 132 265 132 208 l 131 364 l 29 364 l 21 375 l 31 482 l 131 482 l 129 561 q 208 758 128 689 q 436 828 289 828 q 600 807 513 828 l 588 653 l 574 643 q 417 688 483 688 q 321 596 321 688 l 319 482 l 497 482 l 503 472 l 494 364 l 319 364 l 318 276 q 306 203 318 231 q 267 151 294 175 l 267 146 l 454 146 l 600 157 l 607 146 l 592 -6 z "},"¤":{"ha":603,"x_min":11,"x_max":618,"o":"m 610 671 l 513 585 q 540 479 540 536 q 517 383 540 433 l 614 304 l 618 283 l 522 183 l 504 183 l 419 281 q 313 251 374 251 q 215 276 263 251 l 136 181 l 117 178 l 15 272 l 17 292 l 113 375 q 85 479 85 422 q 110 578 85 531 l 14 658 l 11 678 l 106 778 l 124 776 l 210 679 q 313 707 257 707 q 408 683 358 707 l 490 781 l 510 785 l 610 689 l 610 671 m 313 590 q 232 560 263 590 q 201 479 201 529 q 232 399 201 429 q 313 368 263 368 q 393 399 363 368 q 424 479 424 429 q 393 560 424 529 q 313 590 363 590 z "},"¥":{"ha":761,"x_min":38,"x_max":744,"o":"m 481 246 l 721 246 l 731 238 l 724 147 l 465 147 l 472 0 l 282 0 l 289 147 l 50 147 l 43 158 l 49 246 l 274 246 l 225 339 l 50 339 l 43 350 l 49 439 l 174 439 l 38 704 l 238 704 l 256 649 l 378 415 l 389 415 l 525 642 l 550 704 l 744 704 l 592 439 l 721 439 l 731 431 l 724 339 l 535 339 l 481 246 z "},"¦":{"ha":422,"x_min":126,"x_max":297,"o":"m 293 526 l 143 507 l 128 521 l 128 1107 l 282 1119 l 297 1104 l 293 526 m 293 -346 l 143 -358 l 126 -339 l 128 206 l 275 224 l 292 204 l 293 -346 z "},"§":{"ha":607,"x_min":29,"x_max":583,"o":"m 451 224 q 526 86 526 168 q 491 -24 526 26 q 392 -105 456 -75 q 250 -135 329 -135 q 140 -124 203 -135 q 29 -94 78 -112 l 56 74 l 75 86 q 176 25 124 47 q 272 3 229 3 q 323 17 306 3 q 340 49 340 31 q 315 86 340 69 q 236 126 290 103 q 133 179 174 154 q 62 244 92 204 q 32 343 32 285 q 67 460 32 404 q 161 550 101 515 q 89 685 89 606 q 124 797 89 746 q 223 879 160 849 q 365 910 286 910 q 550 876 464 910 l 524 715 l 499 707 q 336 768 404 768 q 290 754 307 768 q 274 721 274 740 q 298 685 274 700 q 378 644 322 669 q 483 592 443 615 q 553 528 522 568 q 583 429 583 488 q 548 313 583 368 q 451 224 513 258 m 217 399 q 245 342 217 365 q 333 290 274 319 q 397 372 397 322 q 368 431 397 407 q 279 483 339 454 q 217 399 217 450 z "},"¨":{"ha":539,"x_min":43,"x_max":474,"o":"m 149 890 q 220 864 195 890 q 246 792 246 838 q 217 712 246 742 q 141 683 189 683 q 69 709 94 683 q 44 783 44 735 q 72 861 44 831 q 149 890 100 890 m 375 890 q 447 864 421 890 q 472 792 472 838 q 444 712 472 742 q 368 683 415 683 q 295 709 320 683 q 270 783 270 735 q 298 861 270 831 q 375 890 326 890 z "},"©":{"ha":956,"x_min":58,"x_max":896,"o":"m 476 831 q 697 778 601 831 q 844 629 792 725 q 896 407 896 533 q 844 185 896 281 q 697 36 792 89 q 476 -17 601 -17 q 258 36 353 -17 q 110 185 163 89 q 58 407 58 281 q 110 629 58 533 q 258 778 163 725 q 476 831 353 831 m 476 758 q 297 715 375 758 q 175 591 218 671 q 132 407 132 511 q 175 223 132 303 q 297 99 218 143 q 476 56 375 56 q 658 99 579 56 q 779 223 736 143 q 822 407 822 303 q 779 591 822 511 q 658 715 736 671 q 476 758 579 758 m 513 644 q 633 626 572 644 l 607 511 l 599 506 q 507 526 560 526 q 439 503 460 526 q 418 422 418 479 q 441 326 418 357 q 515 296 464 296 q 607 310 563 296 l 619 304 l 608 190 q 504 178 568 178 q 265 407 265 178 q 330 582 265 519 q 513 644 394 644 z "},"ª":{"ha":486,"x_min":29,"x_max":463,"o":"m 250 907 q 379 873 335 907 q 424 775 424 839 q 419 674 424 736 l 417 589 q 432 563 417 563 q 451 567 446 563 l 463 557 l 447 472 q 372 446 414 446 q 316 460 335 446 q 286 513 297 475 l 281 513 q 182 444 239 464 q 70 483 111 446 q 29 586 29 521 q 135 704 29 688 l 272 724 l 274 744 q 224 794 274 794 q 86 747 169 794 l 75 753 l 57 858 q 250 907 150 907 m 207 639 q 176 601 176 632 q 217 557 176 557 q 272 581 244 557 l 272 650 l 207 639 z "},"«":{"ha":617,"x_min":25,"x_max":583,"o":"m 25 331 l 207 582 l 310 528 l 314 507 l 183 317 l 314 128 l 310 108 l 207 54 l 25 297 l 25 331 m 294 331 l 476 582 l 579 528 l 583 507 l 453 317 l 583 128 l 579 108 l 476 54 l 294 297 l 294 331 z "},"¬":{"ha":667,"x_min":26,"x_max":604,"o":"m 604 63 l 471 53 l 456 67 l 456 285 l 40 285 l 26 300 l 38 432 l 596 432 l 604 421 l 604 63 z "},"­":{"ha":419,"x_min":36,"x_max":382,"o":"m 382 303 l 53 251 l 36 268 l 36 404 l 365 454 l 382 439 l 382 303 z "},"®":{"ha":624,"x_min":50,"x_max":574,"o":"m 313 976 q 502 904 431 976 q 574 714 574 832 q 502 524 574 596 q 313 451 431 451 q 122 524 194 451 q 50 714 50 596 q 122 904 50 832 q 313 976 194 976 m 313 503 q 465 561 407 503 q 524 714 524 619 q 465 867 524 808 q 313 925 407 925 q 160 867 218 925 q 101 714 101 808 q 160 561 101 619 q 313 503 218 503 m 432 774 q 381 693 432 724 q 449 604 401 663 l 447 596 q 374 582 425 588 l 364 588 q 318 671 339 629 l 279 671 l 283 588 l 207 588 l 210 665 l 207 858 l 333 860 q 406 838 381 860 q 432 774 432 815 m 353 768 q 307 804 353 803 l 283 803 l 281 728 l 322 725 q 353 768 353 740 z "},"¯":{"ha":539,"x_min":65,"x_max":476,"o":"m 465 797 l 79 797 l 65 813 l 75 935 l 463 935 l 476 919 l 465 797 z "},"°":{"ha":406,"x_min":19,"x_max":386,"o":"m 203 910 q 333 857 279 910 q 386 728 386 804 q 333 598 386 651 q 203 544 281 544 q 110 569 153 544 q 44 635 68 593 q 19 728 19 678 q 44 819 19 778 q 110 885 68 861 q 203 910 153 910 m 203 818 q 138 792 164 818 q 111 728 111 767 q 138 663 111 689 q 203 636 164 636 q 269 663 243 636 q 294 728 294 689 q 268 792 294 767 q 203 818 242 818 z "},"±":{"ha":667,"x_min":28,"x_max":640,"o":"m 408 432 l 625 432 l 640 418 l 629 285 l 408 285 l 408 63 l 275 53 l 260 67 l 260 285 l 42 285 l 28 300 l 39 432 l 260 432 l 260 654 l 393 665 l 408 651 l 408 432 m 629 -178 l 42 -178 l 28 -162 l 39 -31 l 625 -31 l 640 -44 l 629 -178 z "},"²":{"ha":510,"x_min":40,"x_max":478,"o":"m 260 981 q 386 945 336 981 q 436 846 436 910 q 410 758 436 806 q 326 640 385 711 l 264 565 l 267 561 l 374 561 l 469 569 l 478 558 l 458 426 l 321 433 l 88 433 l 50 431 l 42 438 l 42 536 l 171 669 q 243 754 222 726 q 264 806 264 782 q 217 843 264 843 q 152 827 188 843 q 88 783 117 811 l 68 783 l 40 910 q 260 981 157 981 z "},"³":{"ha":456,"x_min":25,"x_max":415,"o":"m 215 982 q 351 945 300 982 q 403 849 403 908 q 318 722 403 767 l 318 717 q 415 592 415 689 q 344 469 415 515 q 156 424 274 424 q 43 435 99 424 l 33 554 l 44 564 q 158 547 107 547 q 250 597 250 547 q 193 639 250 638 l 115 639 l 107 649 l 110 760 l 154 761 q 208 777 186 763 q 229 815 229 792 q 178 851 229 851 q 69 819 136 851 l 51 819 l 25 931 q 215 982 113 982 z "},"´":{"ha":539,"x_min":90,"x_max":451,"o":"m 451 901 l 447 882 q 161 722 310 803 l 142 724 l 90 807 q 353 1024 236 918 l 372 1022 l 451 901 z "},"µ":{"ha":732,"x_min":68,"x_max":713,"o":"m 690 25 q 582 -11 642 -11 q 501 13 532 -11 q 451 90 471 36 l 442 90 q 306 -8 376 15 q 276 -7 286 -8 l 276 -257 l 69 -257 l 76 265 l 68 636 l 276 653 l 276 257 q 350 167 276 167 q 444 208 397 167 l 444 636 l 653 653 l 640 189 q 668 144 640 144 q 699 153 681 144 l 713 140 l 690 25 z "},"¶":{"ha":749,"x_min":26,"x_max":729,"o":"m 715 728 l 626 728 l 618 282 l 621 193 q 556 8 621 81 q 331 -124 492 -65 l 274 -24 l 274 -4 q 381 78 349 36 q 413 185 413 121 l 413 258 l 404 729 l 350 729 q 263 585 263 708 q 365 393 263 465 l 289 282 q 94 394 163 314 q 26 592 26 474 q 119 817 26 738 q 382 896 211 896 l 717 896 l 729 881 l 715 728 z "},"·":{"ha":317,"x_min":46,"x_max":271,"o":"m 163 469 q 242 440 214 469 q 271 360 271 411 q 239 272 271 304 q 154 239 207 239 q 74 268 101 239 q 46 350 46 297 q 77 437 46 404 q 163 469 108 469 z "},"¸":{"ha":539,"x_min":144,"x_max":404,"o":"m 346 -90 q 404 -175 404 -121 q 366 -253 404 -222 q 264 -283 328 -283 q 144 -247 203 -283 l 158 -158 l 168 -154 q 250 -194 211 -194 q 279 -169 279 -194 q 258 -144 279 -156 l 190 -107 l 222 40 l 321 40 l 299 -64 l 346 -90 z "},"¹":{"ha":394,"x_min":10,"x_max":300,"o":"m 293 626 l 299 433 l 125 433 l 132 610 l 132 794 l 21 774 l 10 782 l 10 914 l 276 981 l 300 964 l 293 626 z "},"º":{"ha":488,"x_min":26,"x_max":460,"o":"m 251 907 q 460 685 460 907 q 235 443 460 443 q 79 500 132 443 q 26 667 26 557 q 251 907 26 907 m 242 796 q 194 772 207 796 q 181 686 181 749 q 195 579 181 608 q 246 550 210 550 q 294 575 281 550 q 308 665 308 600 q 294 768 308 740 q 242 796 279 796 z "},"»":{"ha":614,"x_min":26,"x_max":583,"o":"m 583 308 l 401 57 l 299 111 l 294 132 l 425 322 l 294 511 l 299 531 l 401 585 l 583 342 l 583 308 m 315 308 l 133 57 l 31 111 l 26 132 l 157 322 l 26 511 l 31 531 l 133 585 l 315 342 l 315 308 z "},"¼":{"ha":1067,"x_min":10,"x_max":1035,"o":"m 203 -129 l 110 -72 l 101 -51 l 749 957 l 836 903 l 849 875 l 203 -129 m 21 697 l 10 706 l 10 838 l 276 904 l 300 888 l 293 550 l 299 357 l 125 357 l 132 533 l 132 718 l 21 697 m 958 111 l 965 11 l 956 0 l 821 -7 l 813 3 l 815 113 l 683 113 l 582 108 l 571 122 l 571 225 l 800 540 l 958 540 l 956 236 l 1025 236 l 1035 222 l 1028 108 l 958 111 m 818 236 l 818 361 l 808 361 l 717 236 l 818 236 z "},"½":{"ha":1110,"x_min":10,"x_max":1079,"o":"m 849 875 l 203 -129 l 110 -72 l 101 -51 l 749 957 l 836 903 l 849 875 m 293 550 l 299 357 l 125 357 l 132 533 l 132 718 l 21 697 l 10 706 l 10 838 l 276 904 l 300 888 l 293 550 m 861 547 q 988 512 938 547 q 1038 413 1038 476 q 1012 325 1038 372 q 928 207 986 278 l 865 132 l 868 128 l 975 128 l 1071 136 l 1079 125 l 1060 -7 l 922 0 l 689 0 l 651 -3 l 643 4 l 643 103 l 772 236 q 844 321 824 293 q 865 372 865 349 q 818 410 865 410 q 753 394 789 410 q 689 350 718 378 l 669 350 l 642 476 q 861 547 758 547 z "},"¾":{"ha":1122,"x_min":25,"x_max":1090,"o":"m 258 -129 l 165 -72 l 157 -51 l 804 957 l 892 903 l 904 875 l 258 -129 m 415 515 q 344 393 415 439 q 156 347 274 347 q 43 358 99 347 l 33 478 l 44 488 q 158 471 107 471 q 250 521 250 471 q 193 563 250 561 l 115 563 l 107 572 l 110 683 l 154 685 q 208 701 186 686 q 229 739 229 715 q 178 775 229 775 q 69 743 136 775 l 51 743 l 25 854 q 215 906 113 906 q 351 869 300 906 q 403 772 403 832 q 318 646 403 690 l 318 640 q 415 515 415 613 m 1014 111 l 1021 11 l 1011 0 l 876 -7 l 868 3 l 871 113 l 739 113 l 638 108 l 626 122 l 626 225 l 856 540 l 1014 540 l 1011 236 l 1081 236 l 1090 222 l 1083 108 l 1014 111 m 874 236 l 874 361 l 864 361 l 772 236 l 874 236 z "},"¿":{"ha":479,"x_min":-26,"x_max":429,"o":"m 369 -279 q 76 -211 179 -269 q -26 -51 -26 -153 q 8 58 -26 7 q 104 143 42 108 l 196 196 l 200 203 l 190 313 l 344 335 l 360 319 l 375 150 l 367 135 l 246 79 q 172 -18 172 42 q 227 -92 172 -67 q 414 -126 282 -118 l 429 -146 l 389 -268 l 369 -279 m 258 435 q 178 464 207 435 q 150 544 150 493 q 182 633 150 600 q 267 665 214 665 q 347 636 319 665 q 375 554 375 607 q 344 467 375 500 q 258 435 313 435 z "},"À":{"ha":849,"x_min":8,"x_max":831,"o":"m 560 992 q 249 1096 378 1049 l 242 1114 l 297 1246 l 317 1250 q 615 1089 465 1163 l 581 997 l 560 992 m 601 0 l 578 129 l 565 181 l 406 183 l 265 179 l 254 143 l 229 0 l 8 0 l 299 896 l 568 896 l 831 0 l 601 0 m 436 690 l 421 690 l 317 350 l 419 347 l 522 350 l 436 690 z "},"Á":{"ha":849,"x_min":8,"x_max":831,"o":"m 601 0 l 578 129 l 565 181 l 404 183 l 265 179 l 254 143 l 229 0 l 8 0 l 297 896 l 568 896 l 831 0 l 601 0 m 435 690 l 421 690 l 317 350 l 419 347 l 522 350 l 435 690 m 640 1114 l 633 1096 q 322 992 504 1049 l 301 997 l 267 1089 q 565 1250 417 1163 l 585 1246 l 640 1114 z "},"Â":{"ha":849,"x_min":8,"x_max":831,"o":"m 210 1094 q 406 1247 315 1165 l 447 1247 q 644 1094 542 1163 l 606 1007 l 585 1007 l 426 1093 q 332 1040 450 1107 l 269 1007 l 249 1007 l 210 1094 m 601 0 l 578 129 l 565 181 l 406 183 l 265 179 l 254 143 l 229 0 l 8 0 l 299 896 l 568 896 l 831 0 l 601 0 m 436 690 l 421 690 l 317 350 l 419 347 l 522 350 l 436 690 z "},"Ã":{"ha":849,"x_min":8,"x_max":831,"o":"m 601 0 l 578 129 l 565 181 l 404 183 l 265 179 l 254 143 l 229 0 l 8 0 l 297 896 l 568 896 l 831 0 l 601 0 m 435 690 l 421 690 l 317 350 l 419 347 l 522 350 l 435 690 m 681 1161 l 578 1024 l 558 1015 q 443 1042 539 1018 q 344 1064 369 1064 q 310 1050 326 1064 q 277 1017 293 1036 q 254 989 261 997 l 235 989 l 171 1053 l 171 1071 l 274 1208 l 293 1215 q 414 1188 324 1211 q 507 1167 488 1167 q 541 1181 525 1167 q 573 1214 557 1194 q 597 1243 589 1233 l 617 1243 l 681 1179 l 681 1161 z "},"Ä":{"ha":849,"x_min":8,"x_max":831,"o":"m 299 1008 q 226 1034 251 1008 q 200 1107 200 1060 q 228 1186 200 1157 q 306 1215 257 1215 q 377 1189 351 1215 q 403 1117 403 1163 q 375 1038 403 1067 q 299 1008 347 1008 m 551 1008 q 478 1034 504 1008 q 453 1107 453 1060 q 481 1186 453 1157 q 558 1215 510 1215 q 630 1189 604 1215 q 656 1117 656 1163 q 628 1038 656 1067 q 551 1008 600 1008 m 601 0 l 578 129 l 565 181 l 406 183 l 265 179 l 254 143 l 229 0 l 8 0 l 299 896 l 568 896 l 831 0 l 601 0 m 436 690 l 421 690 l 317 350 l 419 347 l 522 350 l 436 690 z "},"Å":{"ha":849,"x_min":8,"x_max":831,"o":"m 601 0 l 578 129 l 565 181 l 404 183 l 265 179 l 254 143 l 229 0 l 8 0 l 297 896 l 568 896 l 831 0 l 601 0 m 435 690 l 421 690 l 317 350 l 419 347 l 522 350 l 435 690 m 431 1269 q 533 1235 499 1269 q 568 1136 568 1200 q 530 1028 568 1067 q 422 990 492 990 q 320 1026 356 990 q 285 1128 285 1061 q 322 1233 285 1197 q 431 1269 360 1269 m 425 1179 q 374 1132 374 1179 q 428 1079 374 1079 q 479 1128 479 1079 q 425 1179 479 1179 z "},"Æ":{"ha":1153,"x_min":-26,"x_max":1146,"o":"m 1131 0 l 564 0 l 557 129 l 540 281 l 267 203 l 240 143 l 196 0 l -26 0 l 385 896 l 1042 896 l 1056 879 l 1039 713 l 826 721 l 713 721 l 735 508 l 990 579 l 1006 567 l 1025 410 l 751 339 l 768 175 l 904 175 l 1132 183 l 1146 167 l 1131 0 m 496 690 l 482 690 l 354 401 l 522 449 l 496 690 z "},"Ç":{"ha":717,"x_min":33,"x_max":707,"o":"m 478 174 q 668 221 581 174 l 688 210 l 669 25 q 483 -14 583 -10 l 472 -62 l 519 -89 q 578 -174 578 -119 q 540 -251 578 -221 q 438 -282 501 -282 q 318 -246 376 -282 l 332 -157 l 342 -153 q 424 -193 385 -193 q 453 -168 453 -193 q 432 -143 453 -154 l 364 -106 l 385 -10 q 122 125 211 10 q 33 440 33 240 q 149 786 33 664 q 476 908 265 908 q 707 863 603 908 l 668 678 l 651 669 q 467 725 569 725 q 319 663 368 725 q 271 465 271 600 q 478 174 271 174 z "},"È":{"ha":725,"x_min":97,"x_max":708,"o":"m 532 992 q 221 1096 350 1049 l 214 1114 l 269 1246 l 289 1250 q 588 1089 438 1163 l 553 997 l 532 992 m 703 167 l 689 0 l 97 0 l 110 265 l 97 896 l 696 896 l 708 879 l 693 713 l 476 721 l 322 719 l 319 540 l 467 540 l 613 544 l 625 528 l 611 361 l 451 365 l 315 365 l 314 288 l 318 176 l 465 175 l 690 183 l 703 167 z "},"É":{"ha":725,"x_min":97,"x_max":710,"o":"m 703 167 l 689 0 l 97 0 l 110 265 l 97 896 l 697 896 l 710 879 l 694 713 l 476 721 l 324 719 l 321 540 l 467 540 l 613 544 l 625 528 l 611 361 l 451 365 l 317 365 l 315 288 l 318 176 l 465 175 l 690 183 l 703 167 m 613 1114 l 606 1096 q 294 992 476 1049 l 274 997 l 239 1089 q 538 1250 389 1163 l 557 1246 l 613 1114 z "},"Ê":{"ha":725,"x_min":97,"x_max":708,"o":"m 181 1094 q 376 1247 286 1165 l 418 1247 q 615 1094 513 1163 l 576 1007 l 556 1007 l 397 1093 q 303 1040 421 1107 l 240 1007 l 219 1007 l 181 1094 m 703 167 l 689 0 l 97 0 l 110 265 l 97 896 l 696 896 l 708 879 l 693 713 l 476 721 l 322 719 l 319 540 l 467 540 l 613 544 l 625 528 l 611 361 l 451 365 l 315 365 l 314 288 l 318 176 l 465 175 l 690 183 l 703 167 z "},"Ë":{"ha":725,"x_min":97,"x_max":708,"o":"m 269 1008 q 197 1034 222 1008 q 171 1107 171 1060 q 199 1186 171 1157 q 276 1215 228 1215 q 348 1189 322 1215 q 374 1117 374 1163 q 346 1038 374 1067 q 269 1008 318 1008 m 522 1008 q 449 1034 475 1008 q 424 1107 424 1060 q 452 1186 424 1157 q 529 1215 481 1215 q 601 1189 575 1215 q 626 1117 626 1163 q 599 1038 626 1067 q 522 1008 571 1008 m 703 167 l 689 0 l 97 0 l 110 265 l 97 896 l 696 896 l 708 879 l 693 713 l 476 721 l 322 719 l 319 540 l 467 540 l 613 544 l 625 528 l 611 361 l 451 365 l 315 365 l 314 288 l 318 176 l 465 175 l 690 183 l 703 167 z "},"Ì":{"ha":428,"x_min":28,"x_max":401,"o":"m 103 1250 q 401 1089 251 1163 l 367 997 l 346 992 q 35 1096 164 1049 l 28 1114 l 83 1246 l 103 1250 m 324 0 l 97 0 l 110 265 l 97 896 l 326 896 l 314 288 l 324 0 z "},"Í":{"ha":428,"x_min":53,"x_max":426,"o":"m 324 0 l 97 0 l 110 265 l 97 896 l 328 896 l 315 288 l 324 0 m 426 1114 l 419 1096 q 108 992 290 1049 l 88 997 l 53 1089 q 351 1250 203 1163 l 371 1246 l 426 1114 z "},"Î":{"ha":428,"x_min":-4,"x_max":431,"o":"m -4 1094 q 192 1247 101 1165 l 233 1247 q 431 1094 328 1163 l 392 1007 l 371 1007 l 213 1093 q 118 1040 236 1107 l 56 1007 l 35 1007 l -4 1094 m 324 0 l 97 0 l 110 265 l 97 896 l 326 896 l 314 288 l 324 0 z "},"Ï":{"ha":428,"x_min":-3,"x_max":429,"o":"m 103 1215 q 174 1189 149 1215 q 200 1117 200 1163 q 172 1038 200 1067 q 96 1008 144 1008 q 23 1034 49 1008 q -3 1107 -3 1060 q 26 1186 -3 1157 q 103 1215 54 1215 m 332 1215 q 403 1189 378 1215 q 429 1117 429 1163 q 401 1038 429 1067 q 325 1008 374 1008 q 252 1034 278 1008 q 226 1107 226 1060 q 255 1186 226 1157 q 332 1215 283 1215 m 324 0 l 97 0 l 110 265 l 97 896 l 326 896 l 314 288 l 324 0 z "},"Ð":{"ha":953,"x_min":24,"x_max":921,"o":"m 515 901 q 816 793 711 901 q 921 483 921 685 q 801 117 921 244 q 460 -11 682 -11 q 136 0 333 -11 l 147 265 l 146 368 l 33 368 l 24 383 l 31 515 l 143 515 l 136 896 l 515 901 m 501 160 q 685 429 685 160 q 640 656 685 588 q 496 724 596 724 q 361 718 422 724 l 357 515 l 501 515 l 511 500 l 504 368 l 354 368 l 353 288 l 357 171 q 501 160 438 160 z "},"Ñ":{"ha":974,"x_min":97,"x_max":876,"o":"m 872 0 l 628 0 l 310 554 l 296 554 l 294 315 l 304 0 l 97 0 l 110 264 l 99 896 l 343 896 l 661 342 l 675 342 l 668 888 l 876 900 l 864 283 l 872 0 m 740 1161 l 638 1024 l 618 1015 q 503 1042 599 1018 q 404 1064 429 1064 q 369 1050 386 1064 q 337 1017 353 1036 q 314 989 321 997 l 294 989 l 231 1053 l 231 1071 l 333 1208 l 353 1215 q 474 1188 383 1211 q 567 1167 547 1167 q 601 1181 585 1167 q 633 1214 617 1194 q 657 1243 649 1233 l 676 1243 l 740 1179 l 740 1161 z "},"Ò":{"ha":899,"x_min":33,"x_max":867,"o":"m 342 1250 q 640 1089 490 1163 l 606 997 l 585 992 q 274 1096 403 1049 l 267 1114 l 322 1246 l 342 1250 m 468 910 q 763 795 658 910 q 867 469 867 681 q 753 111 867 238 q 433 -15 640 -15 q 138 102 242 -15 q 33 435 33 219 q 147 786 33 663 q 468 910 260 910 m 447 729 q 342 704 381 729 q 285 622 303 679 q 268 465 268 564 q 286 281 268 347 q 344 185 304 214 q 451 156 383 156 q 556 181 517 156 q 613 265 594 207 q 631 422 631 322 q 613 605 631 539 q 555 700 594 671 q 447 729 515 729 z "},"Ó":{"ha":899,"x_min":33,"x_max":867,"o":"m 467 910 q 763 795 658 910 q 867 469 867 681 q 753 112 867 239 q 432 -15 639 -15 q 138 102 242 -15 q 33 435 33 219 q 147 786 33 663 q 467 910 260 910 m 447 729 q 342 704 381 729 q 285 622 303 679 q 268 465 268 564 q 286 281 268 347 q 344 185 304 214 q 451 156 383 156 q 556 181 517 156 q 613 265 594 207 q 631 422 631 322 q 613 605 631 539 q 555 700 594 671 q 447 729 515 729 m 665 1114 l 658 1096 q 347 992 529 1049 l 326 997 l 292 1089 q 590 1250 442 1163 l 610 1246 l 665 1114 z "},"Ô":{"ha":899,"x_min":33,"x_max":867,"o":"m 233 1094 q 429 1247 339 1165 l 471 1247 q 668 1094 565 1163 l 629 1007 l 608 1007 l 450 1093 q 356 1040 474 1107 l 293 1007 l 272 1007 l 233 1094 m 468 910 q 763 795 658 910 q 867 469 867 681 q 753 111 867 238 q 433 -15 640 -15 q 138 102 242 -15 q 33 435 33 219 q 147 786 33 663 q 468 910 260 910 m 447 729 q 342 704 381 729 q 285 622 303 679 q 268 465 268 564 q 286 281 268 347 q 344 185 304 214 q 451 156 383 156 q 556 181 517 156 q 613 265 594 207 q 631 422 631 322 q 613 605 631 539 q 555 700 594 671 q 447 729 515 729 z "},"Õ":{"ha":899,"x_min":33,"x_max":867,"o":"m 467 910 q 763 795 658 910 q 867 469 867 681 q 753 112 867 239 q 432 -15 639 -15 q 138 102 242 -15 q 33 435 33 219 q 147 786 33 663 q 467 910 260 910 m 447 729 q 342 704 381 729 q 285 622 303 679 q 268 465 268 564 q 286 281 268 347 q 344 185 304 214 q 451 156 383 156 q 556 181 517 156 q 613 265 594 207 q 631 422 631 322 q 613 605 631 539 q 555 700 594 671 q 447 729 515 729 m 704 1161 l 601 1024 l 582 1015 q 467 1042 563 1018 q 368 1064 393 1064 q 333 1050 350 1064 q 301 1017 317 1036 q 278 989 285 997 l 258 989 l 194 1053 l 194 1071 l 297 1208 l 317 1215 q 438 1188 347 1211 q 531 1167 511 1167 q 565 1181 549 1167 q 597 1214 581 1194 q 621 1243 613 1233 l 640 1243 l 704 1179 l 704 1161 z "},"Ö":{"ha":899,"x_min":33,"x_max":867,"o":"m 329 1215 q 401 1189 375 1215 q 426 1117 426 1163 q 399 1038 426 1067 q 322 1008 371 1008 q 249 1034 275 1008 q 224 1107 224 1060 q 252 1186 224 1157 q 329 1215 281 1215 m 582 1215 q 653 1189 628 1215 q 679 1117 679 1163 q 651 1038 679 1067 q 575 1008 624 1008 q 502 1034 528 1008 q 476 1107 476 1060 q 505 1186 476 1157 q 582 1215 533 1215 m 468 910 q 763 795 658 910 q 867 469 867 681 q 753 111 867 238 q 433 -15 640 -15 q 138 102 242 -15 q 33 435 33 219 q 147 786 33 663 q 468 910 260 910 m 447 729 q 342 704 381 729 q 285 622 303 679 q 268 465 268 564 q 286 281 268 347 q 344 185 304 214 q 451 156 383 156 q 556 181 517 156 q 613 265 594 207 q 631 422 631 322 q 613 605 631 539 q 555 700 594 671 q 447 729 515 729 z "},"×":{"ha":667,"x_min":75,"x_max":593,"o":"m 593 513 l 439 358 l 592 204 l 592 183 l 490 97 l 335 254 l 176 96 l 75 183 l 75 203 l 229 358 l 75 513 l 75 533 l 176 619 l 335 464 l 490 619 l 592 533 l 593 513 z "},"Ø":{"ha":899,"x_min":33,"x_max":867,"o":"m 731 826 q 867 469 867 711 q 753 111 867 238 q 433 -15 640 -15 q 328 -4 379 -15 l 244 -176 l 104 -125 l 94 -106 l 176 65 q 33 435 33 181 q 147 786 33 663 q 468 910 260 910 q 581 897 529 910 l 658 1057 l 794 1006 l 807 983 l 731 826 m 451 156 q 556 181 517 156 q 613 265 594 207 q 631 422 631 322 q 613 605 631 539 q 555 700 594 671 q 447 729 515 729 q 342 704 381 729 q 285 622 303 679 q 268 465 268 564 q 286 281 268 347 q 344 185 304 214 q 451 156 383 156 z "},"Ù":{"ha":894,"x_min":78,"x_max":819,"o":"m 342 1250 q 640 1089 490 1163 l 606 997 l 585 992 q 274 1096 403 1049 l 267 1114 l 322 1246 l 342 1250 m 811 313 q 714 71 811 156 q 435 -14 617 -14 q 169 69 261 -14 q 81 308 76 153 l 83 444 l 78 896 l 303 896 l 293 339 q 328 208 292 250 q 446 167 365 167 q 565 208 526 167 q 601 333 603 249 l 592 896 l 819 896 l 813 442 l 811 313 z "},"Ú":{"ha":894,"x_min":78,"x_max":821,"o":"m 811 313 q 715 71 813 156 q 436 -14 617 -14 q 169 69 261 -14 q 81 308 76 153 l 83 444 l 78 896 l 303 896 l 293 339 q 329 208 292 250 q 446 167 367 167 q 565 208 526 167 q 601 333 603 249 l 592 896 l 821 896 l 813 442 l 811 313 m 664 1114 l 657 1096 q 346 992 528 1049 l 325 997 l 290 1089 q 589 1250 440 1163 l 608 1246 l 664 1114 z "},"Û":{"ha":894,"x_min":78,"x_max":819,"o":"m 233 1094 q 429 1247 339 1165 l 471 1247 q 668 1094 565 1163 l 629 1007 l 608 1007 l 450 1093 q 356 1040 474 1107 l 293 1007 l 272 1007 l 233 1094 m 811 313 q 714 71 811 156 q 435 -14 617 -14 q 169 69 261 -14 q 81 308 76 153 l 83 444 l 78 896 l 303 896 l 293 339 q 328 208 292 250 q 446 167 365 167 q 565 208 526 167 q 601 333 603 249 l 592 896 l 819 896 l 813 442 l 811 313 z "},"Ü":{"ha":894,"x_min":78,"x_max":819,"o":"m 329 1215 q 401 1189 375 1215 q 426 1117 426 1163 q 399 1038 426 1067 q 322 1008 371 1008 q 249 1034 275 1008 q 224 1107 224 1060 q 252 1186 224 1157 q 329 1215 281 1215 m 582 1215 q 653 1189 628 1215 q 679 1117 679 1163 q 651 1038 679 1067 q 575 1008 624 1008 q 502 1034 528 1008 q 476 1107 476 1060 q 505 1186 476 1157 q 582 1215 533 1215 m 811 313 q 714 71 811 156 q 435 -14 617 -14 q 169 69 261 -14 q 81 308 76 153 l 83 444 l 78 896 l 303 896 l 293 339 q 328 208 292 250 q 446 167 365 167 q 565 208 526 167 q 601 333 603 249 l 592 896 l 819 896 l 813 442 l 811 313 z "},"Ý":{"ha":796,"x_min":-1,"x_max":810,"o":"m 500 0 l 275 0 l 286 243 l 285 292 l -1 896 l 236 896 l 257 829 l 388 517 l 403 517 l 550 821 l 578 896 l 810 896 l 493 297 l 490 243 l 500 0 m 610 1114 l 603 1096 q 292 992 474 1049 l 271 997 l 236 1089 q 535 1250 386 1163 l 554 1246 l 610 1114 z "},"Þ":{"ha":803,"x_min":99,"x_max":786,"o":"m 482 763 q 708 692 629 763 q 786 482 786 621 q 686 234 786 322 q 401 146 586 146 l 321 144 l 326 0 l 99 0 l 110 265 l 101 758 l 99 761 l 101 761 l 99 896 l 329 896 l 326 763 l 482 763 m 440 307 q 520 363 493 325 q 547 465 547 400 q 513 567 547 535 q 406 601 479 599 l 324 596 l 317 313 l 440 307 z "},"ß":{"ha":836,"x_min":72,"x_max":813,"o":"m 425 718 q 581 699 507 718 q 749 639 654 681 l 757 615 l 608 421 q 733 342 690 374 q 794 276 775 310 q 813 199 813 243 q 735 40 813 93 q 540 -12 658 -12 q 326 29 428 -12 l 356 215 l 372 226 q 526 153 458 153 q 569 166 553 153 q 585 200 585 179 q 567 237 585 219 q 513 273 549 254 q 396 328 476 292 l 369 340 l 365 363 l 499 535 q 406 553 450 553 q 308 526 338 553 q 278 443 278 500 l 272 228 l 282 0 l 72 0 l 82 207 l 78 443 q 167 644 78 569 q 425 718 257 718 z "},"à":{"ha":746,"x_min":18,"x_max":718,"o":"m 492 779 q 206 939 343 860 l 201 958 l 281 1079 l 300 1081 q 563 864 417 975 l 511 781 l 492 779 m 506 0 l 486 113 l 483 124 l 354 126 l 243 124 l 222 0 l 18 0 l 254 706 l 504 706 l 718 0 l 506 0 m 381 518 l 368 518 l 292 279 l 367 278 l 443 279 l 381 518 z "},"á":{"ha":746,"x_min":18,"x_max":717,"o":"m 506 0 l 486 113 l 483 124 l 354 126 l 243 124 l 222 0 l 18 0 l 253 706 l 503 706 l 717 0 l 506 0 m 381 518 l 368 518 l 292 279 l 367 278 l 443 279 l 381 518 m 594 958 l 590 939 q 304 779 453 860 l 285 781 l 233 864 q 496 1081 379 975 l 515 1079 l 594 958 z "},"â":{"ha":746,"x_min":18,"x_max":718,"o":"m 153 872 q 361 1074 239 949 l 404 1074 q 613 872 497 976 l 558 790 l 538 790 q 383 910 431 867 q 229 790 339 872 l 207 790 l 153 872 m 506 0 l 486 113 l 483 124 l 354 126 l 243 124 l 222 0 l 18 0 l 254 706 l 504 706 l 718 0 l 506 0 m 381 518 l 368 518 l 292 279 l 367 278 l 443 279 l 381 518 z "},"ã":{"ha":746,"x_min":18,"x_max":717,"o":"m 506 0 l 486 113 l 483 124 l 354 126 l 243 124 l 222 0 l 18 0 l 253 706 l 503 706 l 717 0 l 506 0 m 381 518 l 368 518 l 292 279 l 367 278 l 443 279 l 381 518 m 636 972 l 533 835 l 514 826 q 399 853 494 829 q 300 875 325 875 q 265 861 282 875 q 233 828 249 847 q 210 800 217 808 l 190 800 l 126 864 l 126 882 l 229 1019 l 249 1026 q 369 999 279 1022 q 463 978 443 978 q 497 992 481 978 q 528 1025 513 1006 q 553 1054 544 1044 l 572 1054 l 636 990 l 636 972 z "},"ä":{"ha":746,"x_min":18,"x_max":718,"o":"m 254 819 q 181 845 207 819 q 156 918 156 871 q 184 997 156 968 q 261 1026 213 1026 q 333 1000 307 1026 q 358 928 358 974 q 331 849 358 878 q 254 819 303 819 m 507 819 q 434 845 460 819 q 408 918 408 871 q 437 997 408 968 q 514 1026 465 1026 q 585 1000 560 1026 q 611 928 611 974 q 583 849 611 878 q 507 819 556 819 m 506 0 l 486 113 l 483 124 l 354 126 l 243 124 l 222 0 l 18 0 l 254 706 l 504 706 l 718 0 l 506 0 m 381 518 l 368 518 l 292 279 l 367 278 l 443 279 l 381 518 z "},"å":{"ha":746,"x_min":18,"x_max":717,"o":"m 506 0 l 486 113 l 483 124 l 354 126 l 243 124 l 222 0 l 18 0 l 253 706 l 503 706 l 717 0 l 506 0 m 381 518 l 368 518 l 292 279 l 367 278 l 443 279 l 381 518 m 386 1081 q 489 1046 454 1081 q 524 947 524 1011 q 485 840 524 878 q 378 801 447 801 q 276 837 311 801 q 240 939 240 872 q 278 1044 240 1008 q 386 1081 315 1081 m 381 990 q 329 943 329 990 q 383 890 329 890 q 435 939 435 890 q 381 990 435 990 z "},"æ":{"ha":994,"x_min":-10,"x_max":982,"o":"m 969 0 l 489 0 l 483 107 l 471 210 l 226 142 l 215 118 l 179 0 l -10 0 l 338 706 l 894 706 l 907 690 l 893 549 l 713 557 l 617 557 l 635 403 l 851 461 l 864 450 l 881 314 l 650 257 l 663 150 l 776 150 l 971 157 l 982 143 l 969 0 m 433 531 l 421 531 l 313 314 l 454 353 l 433 531 z "},"ç":{"ha":626,"x_min":38,"x_max":607,"o":"m 418 161 q 571 192 503 161 l 589 181 l 572 11 q 422 -12 503 -10 l 411 -62 l 458 -89 q 517 -174 517 -119 q 478 -251 517 -221 q 376 -282 440 -282 q 257 -246 315 -282 l 271 -157 l 281 -153 q 363 -193 324 -193 q 392 -168 392 -193 q 371 -143 392 -154 l 303 -106 l 324 -7 q 110 101 182 11 q 38 346 38 192 q 136 619 38 522 q 415 717 235 717 q 607 686 519 717 l 572 515 l 557 507 q 406 547 490 547 q 294 506 329 547 q 258 369 258 464 q 297 212 258 263 q 418 161 336 161 z "},"è":{"ha":647,"x_min":90,"x_max":619,"o":"m 457 779 q 171 939 308 860 l 167 958 l 246 1079 l 265 1081 q 528 864 382 975 l 476 781 l 457 779 m 614 154 l 600 0 l 90 0 l 100 207 l 90 706 l 608 706 l 619 690 l 607 538 l 424 544 l 299 544 l 296 436 l 415 436 l 536 440 l 549 425 l 535 271 l 401 275 l 292 274 l 290 228 l 293 161 l 410 161 l 601 168 l 614 154 z "},"é":{"ha":647,"x_min":90,"x_max":619,"o":"m 614 154 l 600 0 l 90 0 l 100 207 l 90 706 l 607 706 l 619 690 l 606 538 l 422 544 l 299 544 l 296 436 l 415 436 l 536 440 l 547 425 l 535 271 l 401 275 l 292 274 l 290 228 l 293 161 l 410 161 l 601 168 l 614 154 m 560 958 l 556 939 q 269 779 418 860 l 250 781 l 199 864 q 461 1081 344 975 l 481 1079 l 560 958 z "},"ê":{"ha":647,"x_min":90,"x_max":619,"o":"m 118 872 q 326 1074 204 949 l 369 1074 q 578 872 463 976 l 524 790 l 503 790 q 349 910 396 867 q 194 790 304 872 l 172 790 l 118 872 m 614 154 l 600 0 l 90 0 l 100 207 l 90 706 l 608 706 l 619 690 l 607 538 l 424 544 l 299 544 l 296 436 l 415 436 l 536 440 l 549 425 l 535 271 l 401 275 l 292 274 l 290 228 l 293 161 l 410 161 l 601 168 l 614 154 z "},"ë":{"ha":647,"x_min":90,"x_max":619,"o":"m 219 819 q 147 845 172 819 q 121 918 121 871 q 149 997 121 968 q 226 1026 178 1026 q 298 1000 272 1026 q 324 928 324 974 q 296 849 324 878 q 219 819 268 819 m 472 819 q 399 845 425 819 q 374 918 374 871 q 402 997 374 968 q 479 1026 431 1026 q 551 1000 525 1026 q 576 928 576 974 q 549 849 576 878 q 472 819 521 819 m 614 154 l 600 0 l 90 0 l 100 207 l 90 706 l 608 706 l 619 690 l 607 538 l 424 544 l 299 544 l 296 436 l 415 436 l 536 440 l 549 425 l 535 271 l 401 275 l 292 274 l 290 228 l 293 161 l 410 161 l 601 168 l 614 154 z "},"ì":{"ha":401,"x_min":21,"x_max":382,"o":"m 119 1081 q 382 864 236 975 l 331 781 l 311 779 q 25 939 163 860 l 21 958 l 100 1079 l 119 1081 m 300 0 l 90 0 l 100 207 l 90 706 l 303 706 l 290 228 l 300 0 z "},"í":{"ha":401,"x_min":53,"x_max":414,"o":"m 299 0 l 90 0 l 100 207 l 90 706 l 303 706 l 290 228 l 299 0 m 414 958 l 410 939 q 124 779 272 860 l 104 781 l 53 864 q 315 1081 199 975 l 335 1079 l 414 958 z "},"î":{"ha":401,"x_min":-26,"x_max":433,"o":"m -26 872 q 182 1074 60 949 l 225 1074 q 433 872 318 976 l 379 790 l 358 790 q 204 910 251 867 q 50 790 160 872 l 28 790 l -26 872 m 300 0 l 90 0 l 100 207 l 90 706 l 303 706 l 290 228 l 300 0 z "},"ï":{"ha":401,"x_min":-12,"x_max":419,"o":"m 93 1026 q 165 1000 139 1026 q 190 928 190 974 q 163 849 190 878 q 86 819 135 819 q 13 845 39 819 q -12 918 -12 871 q 16 997 -12 968 q 93 1026 44 1026 m 322 1026 q 394 1000 368 1026 q 419 928 419 974 q 392 849 419 878 q 315 819 364 819 q 242 845 268 819 q 217 918 217 871 q 245 997 217 968 q 322 1026 274 1026 m 300 0 l 90 0 l 100 207 l 90 706 l 303 706 l 290 228 l 300 0 z "},"ð":{"ha":838,"x_min":26,"x_max":794,"o":"m 454 711 q 706 626 618 711 q 794 381 794 540 q 694 91 794 192 q 404 -10 593 -10 q 128 0 279 -10 l 138 207 l 136 282 l 38 282 l 26 297 l 35 413 l 133 413 l 128 706 l 454 711 m 442 147 q 578 331 578 147 q 545 497 578 449 q 436 546 513 546 q 336 542 390 546 l 332 413 l 465 413 l 475 397 l 467 282 l 329 282 l 328 228 l 331 157 q 442 147 396 147 z "},"ñ":{"ha":844,"x_min":90,"x_max":756,"o":"m 753 0 l 525 0 l 285 392 l 274 392 l 272 253 l 279 0 l 90 0 l 100 207 l 90 706 l 317 706 l 557 315 l 571 315 l 564 699 l 756 710 l 744 229 l 753 0 m 675 972 l 572 835 l 553 826 q 438 853 533 829 q 339 875 364 875 q 304 861 321 875 q 272 828 288 847 q 249 800 256 808 l 229 800 l 165 864 l 165 882 l 268 1019 l 288 1026 q 408 999 318 1022 q 501 978 482 978 q 535 992 519 978 q 567 1025 551 1006 q 592 1054 583 1044 l 611 1054 l 675 990 l 675 972 z "},"ò":{"ha":781,"x_min":38,"x_max":744,"o":"m 310 1081 q 572 864 426 975 l 521 781 l 501 779 q 215 939 353 860 l 211 958 l 290 1079 l 310 1081 m 407 718 q 656 627 568 718 q 744 371 744 536 q 648 87 744 188 q 375 -14 551 -14 q 126 79 214 -14 q 38 342 38 172 q 134 619 38 521 q 407 718 231 718 m 388 551 q 309 535 338 551 q 268 480 281 519 q 256 369 256 440 q 269 231 256 279 q 311 164 282 183 q 393 144 340 144 q 473 160 444 144 q 514 215 501 176 q 526 326 526 254 q 513 464 526 415 q 471 532 500 513 q 388 551 442 551 z "},"ó":{"ha":781,"x_min":38,"x_max":743,"o":"m 406 718 q 655 627 567 718 q 743 371 743 536 q 647 87 743 188 q 375 -14 551 -14 q 126 79 214 -14 q 38 342 38 172 q 133 619 38 521 q 406 718 229 718 m 386 551 q 308 535 336 551 q 268 480 281 519 q 256 369 256 440 q 269 231 256 279 q 311 164 282 183 q 393 144 340 144 q 472 160 444 144 q 513 215 500 176 q 525 326 525 254 q 513 464 525 415 q 470 532 500 513 q 386 551 440 551 m 604 958 l 600 939 q 314 779 463 860 l 294 781 l 243 864 q 506 1081 389 975 l 525 1079 l 604 958 z "},"ô":{"ha":781,"x_min":38,"x_max":744,"o":"m 163 872 q 371 1074 249 949 l 414 1074 q 622 872 507 976 l 568 790 l 547 790 q 393 910 440 867 q 239 790 349 872 l 217 790 l 163 872 m 407 718 q 656 627 568 718 q 744 371 744 536 q 648 87 744 188 q 375 -14 551 -14 q 126 79 214 -14 q 38 342 38 172 q 134 619 38 521 q 407 718 231 718 m 388 551 q 309 535 338 551 q 268 480 281 519 q 256 369 256 440 q 269 231 256 279 q 311 164 282 183 q 393 144 340 144 q 473 160 444 144 q 514 215 501 176 q 526 326 526 254 q 513 464 526 415 q 471 532 500 513 q 388 551 442 551 z "},"õ":{"ha":781,"x_min":38,"x_max":743,"o":"m 406 718 q 655 627 567 718 q 743 371 743 536 q 647 87 743 188 q 375 -14 551 -14 q 126 79 214 -14 q 38 342 38 172 q 133 619 38 521 q 406 718 229 718 m 386 551 q 308 535 336 551 q 268 480 281 519 q 256 369 256 440 q 269 231 256 279 q 311 164 282 183 q 393 144 340 144 q 472 160 444 144 q 513 215 500 176 q 525 326 525 254 q 513 464 525 415 q 470 532 500 513 q 386 551 440 551 m 646 972 l 543 835 l 524 826 q 408 853 504 829 q 310 875 335 875 q 275 861 292 875 q 242 828 258 847 q 219 800 226 808 l 200 800 l 136 864 l 136 882 l 239 1019 l 258 1026 q 379 999 289 1022 q 472 978 453 978 q 506 992 490 978 q 538 1025 522 1006 q 563 1054 554 1044 l 582 1054 l 646 990 l 646 972 z "},"ö":{"ha":781,"x_min":38,"x_max":744,"o":"m 272 1026 q 344 1000 318 1026 q 369 928 369 974 q 342 849 369 878 q 265 819 314 819 q 192 845 218 819 q 167 918 167 871 q 195 997 167 968 q 272 1026 224 1026 m 525 1026 q 597 1000 571 1026 q 622 928 622 974 q 594 849 622 878 q 518 819 567 819 q 445 845 471 819 q 419 918 419 871 q 448 997 419 968 q 525 1026 476 1026 m 407 718 q 656 627 568 718 q 744 371 744 536 q 648 87 744 188 q 375 -14 551 -14 q 126 79 214 -14 q 38 342 38 172 q 134 619 38 521 q 407 718 231 718 m 388 551 q 309 535 338 551 q 268 480 281 519 q 256 369 256 440 q 269 231 256 279 q 311 164 282 183 q 393 144 340 144 q 473 160 444 144 q 514 215 501 176 q 526 326 526 254 q 513 464 526 415 q 471 532 500 513 q 388 551 442 551 z "},"÷":{"ha":667,"x_min":32,"x_max":644,"o":"m 633 285 l 46 285 l 32 300 l 43 432 l 629 432 l 644 418 l 633 285 m 324 221 q 392 196 368 221 q 417 127 417 171 q 389 52 417 80 q 317 24 362 24 q 248 49 272 24 q 224 119 224 74 q 251 193 224 165 q 324 221 278 221 m 324 617 q 392 592 368 617 q 417 523 417 567 q 389 448 417 476 q 317 420 362 420 q 248 445 272 420 q 224 515 224 470 q 251 589 224 561 q 324 617 278 617 z "},"ø":{"ha":781,"x_min":38,"x_max":744,"o":"m 650 633 q 744 371 744 542 q 648 87 744 188 q 375 -14 551 -14 q 285 -6 326 -14 l 192 -167 l 67 -104 l 61 -86 l 146 60 q 38 342 38 153 q 134 619 38 521 q 407 718 231 718 q 515 706 468 718 l 594 839 l 714 778 l 724 758 l 650 633 m 393 144 q 473 160 444 144 q 514 215 501 176 q 526 326 526 254 q 513 464 526 415 q 471 532 500 513 q 388 551 442 551 q 309 535 338 551 q 268 480 281 519 q 256 369 256 440 q 269 231 256 279 q 311 164 282 183 q 393 144 340 144 z "},"ù":{"ha":779,"x_min":72,"x_max":707,"o":"m 307 1081 q 569 864 424 975 l 518 781 l 499 779 q 213 939 350 860 l 208 958 l 288 1079 l 307 1081 m 699 236 q 615 52 699 117 q 379 -12 532 -12 q 151 52 229 -12 q 76 236 72 117 l 78 349 l 72 706 l 282 706 l 272 265 q 299 181 271 207 q 388 154 326 154 q 477 181 449 154 q 504 265 506 207 l 496 706 l 707 706 l 700 347 l 699 236 z "},"ú":{"ha":779,"x_min":72,"x_max":707,"o":"m 699 236 q 615 52 699 117 q 378 -12 532 -12 q 151 52 229 -12 q 75 236 72 117 l 78 349 l 72 706 l 281 706 l 271 265 q 298 181 269 207 q 388 154 326 154 q 477 181 449 154 q 504 265 506 207 l 494 706 l 707 706 l 700 347 l 699 236 m 601 958 l 597 939 q 311 779 460 860 l 292 781 l 240 864 q 503 1081 386 975 l 522 1079 l 601 958 z "},"û":{"ha":779,"x_min":72,"x_max":707,"o":"m 161 872 q 369 1074 247 949 l 413 1074 q 621 872 506 976 l 567 790 l 546 790 q 392 910 439 867 q 238 790 347 872 l 215 790 l 161 872 m 699 236 q 615 52 699 117 q 379 -12 532 -12 q 151 52 229 -12 q 76 236 72 117 l 78 349 l 72 706 l 282 706 l 272 265 q 299 181 271 207 q 388 154 326 154 q 477 181 449 154 q 504 265 506 207 l 496 706 l 707 706 l 700 347 l 699 236 z "},"ü":{"ha":779,"x_min":72,"x_max":707,"o":"m 269 1026 q 341 1000 315 1026 q 367 928 367 974 q 339 849 367 878 q 263 819 311 819 q 190 845 215 819 q 164 918 164 871 q 192 997 164 968 q 269 1026 221 1026 m 522 1026 q 594 1000 568 1026 q 619 928 619 974 q 592 849 619 878 q 515 819 564 819 q 442 845 468 819 q 417 918 417 871 q 445 997 417 968 q 522 1026 474 1026 m 699 236 q 615 52 699 117 q 379 -12 532 -12 q 151 52 229 -12 q 76 236 72 117 l 78 349 l 72 706 l 282 706 l 272 265 q 299 181 271 207 q 388 154 326 154 q 477 181 449 154 q 504 265 506 207 l 496 706 l 707 706 l 700 347 l 699 236 z "},"ý":{"ha":706,"x_min":8,"x_max":707,"o":"m 447 0 l 239 0 l 249 188 l 247 217 l 8 706 l 228 706 l 246 649 l 344 428 l 356 428 l 468 640 l 493 706 l 707 706 l 440 222 l 439 188 l 447 0 m 572 958 l 568 939 q 282 779 431 860 l 263 781 l 211 864 q 474 1081 357 975 l 493 1079 l 572 958 z "},"þ":{"ha":713,"x_min":90,"x_max":690,"o":"m 431 607 q 690 381 690 607 q 604 181 690 251 q 358 110 518 110 l 297 108 l 301 0 l 90 0 l 100 207 l 92 603 l 90 606 l 92 606 l 90 706 l 304 706 l 301 607 l 431 607 m 392 258 q 449 297 431 274 q 468 364 468 321 q 442 435 468 414 q 357 460 417 457 l 299 456 l 294 263 l 392 258 z "},"ÿ":{"ha":706,"x_min":8,"x_max":707,"o":"m 233 819 q 160 845 186 819 q 135 918 135 871 q 163 997 135 968 q 240 1026 192 1026 q 312 1000 286 1026 q 338 928 338 974 q 310 849 338 878 q 233 819 282 819 m 486 819 q 413 845 439 819 q 388 918 388 871 q 416 997 388 968 q 493 1026 444 1026 q 565 1000 539 1026 q 590 928 590 974 q 563 849 590 878 q 486 819 535 819 m 447 0 l 239 0 l 249 188 l 247 217 l 8 706 l 228 706 l 246 649 l 344 428 l 356 428 l 468 640 l 493 706 l 707 706 l 440 222 l 439 188 l 447 0 z "},"Ā":{"ha":849,"x_min":8,"x_max":831,"o":"m 601 0 l 578 129 l 565 181 l 404 183 l 265 179 l 254 143 l 229 0 l 8 0 l 297 896 l 568 896 l 831 0 l 601 0 m 435 690 l 421 690 l 317 350 l 419 347 l 522 350 l 435 690 m 621 1043 l 235 1043 l 221 1058 l 231 1181 l 618 1181 l 632 1165 l 621 1043 z "},"ā":{"ha":746,"x_min":18,"x_max":717,"o":"m 506 0 l 486 113 l 483 124 l 354 126 l 243 124 l 222 0 l 18 0 l 253 706 l 503 706 l 717 0 l 506 0 m 381 518 l 368 518 l 292 279 l 367 278 l 443 279 l 381 518 m 578 854 l 192 854 l 178 869 l 188 992 l 575 992 l 589 976 l 578 854 z "},"Ă":{"ha":849,"x_min":8,"x_max":831,"o":"m 601 0 l 578 129 l 565 181 l 404 183 l 265 179 l 254 143 l 229 0 l 8 0 l 297 896 l 568 896 l 831 0 l 601 0 m 435 690 l 421 690 l 317 350 l 419 347 l 522 350 l 435 690 m 651 1156 q 565 1038 624 1079 q 424 997 506 997 q 286 1038 343 997 q 203 1156 229 1079 l 250 1224 l 281 1224 q 431 1150 324 1150 q 572 1224 531 1150 l 604 1224 l 651 1156 z "},"ă":{"ha":746,"x_min":18,"x_max":717,"o":"m 506 0 l 486 113 l 483 124 l 354 126 l 243 124 l 222 0 l 18 0 l 253 706 l 503 706 l 717 0 l 506 0 m 381 518 l 368 518 l 292 279 l 367 278 l 443 279 l 381 518 m 608 976 q 528 847 586 897 q 378 796 469 796 q 233 847 288 796 q 160 976 179 899 l 207 1047 l 238 1047 q 385 950 278 950 q 529 1047 493 950 l 561 1047 l 608 976 z "},"Ą":{"ha":849,"x_min":8,"x_max":869,"o":"m 869 -207 q 719 -274 789 -274 q 623 -238 658 -274 q 588 -144 588 -203 q 653 0 588 -81 l 601 0 l 578 129 l 565 181 l 406 183 l 265 179 l 254 143 l 229 0 l 8 0 l 299 896 l 568 896 l 831 0 l 756 0 q 703 -111 703 -71 q 751 -157 703 -157 q 842 -121 792 -157 l 853 -121 l 869 -207 m 436 690 l 421 690 l 317 350 l 419 347 l 522 350 l 436 690 z "},"ą":{"ha":746,"x_min":18,"x_max":758,"o":"m 758 -206 q 615 -274 682 -274 q 521 -238 557 -274 q 485 -146 485 -203 q 550 0 485 -83 l 506 0 l 486 113 l 483 124 l 354 126 l 243 124 l 222 0 l 18 0 l 254 706 l 504 706 l 718 0 l 654 0 q 600 -111 600 -69 q 647 -156 600 -156 q 731 -118 686 -156 l 743 -118 l 758 -206 m 381 518 l 368 518 l 292 279 l 367 278 l 443 279 l 381 518 z "},"Ć":{"ha":717,"x_min":33,"x_max":707,"o":"m 475 908 q 707 863 603 908 l 667 678 l 651 669 q 467 725 567 725 q 319 663 367 725 q 271 465 271 600 q 478 174 271 174 q 668 221 578 174 l 688 210 l 669 25 q 460 -14 572 -14 q 142 103 250 -14 q 33 440 33 219 q 149 786 33 664 q 475 908 264 908 m 653 1114 l 646 1096 q 335 992 517 1049 l 314 997 l 279 1089 q 578 1250 429 1163 l 597 1246 l 653 1114 z "},"ć":{"ha":626,"x_min":38,"x_max":607,"o":"m 415 717 q 607 686 519 717 l 571 515 l 556 507 q 404 547 490 547 q 293 506 329 547 q 257 369 257 464 q 417 161 257 161 q 571 192 501 161 l 589 181 l 571 11 q 401 -12 492 -12 q 130 80 222 -12 q 38 346 38 172 q 136 620 38 524 q 415 717 235 717 m 593 958 l 589 939 q 303 779 451 860 l 283 781 l 232 864 q 494 1081 378 975 l 514 1079 l 593 958 z "},"Ĉ":{"ha":717,"x_min":33,"x_max":707,"o":"m 222 1094 q 418 1247 328 1165 l 460 1247 q 657 1094 554 1163 l 618 1007 l 597 1007 l 439 1093 q 344 1040 463 1107 l 282 1007 l 261 1007 l 222 1094 m 476 908 q 707 863 603 908 l 668 678 l 651 669 q 467 725 569 725 q 319 663 368 725 q 271 465 271 600 q 478 174 271 174 q 668 221 581 174 l 688 210 l 669 25 q 460 -14 572 -14 q 142 103 250 -14 q 33 440 33 219 q 149 786 33 664 q 476 908 265 908 z "},"ĉ":{"ha":626,"x_min":38,"x_max":611,"o":"m 151 872 q 360 1074 238 949 l 403 1074 q 611 872 496 976 l 557 790 l 536 790 q 382 910 429 867 q 228 790 338 872 l 206 790 l 151 872 m 415 717 q 607 686 519 717 l 572 515 l 557 507 q 406 547 490 547 q 294 506 329 547 q 258 369 258 464 q 297 212 258 263 q 418 161 336 161 q 571 192 503 161 l 589 181 l 572 11 q 403 -12 492 -12 q 130 79 222 -12 q 38 346 38 171 q 136 619 38 522 q 415 717 235 717 z "},"Ċ":{"ha":717,"x_min":33,"x_max":707,"o":"m 443 1229 q 523 1200 494 1229 q 551 1119 551 1171 q 519 1031 551 1064 q 435 999 488 999 q 354 1028 382 999 q 326 1110 326 1057 q 358 1197 326 1164 q 443 1229 389 1229 m 476 908 q 707 863 603 908 l 668 678 l 651 669 q 467 725 569 725 q 319 663 368 725 q 271 465 271 600 q 478 174 271 174 q 668 221 581 174 l 688 210 l 669 25 q 460 -14 572 -14 q 142 103 250 -14 q 33 440 33 219 q 149 786 33 664 q 476 908 265 908 z "},"ċ":{"ha":626,"x_min":38,"x_max":607,"o":"m 386 1040 q 466 1011 438 1040 q 494 931 494 982 q 463 842 494 875 q 378 810 431 810 q 297 839 325 810 q 269 921 269 868 q 301 1008 269 975 q 386 1040 332 1040 m 415 717 q 607 686 519 717 l 572 515 l 557 507 q 406 547 490 547 q 294 506 329 547 q 258 369 258 464 q 297 212 258 263 q 418 161 336 161 q 571 192 503 161 l 589 181 l 572 11 q 403 -12 492 -12 q 130 79 222 -12 q 38 346 38 171 q 136 619 38 522 q 415 717 235 717 z "},"Č":{"ha":717,"x_min":33,"x_max":707,"o":"m 475 908 q 707 863 603 908 l 667 678 l 651 669 q 467 725 567 725 q 319 663 367 725 q 271 465 271 600 q 478 174 271 174 q 668 221 578 174 l 688 210 l 669 25 q 460 -14 572 -14 q 142 103 250 -14 q 33 440 33 219 q 149 786 33 664 q 475 908 264 908 m 657 1146 q 461 993 551 1075 l 419 993 q 222 1146 325 1078 l 261 1233 l 282 1233 l 440 1147 q 535 1200 417 1133 l 597 1233 l 618 1233 l 657 1146 z "},"č":{"ha":626,"x_min":38,"x_max":611,"o":"m 415 717 q 607 686 519 717 l 571 515 l 556 507 q 404 547 490 547 q 293 506 329 547 q 257 369 257 464 q 417 161 257 161 q 571 192 501 161 l 589 181 l 571 11 q 401 -12 492 -12 q 130 80 222 -12 q 38 346 38 172 q 136 620 38 524 q 415 717 235 717 m 611 988 q 403 786 525 911 l 360 786 q 151 988 267 883 l 206 1069 l 226 1069 q 381 950 333 993 q 535 1069 425 988 l 557 1069 l 611 988 z "},"Ď":{"ha":915,"x_min":97,"x_max":882,"o":"m 476 901 q 778 794 674 901 q 882 483 882 686 q 763 117 882 244 q 421 -11 643 -11 q 99 0 293 -11 l 97 0 l 110 265 l 97 896 l 99 896 l 476 901 m 463 160 q 647 429 647 160 q 603 656 647 588 q 458 724 558 724 q 324 718 385 724 l 315 288 l 318 171 q 463 160 400 160 m 667 1146 q 471 993 561 1075 l 429 993 q 232 1146 335 1078 l 271 1233 l 292 1233 l 450 1147 q 544 1200 426 1133 l 607 1233 l 628 1233 l 667 1146 z "},"ď":{"ha":794,"x_min":90,"x_max":757,"o":"m 417 711 q 669 626 581 711 q 757 381 757 540 q 656 91 757 192 q 367 -10 556 -10 q 90 0 242 -10 l 100 207 l 90 706 l 417 711 m 404 147 q 540 331 540 147 q 508 497 540 449 q 399 546 475 546 q 299 542 353 546 l 290 228 l 293 157 q 404 147 358 147 m 607 988 q 399 786 521 911 l 356 786 q 147 988 263 883 l 201 1069 l 222 1069 q 376 950 329 993 q 531 1069 421 988 l 553 1069 l 607 988 z "},"Đ":{"ha":915,"x_min":97,"x_max":882,"o":"m 476 901 q 778 794 674 901 q 882 483 882 686 q 763 117 882 244 q 421 -11 643 -11 q 99 0 293 -11 l 97 0 l 110 265 l 97 896 l 99 896 l 476 901 m 463 160 q 647 429 647 160 q 603 656 647 588 q 458 724 558 724 q 324 718 385 724 l 315 288 l 318 171 q 463 160 400 160 m 644 1043 l 258 1043 l 244 1058 l 254 1181 l 642 1181 l 656 1165 l 644 1043 z "},"đ":{"ha":794,"x_min":90,"x_max":757,"o":"m 417 711 q 669 626 581 711 q 757 381 757 540 q 656 91 757 192 q 367 -10 556 -10 q 90 0 242 -10 l 100 207 l 90 706 l 417 711 m 404 147 q 540 331 540 147 q 508 497 540 449 q 399 546 475 546 q 299 542 353 546 l 290 228 l 293 157 q 404 147 358 147 m 571 854 l 185 854 l 171 869 l 181 992 l 568 992 l 582 976 l 571 854 z "},"Ē":{"ha":725,"x_min":97,"x_max":710,"o":"m 703 167 l 689 0 l 97 0 l 110 265 l 97 896 l 697 896 l 710 879 l 694 713 l 476 721 l 324 719 l 321 540 l 467 540 l 613 544 l 625 528 l 611 361 l 451 365 l 317 365 l 315 288 l 318 176 l 465 175 l 690 183 l 703 167 m 593 1043 l 207 1043 l 193 1058 l 203 1181 l 590 1181 l 604 1165 l 593 1043 z "},"ē":{"ha":647,"x_min":90,"x_max":619,"o":"m 614 154 l 600 0 l 90 0 l 100 207 l 90 706 l 607 706 l 619 690 l 606 538 l 422 544 l 299 544 l 296 436 l 415 436 l 536 440 l 547 425 l 535 271 l 401 275 l 292 274 l 290 228 l 293 161 l 410 161 l 601 168 l 614 154 m 543 854 l 157 854 l 143 869 l 153 992 l 540 992 l 554 976 l 543 854 z "},"Ĕ":{"ha":725,"x_min":97,"x_max":710,"o":"m 703 167 l 689 0 l 97 0 l 110 265 l 97 896 l 697 896 l 710 879 l 694 713 l 476 721 l 324 719 l 321 540 l 467 540 l 613 544 l 625 528 l 611 361 l 451 365 l 317 365 l 315 288 l 318 176 l 465 175 l 690 183 l 703 167 m 622 1156 q 535 1038 594 1079 q 394 997 476 997 q 257 1038 314 997 q 174 1156 200 1079 l 221 1224 l 251 1224 q 401 1150 294 1150 q 543 1224 501 1150 l 575 1224 l 622 1156 z "},"ĕ":{"ha":647,"x_min":90,"x_max":619,"o":"m 614 154 l 600 0 l 90 0 l 100 207 l 90 706 l 607 706 l 619 690 l 606 538 l 422 544 l 299 544 l 296 436 l 415 436 l 536 440 l 547 425 l 535 271 l 401 275 l 292 274 l 290 228 l 293 161 l 410 161 l 601 168 l 614 154 m 574 976 q 493 847 551 897 q 343 796 435 796 q 199 847 253 796 q 125 976 144 899 l 172 1047 l 203 1047 q 350 950 243 950 q 494 1047 458 950 l 526 1047 l 574 976 z "},"Ė":{"ha":725,"x_min":97,"x_max":708,"o":"m 394 999 q 314 1028 342 999 q 286 1110 286 1057 q 317 1197 286 1164 q 403 1229 349 1229 q 483 1200 454 1229 q 511 1119 511 1171 q 479 1031 511 1064 q 394 999 447 999 m 703 167 l 689 0 l 97 0 l 110 265 l 97 896 l 696 896 l 708 879 l 693 713 l 476 721 l 322 719 l 319 540 l 467 540 l 613 544 l 625 528 l 611 361 l 451 365 l 315 365 l 314 288 l 318 176 l 465 175 l 690 183 l 703 167 z "},"ė":{"ha":647,"x_min":90,"x_max":619,"o":"m 344 810 q 264 839 292 810 q 236 921 236 868 q 267 1008 236 975 q 353 1040 299 1040 q 433 1011 404 1040 q 461 931 461 982 q 429 842 461 875 q 344 810 397 810 m 614 154 l 600 0 l 90 0 l 100 207 l 90 706 l 608 706 l 619 690 l 607 538 l 424 544 l 299 544 l 296 436 l 415 436 l 536 440 l 549 425 l 535 271 l 401 275 l 292 274 l 290 228 l 293 161 l 410 161 l 601 168 l 614 154 z "},"Ę":{"ha":725,"x_min":97,"x_max":713,"o":"m 713 -207 q 565 -274 633 -274 q 467 -237 504 -274 q 431 -146 431 -201 q 474 -28 431 -87 l 494 0 l 97 0 l 110 265 l 97 896 l 696 896 l 708 879 l 693 713 l 476 721 l 322 719 l 319 540 l 467 540 l 613 544 l 625 528 l 611 361 l 451 365 l 315 365 l 314 288 l 318 176 l 465 175 l 690 183 l 703 167 l 689 0 l 597 0 l 568 -44 q 546 -107 546 -81 q 597 -157 546 -157 q 685 -121 638 -157 l 697 -121 l 713 -207 z "},"ę":{"ha":647,"x_min":90,"x_max":619,"o":"m 464 -47 q 442 -110 442 -83 q 493 -160 442 -160 q 581 -124 533 -160 l 593 -124 l 608 -210 q 461 -276 529 -276 q 363 -240 400 -276 q 326 -149 326 -204 q 369 -31 326 -90 l 392 0 l 90 0 l 100 207 l 90 706 l 608 706 l 619 690 l 607 538 l 424 544 l 299 544 l 296 436 l 415 436 l 536 440 l 549 425 l 535 271 l 401 275 l 292 274 l 290 228 l 293 161 l 410 161 l 601 168 l 614 154 l 600 0 l 494 0 l 464 -47 z "},"Ě":{"ha":725,"x_min":97,"x_max":710,"o":"m 703 167 l 689 0 l 97 0 l 110 265 l 97 896 l 697 896 l 710 879 l 694 713 l 476 721 l 324 719 l 321 540 l 467 540 l 613 544 l 625 528 l 611 361 l 451 365 l 317 365 l 315 288 l 318 176 l 465 175 l 690 183 l 703 167 m 615 1146 q 419 993 510 1075 l 378 993 q 181 1146 283 1078 l 219 1233 l 240 1233 l 399 1147 q 493 1200 375 1133 l 556 1233 l 576 1233 l 615 1146 z "},"ě":{"ha":647,"x_min":90,"x_max":619,"o":"m 614 154 l 600 0 l 90 0 l 100 207 l 90 706 l 607 706 l 619 690 l 606 538 l 422 544 l 299 544 l 296 436 l 415 436 l 536 440 l 547 425 l 535 271 l 401 275 l 292 274 l 290 228 l 293 161 l 410 161 l 601 168 l 614 154 m 578 988 q 369 786 492 911 l 326 786 q 118 988 233 883 l 172 1069 l 193 1069 q 347 950 300 993 q 501 1069 392 988 l 524 1069 l 578 988 z "},"Ĝ":{"ha":829,"x_min":33,"x_max":778,"o":"m 238 1094 q 433 1247 343 1165 l 475 1247 q 672 1094 569 1163 l 633 1007 l 613 1007 l 454 1093 q 360 1040 478 1107 l 297 1007 l 276 1007 l 238 1094 m 517 908 q 778 860 667 908 l 729 658 l 710 658 q 588 712 642 696 q 475 728 535 728 q 356 701 400 728 q 290 611 311 674 q 269 440 269 549 q 290 273 269 333 q 355 186 310 213 q 479 160 400 160 q 569 174 518 160 l 571 236 l 568 381 l 775 394 l 771 274 l 772 44 q 461 -14 610 -14 q 141 101 249 -14 q 33 429 33 215 q 159 785 33 663 q 517 908 285 908 z "},"ĝ":{"ha":719,"x_min":38,"x_max":668,"o":"m 150 872 q 358 1074 236 949 l 401 1074 q 610 872 494 976 l 556 790 l 535 790 q 381 910 428 867 q 226 790 336 872 l 204 790 l 150 872 m 449 717 q 668 683 572 717 l 618 496 l 601 496 q 502 538 544 525 q 410 550 460 550 q 319 533 351 550 q 271 472 286 515 q 256 347 256 428 q 271 224 256 267 q 321 165 286 182 q 418 147 356 147 q 478 157 447 147 l 478 190 l 476 308 l 667 321 l 664 225 l 664 35 q 401 -12 524 -12 q 129 78 221 -12 q 38 336 38 168 q 144 619 38 522 q 449 717 250 717 z "},"Ğ":{"ha":829,"x_min":33,"x_max":776,"o":"m 517 908 q 776 860 667 908 l 729 658 l 710 658 q 588 712 642 696 q 475 728 535 728 q 356 701 400 728 q 290 611 311 674 q 268 440 268 549 q 289 273 268 333 q 355 186 310 213 q 479 160 400 160 q 569 174 518 160 l 571 236 l 567 381 l 774 394 l 771 274 l 772 44 q 460 -14 607 -14 q 140 101 247 -14 q 33 429 33 215 q 158 785 33 663 q 517 908 283 908 m 679 1156 q 592 1038 651 1079 q 451 997 533 997 q 314 1038 371 997 q 231 1156 257 1079 l 278 1224 l 308 1224 q 458 1150 351 1150 q 600 1224 558 1150 l 632 1224 l 679 1156 z "},"ğ":{"ha":719,"x_min":38,"x_max":668,"o":"m 449 717 q 668 683 572 717 l 618 496 l 601 496 q 502 538 544 525 q 410 550 460 550 q 319 533 351 550 q 271 472 286 515 q 256 347 256 428 q 271 224 256 267 q 321 165 286 182 q 418 147 356 147 q 478 157 447 147 l 478 190 l 475 308 l 667 321 l 663 225 l 663 35 q 400 -12 525 -12 q 129 78 221 -12 q 38 336 38 168 q 144 619 38 522 q 449 717 250 717 m 606 976 q 525 847 583 897 q 375 796 467 796 q 231 847 285 796 q 157 976 176 899 l 204 1047 l 235 1047 q 382 950 275 950 q 526 1047 490 950 l 558 1047 l 606 976 z "},"Ġ":{"ha":829,"x_min":33,"x_max":778,"o":"m 460 1229 q 540 1200 511 1229 q 568 1119 568 1171 q 536 1031 568 1064 q 451 999 504 999 q 371 1028 399 999 q 343 1110 343 1057 q 374 1197 343 1164 q 460 1229 406 1229 m 517 908 q 778 860 667 908 l 729 658 l 710 658 q 588 712 642 696 q 475 728 535 728 q 356 701 400 728 q 290 611 311 674 q 269 440 269 549 q 290 273 269 333 q 355 186 310 213 q 479 160 400 160 q 569 174 518 160 l 571 236 l 568 381 l 775 394 l 771 274 l 772 44 q 461 -14 610 -14 q 141 101 249 -14 q 33 429 33 215 q 159 785 33 663 q 517 908 285 908 z "},"ġ":{"ha":719,"x_min":38,"x_max":668,"o":"m 383 1040 q 463 1011 435 1040 q 492 931 492 982 q 460 842 492 875 q 375 810 428 810 q 294 839 322 810 q 267 921 267 868 q 298 1008 267 975 q 383 1040 329 1040 m 449 717 q 668 683 572 717 l 618 496 l 601 496 q 502 538 544 525 q 410 550 460 550 q 319 533 351 550 q 271 472 286 515 q 256 347 256 428 q 271 224 256 267 q 321 165 286 182 q 418 147 356 147 q 478 157 447 147 l 478 190 l 476 308 l 667 321 l 664 225 l 664 35 q 401 -12 524 -12 q 129 78 221 -12 q 38 336 38 168 q 144 619 38 522 q 449 717 250 717 z "},"Ģ":{"ha":829,"x_min":33,"x_max":778,"o":"m 517 908 q 778 860 667 908 l 729 658 l 710 658 q 588 712 642 696 q 475 728 535 728 q 356 701 400 728 q 290 611 311 674 q 269 440 269 549 q 290 273 269 333 q 355 186 310 213 q 479 160 400 160 q 569 174 518 160 l 571 236 l 568 381 l 775 394 l 771 274 l 772 44 q 461 -14 610 -14 q 141 101 249 -14 q 33 429 33 215 q 159 785 33 663 q 517 908 285 908 m 476 -47 q 533 -161 533 -94 q 369 -396 533 -281 l 308 -342 l 307 -328 q 375 -203 375 -269 q 335 -122 375 -157 l 336 -106 q 476 -47 407 -65 z "},"ģ":{"ha":719,"x_min":38,"x_max":668,"o":"m 449 717 q 668 683 572 717 l 618 496 l 601 496 q 502 538 544 525 q 410 550 460 550 q 319 533 351 550 q 271 472 286 515 q 256 347 256 428 q 271 224 256 267 q 321 165 286 182 q 418 147 356 147 q 478 157 447 147 l 478 190 l 476 308 l 667 321 l 664 225 l 664 35 q 401 -12 524 -12 q 129 78 221 -12 q 38 336 38 168 q 144 619 38 522 q 449 717 250 717 m 426 -47 q 483 -161 483 -94 q 319 -396 483 -281 l 258 -342 l 257 -328 q 325 -203 325 -269 q 285 -122 325 -157 l 286 -106 q 426 -47 357 -65 z "},"Ĥ":{"ha":975,"x_min":97,"x_max":876,"o":"m 268 1094 q 464 1247 374 1165 l 506 1247 q 703 1094 600 1163 l 664 1007 l 643 1007 l 485 1093 q 390 1040 508 1107 l 328 1007 l 307 1007 l 268 1094 m 874 0 l 647 0 l 660 265 l 658 356 l 476 358 l 315 354 l 314 288 l 324 0 l 97 0 l 110 265 l 97 896 l 326 896 l 319 540 l 490 536 l 654 539 l 647 896 l 876 896 l 864 288 l 874 0 z "},"ĥ":{"ha":844,"x_min":90,"x_max":757,"o":"m 196 872 q 404 1074 282 949 l 447 1074 q 656 872 540 976 l 601 790 l 581 790 q 426 910 474 867 q 272 790 382 872 l 250 790 l 196 872 m 754 0 l 544 0 l 554 207 l 553 265 l 414 267 l 292 264 l 290 228 l 300 0 l 90 0 l 100 207 l 90 706 l 303 706 l 296 436 l 426 433 l 550 436 l 544 706 l 757 706 l 746 228 l 754 0 z "},"Ħ":{"ha":1021,"x_min":28,"x_max":994,"o":"m 882 288 l 892 0 l 665 0 l 678 265 l 676 356 l 494 358 l 335 354 l 333 288 l 343 0 l 117 0 l 128 265 l 121 658 l 38 658 l 28 669 l 35 779 l 118 779 l 117 896 l 346 896 l 343 779 l 668 779 l 665 896 l 894 896 l 892 779 l 985 779 l 994 767 l 988 658 l 889 658 l 882 288 m 340 658 l 339 540 l 508 536 l 672 539 l 669 658 l 340 658 z "},"ħ":{"ha":882,"x_min":29,"x_max":853,"o":"m 756 228 l 763 0 l 554 0 l 564 207 l 563 265 l 424 267 l 301 264 l 300 228 l 308 0 l 100 0 l 110 207 l 104 507 l 38 507 l 29 518 l 36 617 l 101 617 l 100 706 l 313 706 l 310 617 l 556 617 l 554 706 l 767 706 l 765 617 l 844 617 l 853 607 l 846 507 l 763 507 l 756 228 m 307 507 l 306 436 l 436 433 l 560 436 l 558 507 l 307 507 z "},"Ĩ":{"ha":428,"x_min":-11,"x_max":436,"o":"m 324 0 l 97 0 l 110 265 l 97 896 l 328 896 l 315 288 l 324 0 m 436 1157 l 344 1021 l 326 1014 q 224 1042 293 1018 q 151 1060 167 1060 q 115 1043 131 1060 q 72 988 100 1026 l 53 988 l -11 1050 l -11 1069 l 82 1204 l 100 1211 q 203 1183 133 1207 q 275 1165 260 1165 q 310 1182 294 1165 q 354 1239 325 1199 l 372 1239 l 436 1175 l 436 1157 z "},"ĩ":{"ha":401,"x_min":-21,"x_max":426,"o":"m 299 0 l 90 0 l 100 207 l 90 706 l 303 706 l 290 228 l 299 0 m 426 968 l 335 832 l 317 825 q 214 853 283 829 q 142 871 157 871 q 106 854 121 871 q 63 799 90 838 l 43 799 l -21 861 l -21 881 l 72 1015 l 90 1022 q 193 994 124 1018 q 265 976 250 976 q 300 993 285 976 q 344 1050 315 1010 l 363 1050 l 426 986 l 426 968 z "},"Ī":{"ha":428,"x_min":40,"x_max":383,"o":"m 324 0 l 97 0 l 110 265 l 97 896 l 328 896 l 315 288 l 324 0 m 374 1043 l 54 1043 l 40 1058 l 51 1181 l 369 1181 l 383 1165 l 374 1043 z "},"ī":{"ha":401,"x_min":31,"x_max":374,"o":"m 299 0 l 90 0 l 100 207 l 90 706 l 303 706 l 290 228 l 299 0 m 364 854 l 44 854 l 31 869 l 42 992 l 360 992 l 374 976 l 364 854 z "},"Ĭ":{"ha":428,"x_min":-11,"x_max":438,"o":"m 324 0 l 97 0 l 110 265 l 97 896 l 328 896 l 315 288 l 324 0 m 438 1156 q 351 1038 410 1079 q 210 997 292 997 q 72 1038 129 997 q -11 1156 15 1079 l 36 1224 l 67 1224 q 217 1150 110 1150 q 358 1224 317 1150 l 390 1224 l 438 1156 z "},"ĭ":{"ha":401,"x_min":-19,"x_max":429,"o":"m 299 0 l 90 0 l 100 207 l 90 706 l 303 706 l 290 228 l 299 0 m 429 976 q 349 847 407 897 q 199 796 290 796 q 54 847 108 796 q -19 976 0 899 l 28 1047 l 58 1047 q 206 950 99 950 q 350 1047 314 950 l 382 1047 l 429 976 z "},"Į":{"ha":428,"x_min":44,"x_max":326,"o":"m 207 0 q 160 -111 160 -71 q 207 -157 160 -157 q 289 -124 251 -157 l 301 -124 l 317 -215 q 176 -274 246 -274 q 81 -238 117 -274 q 44 -146 44 -203 q 99 0 44 -82 l 97 0 l 110 265 l 97 896 l 326 896 l 314 288 l 324 0 l 207 0 z "},"į":{"ha":401,"x_min":36,"x_max":308,"o":"m 308 -215 q 168 -274 238 -274 q 72 -238 107 -274 q 36 -146 36 -203 q 90 0 36 -82 l 100 207 l 90 706 l 303 706 l 290 228 l 300 0 l 199 0 q 151 -111 151 -71 q 199 -157 151 -157 q 281 -124 243 -157 l 293 -124 l 308 -215 z "},"İ":{"ha":428,"x_min":97,"x_max":326,"o":"m 217 1229 q 297 1200 268 1229 q 325 1119 325 1171 q 293 1031 325 1064 q 208 999 261 999 q 128 1028 156 999 q 100 1110 100 1057 q 131 1197 100 1164 q 217 1229 163 1229 m 324 0 l 97 0 l 110 265 l 97 896 l 326 896 l 314 288 l 324 0 z "},"ı":{"ha":401,"x_min":90,"x_max":303,"o":"m 299 0 l 90 0 l 100 207 l 90 706 l 303 706 l 290 228 l 299 0 z "},"Ĳ":{"ha":908,"x_min":97,"x_max":813,"o":"m 324 0 l 97 0 l 110 265 l 97 896 l 328 896 l 315 288 l 324 0 m 803 169 q 776 30 803 88 q 686 -71 749 -28 q 514 -151 624 -114 l 450 -33 l 450 -14 q 563 68 531 26 q 594 175 594 110 l 594 274 l 586 735 l 451 731 l 438 746 l 447 896 l 813 896 l 800 296 l 803 169 z "},"ĳ":{"ha":857,"x_min":90,"x_max":758,"o":"m 299 0 l 90 0 l 100 207 l 90 706 l 303 706 l 290 228 l 299 0 m 750 135 q 728 22 750 68 q 653 -60 706 -25 q 508 -129 601 -96 l 447 -24 l 447 -7 q 533 52 508 21 q 557 133 557 83 l 557 211 l 551 553 l 436 550 l 424 563 l 436 706 l 758 706 l 749 232 l 750 135 z "},"Ĵ":{"ha":481,"x_min":-3,"x_max":432,"o":"m 235 1247 q 432 1094 329 1163 l 393 1007 l 372 1007 l 214 1093 q 119 1040 238 1107 l 57 1007 l 36 1007 l -3 1094 q 193 1247 103 1165 l 235 1247 m 372 296 l 375 169 q 348 31 375 88 q 258 -70 321 -26 q 86 -151 196 -114 l 22 -33 l 22 -14 q 135 68 103 26 q 167 175 167 110 l 167 274 l 158 735 l 24 731 l 10 746 l 19 896 l 385 896 l 372 296 z "},"ĵ":{"ha":456,"x_min":-39,"x_max":421,"o":"m 213 1074 q 421 872 306 976 l 367 790 l 346 790 q 192 910 239 867 q 38 790 147 872 l 15 790 l -39 872 q 169 1074 47 949 l 213 1074 m 347 232 l 350 135 q 327 22 350 68 q 252 -60 304 -25 q 108 -129 200 -96 l 46 -24 l 46 -7 q 131 52 107 21 q 156 133 156 83 l 156 211 l 150 553 l 35 550 l 22 563 l 35 706 l 357 706 l 347 232 z "},"Ķ":{"ha":836,"x_min":97,"x_max":854,"o":"m 533 474 q 854 47 675 264 l 851 22 q 628 -15 738 -6 l 603 -1 q 317 443 431 254 l 314 288 l 324 0 l 97 0 l 110 265 l 97 896 l 326 896 l 318 494 l 536 806 l 586 896 l 828 896 l 533 474 m 482 -47 q 539 -161 539 -94 q 375 -396 539 -281 l 314 -342 l 313 -328 q 381 -203 381 -269 q 340 -122 381 -157 l 342 -106 q 482 -47 413 -65 z "},"ķ":{"ha":743,"x_min":90,"x_max":746,"o":"m 489 372 q 746 44 597 218 l 743 21 q 535 -14 644 -3 l 510 -1 q 293 336 386 182 l 290 228 l 300 0 l 90 0 l 100 207 l 90 706 l 303 706 l 294 399 l 458 631 l 500 706 l 725 707 l 489 372 m 413 -47 q 469 -161 469 -94 q 306 -396 469 -281 l 244 -342 l 243 -328 q 311 -203 311 -269 q 271 -122 311 -157 l 272 -106 q 413 -47 343 -65 z "},"ĸ":{"ha":743,"x_min":90,"x_max":746,"o":"m 489 372 q 746 44 597 218 l 743 21 q 535 -14 644 -3 l 510 -1 q 293 336 386 182 l 290 228 l 299 0 l 90 0 l 100 207 l 90 706 l 303 706 l 294 399 l 458 631 l 500 706 l 725 707 l 489 372 z "},"Ĺ":{"ha":613,"x_min":92,"x_max":611,"o":"m 596 0 l 92 0 l 104 265 l 92 896 l 321 896 l 308 288 l 313 185 l 597 185 l 611 168 l 596 0 m 515 1114 l 508 1096 q 197 992 379 1049 l 176 997 l 142 1089 q 440 1250 292 1163 l 460 1246 l 515 1114 z "},"ĺ":{"ha":547,"x_min":85,"x_max":529,"o":"m 517 0 l 85 0 l 94 207 l 85 706 l 297 706 l 285 228 l 288 171 l 518 171 l 529 157 l 517 0 m 460 958 l 456 939 q 169 779 318 860 l 150 781 l 99 864 q 361 1081 244 975 l 381 1079 l 460 958 z "},"Ļ":{"ha":613,"x_min":92,"x_max":611,"o":"m 597 0 l 92 0 l 104 265 l 92 896 l 321 896 l 308 288 l 313 185 l 599 185 l 611 168 l 597 0 m 382 -47 q 439 -161 439 -94 q 275 -396 439 -281 l 214 -342 l 213 -328 q 281 -203 281 -269 q 240 -122 281 -157 l 242 -106 q 382 -47 313 -65 z "},"ļ":{"ha":547,"x_min":85,"x_max":531,"o":"m 517 0 l 85 0 l 94 207 l 85 706 l 297 706 l 285 228 l 288 171 l 518 171 l 531 157 l 517 0 m 322 -47 q 379 -161 379 -94 q 215 -396 379 -281 l 154 -342 l 153 -328 q 221 -203 221 -269 q 181 -122 221 -157 l 182 -106 q 322 -47 253 -65 z "},"Ľ":{"ha":679,"x_min":92,"x_max":639,"o":"m 611 168 l 597 0 l 92 0 l 104 265 l 92 896 l 321 896 l 308 288 l 313 185 l 599 185 l 611 168 m 469 817 l 626 826 l 639 813 l 588 517 l 493 503 l 478 514 l 469 817 z "},"ľ":{"ha":608,"x_min":85,"x_max":589,"o":"m 531 157 l 517 0 l 85 0 l 94 207 l 85 706 l 297 706 l 285 228 l 288 171 l 518 171 l 531 157 m 538 376 l 443 361 l 428 374 l 419 676 l 576 685 l 589 672 l 538 376 z "},"Ŀ":{"ha":660,"x_min":92,"x_max":638,"o":"m 596 0 l 92 0 l 104 265 l 92 896 l 321 896 l 308 288 l 313 185 l 597 185 l 611 168 l 596 0 m 529 663 q 609 633 581 663 q 638 553 638 604 q 606 465 638 497 q 521 432 574 432 q 440 461 468 432 q 413 543 413 490 q 444 630 413 597 q 529 663 475 663 z "},"ŀ":{"ha":607,"x_min":85,"x_max":586,"o":"m 531 157 l 517 0 l 85 0 l 94 207 l 85 706 l 297 706 l 285 228 l 288 171 l 518 171 l 531 157 m 478 561 q 558 532 529 561 q 586 451 586 503 q 554 363 586 396 q 469 331 522 331 q 389 360 417 331 q 361 442 361 389 q 392 528 361 496 q 478 561 424 561 z "},"Ł":{"ha":636,"x_min":-8,"x_max":636,"o":"m 621 0 l 117 0 l 129 265 l 128 317 l 51 278 l 32 289 l -8 419 l 125 488 l 117 896 l 346 896 l 340 597 l 461 658 l 482 649 l 522 519 l 336 424 l 333 288 l 338 185 l 622 185 l 636 168 l 621 0 z "},"ł":{"ha":575,"x_min":1,"x_max":549,"o":"m 536 0 l 104 0 l 114 207 l 113 249 l 51 222 l 33 233 l 1 347 l 110 394 l 104 706 l 317 706 l 311 481 l 413 524 l 429 514 l 463 400 l 307 333 l 304 228 l 307 171 l 538 171 l 549 157 l 536 0 z "},"Ń":{"ha":974,"x_min":97,"x_max":876,"o":"m 872 0 l 628 0 l 310 554 l 296 554 l 294 315 l 304 0 l 97 0 l 110 264 l 99 896 l 343 896 l 661 342 l 675 342 l 668 888 l 876 900 l 864 283 l 872 0 m 700 1114 l 693 1096 q 382 992 564 1049 l 361 997 l 326 1089 q 625 1250 476 1163 l 644 1246 l 700 1114 z "},"ń":{"ha":844,"x_min":90,"x_max":756,"o":"m 753 0 l 525 0 l 285 392 l 274 392 l 272 253 l 279 0 l 90 0 l 100 207 l 90 706 l 317 706 l 557 315 l 571 315 l 564 699 l 756 710 l 744 229 l 753 0 m 632 958 l 628 939 q 342 779 490 860 l 322 781 l 271 864 q 533 1081 417 975 l 553 1079 l 632 958 z "},"Ņ":{"ha":974,"x_min":97,"x_max":876,"o":"m 872 0 l 628 0 l 310 554 l 296 554 l 294 315 l 303 0 l 97 0 l 110 264 l 99 896 l 342 896 l 660 342 l 675 342 l 668 888 l 876 900 l 863 283 l 872 0 m 543 -47 q 600 -161 600 -94 q 436 -396 600 -281 l 375 -342 l 374 -328 q 442 -203 442 -269 q 401 -122 442 -157 l 403 -106 q 543 -47 474 -65 z "},"ņ":{"ha":844,"x_min":90,"x_max":757,"o":"m 753 0 l 526 0 l 285 392 l 274 392 l 272 253 l 279 0 l 90 0 l 100 207 l 90 706 l 317 706 l 558 315 l 571 315 l 565 699 l 757 710 l 746 229 l 753 0 m 478 -47 q 535 -161 535 -94 q 371 -396 535 -281 l 310 -342 l 308 -328 q 376 -203 376 -269 q 336 -122 376 -157 l 338 -106 q 478 -47 408 -65 z "},"Ň":{"ha":974,"x_min":97,"x_max":876,"o":"m 872 0 l 628 0 l 310 554 l 296 554 l 294 315 l 304 0 l 97 0 l 110 264 l 99 896 l 343 896 l 661 342 l 675 342 l 668 888 l 876 900 l 864 283 l 872 0 m 704 1146 q 508 993 599 1075 l 467 993 q 269 1146 372 1078 l 308 1233 l 329 1233 l 488 1147 q 582 1200 464 1133 l 644 1233 l 665 1233 l 704 1146 z "},"ň":{"ha":844,"x_min":90,"x_max":756,"o":"m 753 0 l 525 0 l 285 392 l 274 392 l 272 253 l 279 0 l 90 0 l 100 207 l 90 706 l 317 706 l 557 315 l 571 315 l 564 699 l 756 710 l 744 229 l 753 0 m 651 988 q 443 786 565 911 l 400 786 q 192 988 307 883 l 246 1069 l 267 1069 q 421 950 374 993 q 575 1069 465 988 l 597 1069 l 651 988 z "},"Ŋ":{"ha":974,"x_min":97,"x_max":876,"o":"m 869 76 q 842 -62 869 -6 q 753 -162 815 -119 q 581 -243 690 -206 l 518 -126 l 518 -107 q 644 0 618 -57 l 310 554 l 296 554 l 294 315 l 304 0 l 97 0 l 110 264 l 99 896 l 343 896 l 661 361 l 675 361 l 668 888 l 876 900 l 864 283 l 869 76 z "},"ŋ":{"ha":844,"x_min":90,"x_max":756,"o":"m 750 58 q 703 -92 750 -36 q 536 -193 657 -147 l 468 -107 l 468 -90 q 549 -8 533 -54 l 285 392 l 272 392 l 272 253 l 279 0 l 90 0 l 100 207 l 90 706 l 317 706 l 557 340 l 569 340 l 564 699 l 756 710 l 744 229 l 750 58 z "},"Ō":{"ha":899,"x_min":33,"x_max":867,"o":"m 467 910 q 763 795 658 910 q 867 469 867 681 q 753 112 867 239 q 432 -15 639 -15 q 138 102 242 -15 q 33 435 33 219 q 147 786 33 663 q 467 910 260 910 m 447 729 q 342 704 381 729 q 285 622 303 679 q 268 465 268 564 q 286 281 268 347 q 344 185 304 214 q 451 156 383 156 q 556 181 517 156 q 613 265 594 207 q 631 422 631 322 q 613 605 631 539 q 555 700 594 671 q 447 729 515 729 m 646 1043 l 260 1043 l 246 1058 l 256 1181 l 643 1181 l 657 1165 l 646 1043 z "},"ō":{"ha":781,"x_min":38,"x_max":743,"o":"m 406 718 q 655 627 567 718 q 743 371 743 536 q 647 87 743 188 q 375 -14 551 -14 q 126 79 214 -14 q 38 342 38 172 q 133 619 38 521 q 406 718 229 718 m 386 551 q 308 535 336 551 q 268 480 281 519 q 256 369 256 440 q 269 231 256 279 q 311 164 282 183 q 393 144 340 144 q 472 160 444 144 q 513 215 500 176 q 525 326 525 254 q 513 464 525 415 q 470 532 500 513 q 386 551 440 551 m 588 854 l 201 854 l 188 869 l 197 992 l 585 992 l 599 976 l 588 854 z "},"Ŏ":{"ha":899,"x_min":33,"x_max":867,"o":"m 467 910 q 763 795 658 910 q 867 469 867 681 q 753 112 867 239 q 432 -15 639 -15 q 138 102 242 -15 q 33 435 33 219 q 147 786 33 663 q 467 910 260 910 m 447 729 q 342 704 381 729 q 285 622 303 679 q 268 465 268 564 q 286 281 268 347 q 344 185 304 214 q 451 156 383 156 q 556 181 517 156 q 613 265 594 207 q 631 422 631 322 q 613 605 631 539 q 555 700 594 671 q 447 729 515 729 m 675 1156 q 588 1038 647 1079 q 447 997 529 997 q 310 1038 367 997 q 226 1156 253 1079 l 274 1224 l 304 1224 q 454 1150 347 1150 q 596 1224 554 1150 l 628 1224 l 675 1156 z "},"ŏ":{"ha":781,"x_min":38,"x_max":743,"o":"m 406 718 q 655 627 567 718 q 743 371 743 536 q 647 87 743 188 q 375 -14 551 -14 q 126 79 214 -14 q 38 342 38 172 q 133 619 38 521 q 406 718 229 718 m 386 551 q 308 535 336 551 q 268 480 281 519 q 256 369 256 440 q 269 231 256 279 q 311 164 282 183 q 393 144 340 144 q 472 160 444 144 q 513 215 500 176 q 525 326 525 254 q 513 464 525 415 q 470 532 500 513 q 386 551 440 551 m 618 976 q 538 847 596 897 q 388 796 479 796 q 243 847 297 796 q 169 976 189 899 l 217 1047 l 247 1047 q 394 950 288 950 q 539 1047 503 950 l 571 1047 l 618 976 z "},"Ő":{"ha":899,"x_min":33,"x_max":867,"o":"m 467 910 q 763 795 658 910 q 867 469 867 681 q 753 112 867 239 q 432 -15 639 -15 q 138 102 242 -15 q 33 435 33 219 q 147 786 33 663 q 467 910 260 910 m 447 729 q 342 704 381 729 q 285 622 303 679 q 268 465 268 564 q 286 281 268 347 q 344 185 304 214 q 451 156 383 156 q 556 181 517 156 q 613 265 594 207 q 631 422 631 322 q 613 605 631 539 q 555 700 594 671 q 447 729 515 729 m 239 1044 q 381 1239 336 1172 l 397 1243 l 499 1176 l 501 1160 q 325 996 417 1075 l 306 990 l 239 1044 m 461 1044 q 604 1239 539 1146 l 619 1243 l 722 1176 l 725 1160 q 547 996 651 1088 l 529 990 l 461 1044 z "},"ő":{"ha":781,"x_min":38,"x_max":743,"o":"m 406 718 q 655 627 567 718 q 743 371 743 536 q 647 87 743 188 q 375 -14 551 -14 q 126 79 214 -14 q 38 342 38 172 q 133 619 38 521 q 406 718 229 718 m 386 551 q 308 535 336 551 q 268 480 281 519 q 256 369 256 440 q 269 231 256 279 q 311 164 282 183 q 393 144 340 144 q 472 160 444 144 q 513 215 500 176 q 525 326 525 254 q 513 464 525 415 q 470 532 500 513 q 386 551 440 551 m 186 835 q 351 1083 286 979 l 367 1088 l 468 1017 l 471 1000 q 271 786 378 893 l 253 781 l 186 835 m 404 835 q 571 1083 481 942 l 586 1088 l 688 1017 l 690 1000 q 489 786 607 904 l 471 781 l 404 835 z "},"Œ":{"ha":1218,"x_min":33,"x_max":1201,"o":"m 486 913 q 636 903 556 913 q 753 896 738 896 l 1189 896 l 1201 879 l 1186 713 l 972 721 l 815 721 l 813 540 l 957 540 l 1106 544 l 1118 528 l 1104 361 l 942 365 l 807 365 l 807 285 l 810 176 l 956 175 l 1182 183 l 1196 167 l 1181 0 l 753 0 q 607 -8 700 1 q 456 -17 510 -17 q 144 102 254 -17 q 33 436 33 221 q 153 788 33 663 q 486 913 272 913 m 468 732 q 314 668 360 732 q 268 454 268 604 q 315 223 268 293 q 474 153 363 153 q 579 172 553 153 q 601 239 603 189 l 594 647 q 578 711 594 697 q 468 732 553 732 z "},"œ":{"ha":1047,"x_min":38,"x_max":1026,"o":"m 418 718 q 547 711 450 718 q 646 706 617 706 l 1015 706 l 1026 690 l 1013 538 l 832 544 l 706 544 l 704 436 l 821 436 l 944 440 l 956 425 l 943 271 l 808 275 l 699 274 l 699 228 l 700 161 l 818 161 l 1008 168 l 1019 154 l 1007 0 l 646 0 q 521 -6 600 1 q 390 -12 417 -12 q 129 80 221 -12 q 38 342 38 172 q 138 619 38 521 q 418 718 239 718 m 400 550 q 313 533 344 550 q 269 474 282 515 q 256 360 256 433 q 270 233 256 279 q 317 165 285 186 q 407 144 350 144 q 490 160 472 144 q 507 217 507 172 l 501 479 q 489 532 500 521 q 400 550 467 550 z "},"Ŕ":{"ha":843,"x_min":97,"x_max":826,"o":"m 618 354 q 826 53 733 175 l 824 28 q 600 -15 718 -7 l 578 3 q 433 288 494 158 l 315 288 l 324 0 l 97 0 l 110 265 l 97 896 l 475 897 q 699 827 621 897 q 778 626 778 757 q 736 474 778 544 q 618 354 694 403 m 440 451 q 540 606 540 488 q 506 702 540 671 q 400 736 472 733 l 325 732 l 319 457 l 440 451 m 633 1147 l 629 1128 q 343 968 492 1049 l 324 969 l 272 1053 q 535 1269 418 1164 l 554 1268 l 633 1147 z "},"ŕ":{"ha":747,"x_min":90,"x_max":724,"o":"m 556 276 q 724 49 621 178 l 721 25 q 518 -12 614 -7 l 489 8 q 382 215 431 115 l 290 215 l 299 0 l 90 0 l 100 207 l 90 706 l 425 707 q 615 651 549 707 q 682 490 682 594 q 649 371 682 426 q 556 276 615 315 m 461 469 q 435 536 461 515 q 353 560 410 557 l 299 556 l 294 369 l 388 364 q 461 469 461 392 m 565 958 l 561 939 q 275 779 424 860 l 256 781 l 204 864 q 467 1081 350 975 l 486 1079 l 565 958 z "},"Ŗ":{"ha":843,"x_min":97,"x_max":826,"o":"m 618 354 q 826 53 719 194 l 822 28 q 600 -15 717 -7 l 576 3 q 432 288 472 203 l 314 288 l 324 0 l 97 0 l 110 265 l 97 896 l 476 897 q 699 827 621 897 q 778 626 778 757 q 736 474 778 544 q 618 354 694 403 m 440 451 q 542 606 542 489 q 507 702 542 671 q 400 736 472 733 l 324 732 l 318 457 l 440 451 m 481 -47 q 538 -161 538 -94 q 374 -396 538 -281 l 313 -342 l 311 -328 q 379 -203 379 -269 q 339 -122 379 -157 l 340 -106 q 481 -47 411 -65 z "},"ŗ":{"ha":747,"x_min":90,"x_max":724,"o":"m 554 275 q 724 49 646 142 l 719 25 q 518 -12 613 -7 l 489 8 q 382 215 431 115 l 290 215 l 300 0 l 90 0 l 100 207 l 90 706 l 425 707 q 615 651 549 707 q 682 490 682 594 q 649 371 682 426 q 554 275 615 315 m 463 469 q 437 536 463 515 q 353 560 411 557 l 299 556 l 294 369 l 388 364 q 463 469 463 392 m 413 -47 q 469 -161 469 -94 q 306 -396 469 -281 l 244 -342 l 243 -328 q 311 -203 311 -269 q 271 -122 311 -157 l 272 -106 q 413 -47 343 -65 z "},"Ř":{"ha":843,"x_min":97,"x_max":826,"o":"m 618 354 q 826 53 733 175 l 824 28 q 600 -15 718 -7 l 578 3 q 433 288 494 158 l 315 288 l 324 0 l 97 0 l 110 265 l 97 896 l 475 897 q 699 827 621 897 q 778 626 778 757 q 736 474 778 544 q 618 354 694 403 m 440 451 q 540 606 540 488 q 506 702 540 671 q 400 736 472 733 l 325 732 l 319 457 l 440 451 m 653 1176 q 444 975 567 1100 l 401 975 q 193 1176 308 1072 l 247 1258 l 268 1258 q 422 1139 375 1182 q 576 1258 467 1176 l 599 1258 l 653 1176 z "},"ř":{"ha":747,"x_min":90,"x_max":724,"o":"m 556 276 q 724 49 621 178 l 721 25 q 518 -12 614 -7 l 489 8 q 382 215 431 115 l 290 215 l 299 0 l 90 0 l 100 207 l 90 706 l 425 707 q 615 651 549 707 q 682 490 682 594 q 649 371 682 426 q 556 276 615 315 m 461 469 q 435 536 461 515 q 353 560 410 557 l 299 556 l 294 369 l 388 364 q 461 469 461 392 m 585 988 q 376 786 499 911 l 333 786 q 125 988 240 883 l 179 1069 l 200 1069 q 354 950 307 993 q 508 1069 399 988 l 531 1069 l 585 988 z "},"Ś":{"ha":708,"x_min":36,"x_max":668,"o":"m 407 910 q 649 863 526 910 l 613 674 l 579 661 q 382 735 465 735 q 309 712 336 735 q 282 658 282 689 q 316 599 282 624 q 424 542 350 575 q 549 476 501 506 q 633 396 597 446 q 668 274 668 346 q 624 128 668 193 q 500 24 581 63 q 314 -14 419 -14 q 36 42 174 -14 l 68 243 l 92 257 q 219 181 150 208 q 338 154 288 154 q 417 178 390 154 q 444 233 444 201 q 410 296 444 271 q 301 354 375 321 q 178 419 226 389 q 96 499 131 449 q 61 621 61 549 q 105 769 61 703 q 227 872 149 835 q 407 910 306 910 m 582 1147 l 578 1128 q 292 968 440 1049 l 272 969 l 221 1053 q 483 1269 367 1164 l 503 1268 l 582 1147 z "},"ś":{"ha":632,"x_min":44,"x_max":578,"o":"m 360 718 q 563 682 461 718 l 532 501 l 501 494 q 410 544 457 526 q 332 563 364 563 q 287 549 303 563 q 271 517 271 536 q 294 478 271 493 q 375 439 318 463 q 477 392 436 415 q 548 328 518 369 q 578 224 578 286 q 547 107 578 161 q 448 19 515 53 q 281 -14 381 -14 q 44 28 160 -14 l 74 215 l 94 231 q 203 162 143 188 q 307 136 263 136 q 354 150 336 136 q 372 185 372 164 q 349 224 372 208 q 268 263 325 239 q 165 311 206 288 q 94 376 124 335 q 64 482 64 418 q 99 602 64 549 q 201 687 135 656 q 360 718 268 718 m 543 958 l 539 939 q 253 779 401 860 l 233 781 l 182 864 q 444 1081 328 975 l 464 1079 l 543 958 z "},"Ŝ":{"ha":708,"x_min":36,"x_max":668,"o":"m 140 1061 q 349 1263 226 1138 l 392 1263 q 600 1061 485 1165 l 546 979 l 525 979 q 371 1099 418 1056 q 217 979 326 1061 l 194 979 l 140 1061 m 407 910 q 649 863 528 910 l 613 674 l 581 661 q 474 715 528 696 q 383 735 421 735 q 309 712 336 735 q 282 658 282 689 q 316 599 282 624 q 424 542 350 575 q 549 476 501 506 q 633 396 597 446 q 668 274 668 346 q 624 128 668 193 q 501 24 581 63 q 315 -14 421 -14 q 36 42 174 -14 l 68 243 l 92 257 q 219 181 150 208 q 339 154 288 154 q 417 178 390 154 q 444 233 444 201 q 410 296 444 271 q 301 354 375 321 q 178 419 226 389 q 96 499 131 449 q 61 621 61 549 q 105 769 61 703 q 227 872 149 835 q 407 910 306 910 z "},"ŝ":{"ha":632,"x_min":44,"x_max":578,"o":"m 101 872 q 310 1074 188 949 l 353 1074 q 561 872 446 976 l 507 790 l 486 790 q 332 910 379 867 q 178 790 288 872 l 156 790 l 101 872 m 360 718 q 563 682 461 718 l 532 501 l 501 494 q 410 544 457 526 q 332 563 364 563 q 287 549 303 563 q 271 517 271 536 q 294 478 271 493 q 375 439 318 463 q 477 392 436 415 q 548 328 518 369 q 578 224 578 286 q 547 107 578 161 q 448 19 515 53 q 281 -14 381 -14 q 44 28 160 -14 l 74 215 l 94 231 q 203 162 143 188 q 307 136 263 136 q 354 150 336 136 q 372 185 372 164 q 349 224 372 208 q 268 263 325 239 q 165 311 206 288 q 94 376 124 335 q 64 482 64 418 q 99 602 64 549 q 201 687 135 656 q 360 718 268 718 z "},"Ş":{"ha":708,"x_min":36,"x_max":668,"o":"m 668 274 q 592 88 668 167 q 389 -8 517 10 l 378 -62 l 425 -89 q 483 -174 483 -119 q 445 -251 483 -221 q 343 -282 407 -282 q 224 -246 282 -282 l 238 -157 l 247 -153 q 329 -193 290 -193 q 358 -168 358 -193 q 338 -143 358 -153 l 269 -106 l 289 -14 q 36 42 161 -7 l 68 243 l 92 257 q 219 181 150 208 q 339 154 288 154 q 417 178 390 154 q 444 233 444 201 q 410 296 444 271 q 301 354 375 321 q 178 419 226 389 q 96 499 131 449 q 61 621 61 549 q 105 769 61 703 q 227 872 149 835 q 407 910 306 910 q 649 863 528 910 l 613 674 l 581 661 q 474 715 528 696 q 383 735 421 735 q 309 712 336 735 q 282 658 282 689 q 316 599 282 624 q 424 542 350 575 q 549 476 501 506 q 633 396 597 446 q 668 274 668 346 z "},"ş":{"ha":632,"x_min":44,"x_max":578,"o":"m 578 224 q 517 68 578 135 q 335 -11 456 1 l 324 -62 l 371 -89 q 429 -174 429 -119 q 391 -251 429 -221 q 289 -282 353 -282 q 169 -246 228 -282 l 183 -157 l 193 -153 q 275 -193 236 -193 q 304 -168 304 -193 q 283 -143 304 -153 l 215 -106 l 236 -12 q 44 28 138 -6 l 74 215 l 94 231 q 203 162 143 188 q 307 136 263 136 q 354 150 336 136 q 372 185 372 164 q 349 224 372 208 q 268 263 325 239 q 165 311 206 288 q 94 376 124 335 q 64 482 64 418 q 99 602 64 549 q 201 687 135 656 q 360 718 268 718 q 563 682 461 718 l 532 501 l 501 494 q 410 544 457 526 q 332 563 364 563 q 287 549 303 563 q 271 517 271 536 q 294 478 271 493 q 375 439 318 463 q 477 392 436 415 q 548 328 518 369 q 578 224 578 286 z "},"Š":{"ha":708,"x_min":36,"x_max":668,"o":"m 407 910 q 649 863 526 910 l 613 674 l 579 661 q 382 735 465 735 q 309 712 336 735 q 282 658 282 689 q 316 599 282 624 q 424 542 350 575 q 549 476 501 506 q 633 396 597 446 q 668 274 668 346 q 624 128 668 193 q 500 24 581 63 q 314 -14 419 -14 q 36 42 174 -14 l 68 243 l 92 257 q 219 181 150 208 q 338 154 288 154 q 417 178 390 154 q 444 233 444 201 q 410 296 444 271 q 301 354 375 321 q 178 419 226 389 q 96 499 131 449 q 61 621 61 549 q 105 769 61 703 q 227 872 149 835 q 407 910 306 910 m 600 1176 q 392 975 514 1100 l 349 975 q 140 1176 256 1072 l 194 1258 l 215 1258 q 369 1139 322 1182 q 524 1258 414 1176 l 546 1258 l 600 1176 z "},"š":{"ha":632,"x_min":44,"x_max":578,"o":"m 360 718 q 563 682 461 718 l 532 501 l 501 494 q 410 544 457 526 q 332 563 364 563 q 287 549 303 563 q 271 517 271 536 q 294 478 271 493 q 375 439 318 463 q 477 392 436 415 q 548 328 518 369 q 578 224 578 286 q 547 107 578 161 q 448 19 515 53 q 281 -14 381 -14 q 44 28 160 -14 l 74 215 l 94 231 q 203 162 143 188 q 307 136 263 136 q 354 150 336 136 q 372 185 372 164 q 349 224 372 208 q 268 263 325 239 q 165 311 206 288 q 94 376 124 335 q 64 482 64 418 q 99 602 64 549 q 201 687 135 656 q 360 718 268 718 m 561 988 q 353 786 475 911 l 310 786 q 101 988 217 883 l 156 1069 l 176 1069 q 331 950 283 993 q 485 1069 375 988 l 507 1069 l 561 988 z "},"Ţ":{"ha":708,"x_min":17,"x_max":693,"o":"m 679 714 l 506 722 l 467 722 l 460 288 l 468 0 l 401 0 l 388 -62 l 435 -89 q 493 -174 493 -119 q 455 -251 493 -221 q 353 -282 417 -282 q 233 -246 292 -282 l 247 -157 l 257 -153 q 339 -193 300 -193 q 368 -168 368 -193 q 347 -143 368 -154 l 279 -106 l 301 0 l 243 0 l 256 265 l 249 722 l 207 722 l 31 714 l 17 731 l 31 896 l 679 896 l 693 879 l 679 714 z "},"ţ":{"ha":626,"x_min":19,"x_max":594,"o":"m 404 228 l 413 0 l 360 0 l 346 -64 l 393 -90 q 451 -175 451 -124 q 413 -253 451 -222 q 313 -283 375 -283 q 194 -246 249 -283 l 208 -158 l 218 -156 q 299 -196 261 -196 q 328 -171 328 -196 q 308 -144 328 -156 l 240 -106 l 263 0 l 204 0 l 214 207 l 208 543 l 183 543 l 33 535 l 19 550 l 32 706 l 583 706 l 594 690 l 582 535 l 435 543 l 410 543 l 404 228 z "},"Ť":{"ha":708,"x_min":17,"x_max":693,"o":"m 681 714 l 506 722 l 467 722 l 460 288 l 468 0 l 243 0 l 256 265 l 249 722 l 207 722 l 31 714 l 17 731 l 31 896 l 681 896 l 693 879 l 681 714 m 588 1176 q 379 975 501 1100 l 336 975 q 128 1176 243 1072 l 182 1258 l 203 1258 q 357 1139 310 1182 q 511 1258 401 1176 l 533 1258 l 588 1176 z "},"ť":{"ha":626,"x_min":25,"x_max":600,"o":"m 588 535 l 440 543 l 415 543 l 410 228 l 418 0 l 210 0 l 219 207 l 214 543 l 189 543 l 39 535 l 25 550 l 38 706 l 589 706 l 600 690 l 588 535 m 529 988 q 321 786 443 911 l 278 786 q 69 988 185 883 l 124 1069 l 144 1069 q 299 950 251 993 q 453 1069 343 988 l 475 1069 l 529 988 z "},"Ŧ":{"ha":708,"x_min":17,"x_max":693,"o":"m 463 469 l 594 469 l 608 456 l 600 351 l 461 351 l 460 288 l 468 0 l 243 0 l 256 265 l 254 351 l 135 351 l 121 367 l 129 469 l 253 469 l 249 722 l 207 722 l 31 714 l 17 731 l 31 896 l 679 896 l 693 879 l 679 714 l 506 722 l 467 722 l 463 469 z "},"ŧ":{"ha":626,"x_min":25,"x_max":599,"o":"m 413 354 l 522 354 l 538 339 l 529 236 l 410 236 l 410 228 l 418 0 l 210 0 l 219 207 l 219 236 l 110 236 l 96 251 l 104 354 l 217 354 l 214 543 l 188 543 l 38 535 l 25 550 l 38 706 l 588 706 l 599 690 l 588 535 l 439 543 l 415 543 l 413 354 z "},"Ũ":{"ha":894,"x_min":78,"x_max":821,"o":"m 811 313 q 715 71 813 156 q 436 -14 617 -14 q 169 69 261 -14 q 81 308 76 153 l 83 444 l 78 896 l 303 896 l 293 339 q 329 208 292 250 q 446 167 367 167 q 565 208 526 167 q 601 333 603 249 l 592 896 l 821 896 l 813 442 l 811 313 m 703 1161 l 600 1024 l 581 1015 q 465 1042 561 1018 q 367 1064 392 1064 q 332 1050 349 1064 q 299 1017 315 1036 q 276 989 283 997 l 257 989 l 193 1053 l 193 1071 l 296 1208 l 315 1215 q 436 1188 346 1211 q 529 1167 510 1167 q 563 1181 547 1167 q 595 1214 579 1194 q 619 1243 611 1233 l 639 1243 l 703 1179 l 703 1161 z "},"ũ":{"ha":779,"x_min":72,"x_max":707,"o":"m 699 236 q 615 52 699 117 q 378 -12 532 -12 q 151 52 229 -12 q 75 236 72 117 l 78 349 l 72 706 l 281 706 l 271 265 q 298 181 269 207 q 388 154 326 154 q 477 181 449 154 q 504 265 506 207 l 494 706 l 707 706 l 700 347 l 699 236 m 644 972 l 542 835 l 522 826 q 407 853 503 829 q 308 875 333 875 q 274 861 290 875 q 241 828 257 847 q 218 800 225 808 l 199 800 l 135 864 l 135 882 l 238 1019 l 257 1026 q 378 999 288 1022 q 471 978 451 978 q 505 992 489 978 q 537 1025 521 1006 q 561 1054 553 1044 l 581 1054 l 644 990 l 644 972 z "},"Ū":{"ha":894,"x_min":78,"x_max":821,"o":"m 811 313 q 715 71 813 156 q 436 -14 617 -14 q 169 69 261 -14 q 81 308 76 153 l 83 444 l 78 896 l 303 896 l 293 339 q 329 208 292 250 q 446 167 367 167 q 565 208 526 167 q 601 333 603 249 l 592 896 l 821 896 l 813 442 l 811 313 m 644 1043 l 258 1043 l 244 1058 l 254 1181 l 642 1181 l 656 1165 l 644 1043 z "},"ū":{"ha":779,"x_min":72,"x_max":707,"o":"m 699 236 q 615 52 699 117 q 378 -12 532 -12 q 151 52 229 -12 q 75 236 72 117 l 78 349 l 72 706 l 281 706 l 271 265 q 298 181 269 207 q 388 154 326 154 q 477 181 449 154 q 504 265 506 207 l 494 706 l 707 706 l 700 347 l 699 236 m 585 854 l 199 854 l 185 869 l 194 992 l 582 992 l 596 976 l 585 854 z "},"Ŭ":{"ha":894,"x_min":78,"x_max":821,"o":"m 811 313 q 715 71 813 156 q 436 -14 617 -14 q 169 69 261 -14 q 81 308 76 153 l 83 444 l 78 896 l 303 896 l 293 339 q 329 208 292 250 q 446 167 367 167 q 565 208 526 167 q 601 333 603 249 l 592 896 l 821 896 l 813 442 l 811 313 m 675 1165 q 594 1035 653 1086 q 444 985 536 985 q 300 1036 354 985 q 226 1165 246 1088 l 274 1236 l 304 1236 q 451 1139 344 1139 q 596 1236 560 1139 l 628 1236 l 675 1165 z "},"ŭ":{"ha":779,"x_min":72,"x_max":707,"o":"m 699 236 q 615 52 699 117 q 378 -12 532 -12 q 151 52 229 -12 q 75 236 72 117 l 78 349 l 72 706 l 281 706 l 271 265 q 298 181 269 207 q 388 154 326 154 q 477 181 449 154 q 504 265 506 207 l 494 706 l 707 706 l 700 347 l 699 236 m 617 976 q 536 847 594 897 q 386 796 478 796 q 242 847 296 796 q 168 976 188 899 l 215 1047 l 246 1047 q 393 950 286 950 q 538 1047 501 950 l 569 1047 l 617 976 z "},"Ů":{"ha":894,"x_min":78,"x_max":821,"o":"m 811 313 q 715 71 813 156 q 436 -14 617 -14 q 169 69 261 -14 q 81 308 76 153 l 83 444 l 78 896 l 303 896 l 293 339 q 329 208 292 250 q 446 167 367 167 q 565 208 526 167 q 601 333 603 249 l 592 896 l 821 896 l 813 442 l 811 313 m 453 1269 q 556 1235 521 1269 q 590 1136 590 1200 q 552 1028 590 1067 q 444 990 514 990 q 342 1026 378 990 q 307 1128 307 1061 q 344 1233 307 1197 q 453 1269 382 1269 m 447 1179 q 396 1132 396 1179 q 450 1079 396 1079 q 501 1128 501 1079 q 447 1179 501 1179 z "},"ů":{"ha":779,"x_min":72,"x_max":707,"o":"m 699 236 q 615 52 699 117 q 378 -12 532 -12 q 151 52 229 -12 q 75 236 72 117 l 78 349 l 72 706 l 281 706 l 271 265 q 298 181 269 207 q 388 154 326 154 q 477 181 449 154 q 504 265 506 207 l 494 706 l 707 706 l 700 347 l 699 236 m 394 1081 q 497 1046 463 1081 q 532 947 532 1011 q 494 840 532 878 q 386 801 456 801 q 284 837 319 801 q 249 939 249 872 q 286 1044 249 1008 q 394 1081 324 1081 m 389 990 q 338 943 338 990 q 392 890 338 890 q 443 939 443 890 q 389 990 443 990 z "},"Ű":{"ha":894,"x_min":78,"x_max":821,"o":"m 811 313 q 715 71 813 156 q 436 -14 617 -14 q 169 69 261 -14 q 81 308 76 153 l 83 444 l 78 896 l 303 896 l 293 339 q 329 208 292 250 q 446 167 367 167 q 565 208 526 167 q 601 333 603 249 l 592 896 l 821 896 l 813 442 l 811 313 m 238 1044 q 379 1239 335 1172 l 396 1243 l 497 1176 l 500 1160 q 324 996 415 1075 l 304 990 l 238 1044 m 460 1044 q 603 1239 538 1146 l 618 1243 l 721 1176 l 724 1160 q 546 996 650 1088 l 528 990 l 460 1044 z "},"ű":{"ha":779,"x_min":72,"x_max":707,"o":"m 699 236 q 615 52 699 117 q 378 -12 532 -12 q 151 52 229 -12 q 75 236 72 117 l 78 349 l 72 706 l 281 706 l 271 265 q 298 181 269 207 q 388 154 326 154 q 477 181 449 154 q 504 265 506 207 l 494 706 l 707 706 l 700 347 l 699 236 m 183 835 q 349 1083 283 979 l 364 1088 l 465 1017 l 468 1000 q 268 786 375 893 l 250 781 l 183 835 m 401 835 q 568 1083 478 942 l 583 1088 l 685 1017 l 688 1000 q 486 786 604 904 l 468 781 l 401 835 z "},"Ų":{"ha":894,"x_min":78,"x_max":819,"o":"m 813 442 l 811 313 q 704 63 811 149 l 635 -47 q 613 -111 613 -83 q 663 -157 613 -157 q 753 -121 706 -157 l 764 -121 l 781 -207 q 632 -274 700 -274 q 535 -237 571 -274 q 499 -146 499 -201 q 539 -31 499 -89 l 558 -1 q 435 -14 501 -14 q 169 69 261 -14 q 81 308 76 153 l 83 444 l 78 896 l 303 896 l 293 339 q 328 208 292 250 q 446 167 365 167 q 565 208 526 167 q 601 333 603 249 l 592 896 l 819 896 l 813 442 z "},"ų":{"ha":779,"x_min":72,"x_max":707,"o":"m 700 347 l 699 236 q 572 25 699 88 l 524 -49 q 501 -112 501 -85 q 551 -158 501 -158 q 642 -124 597 -158 l 653 -124 l 669 -208 q 521 -275 590 -275 q 424 -240 460 -275 q 388 -149 388 -204 q 428 -33 388 -90 l 446 -10 q 379 -12 404 -12 q 151 52 229 -12 q 76 236 72 117 l 78 349 l 72 706 l 282 706 l 272 265 q 299 181 271 207 q 388 154 326 154 q 477 181 449 154 q 504 265 506 207 l 496 706 l 707 706 l 700 347 z "},"Ŵ":{"ha":1260,"x_min":25,"x_max":1256,"o":"m 404 1094 q 600 1247 510 1165 l 642 1247 q 839 1094 736 1163 l 800 1007 l 779 1007 l 621 1093 q 526 1040 644 1107 l 464 1007 l 443 1007 l 404 1094 m 736 0 l 624 386 l 608 386 l 497 0 l 258 0 l 25 896 l 244 896 l 258 774 l 388 229 l 401 229 l 533 682 l 476 896 l 704 896 l 725 751 l 858 229 l 874 229 l 1025 761 l 1049 896 l 1256 896 l 974 0 l 736 0 z "},"ŵ":{"ha":1078,"x_min":35,"x_max":1068,"o":"m 286 872 q 494 1074 372 949 l 538 1074 q 746 872 631 976 l 692 790 l 671 790 q 517 910 564 867 q 363 790 472 872 l 340 790 l 286 872 m 615 0 l 535 263 l 522 263 l 444 0 l 218 0 l 35 706 l 242 706 l 253 599 l 340 215 l 354 215 l 450 542 l 408 706 l 624 706 l 640 576 l 732 215 l 746 215 l 851 586 l 872 706 l 1068 706 l 842 0 l 615 0 z "},"Ŷ":{"ha":796,"x_min":0,"x_max":810,"o":"m 178 1094 q 374 1247 283 1165 l 415 1247 q 613 1094 510 1163 l 574 1007 l 553 1007 l 394 1093 q 300 1040 418 1107 l 238 1007 l 217 1007 l 178 1094 m 500 0 l 275 0 l 288 243 l 286 292 l 0 896 l 238 896 l 258 829 l 389 517 l 404 517 l 551 821 l 579 896 l 810 896 l 493 296 l 492 243 l 500 0 z "},"ŷ":{"ha":706,"x_min":8,"x_max":707,"o":"m 132 872 q 340 1074 218 949 l 383 1074 q 592 872 476 976 l 538 790 l 517 790 q 363 910 410 867 q 208 790 318 872 l 186 790 l 132 872 m 447 0 l 239 0 l 249 188 l 247 217 l 8 706 l 228 706 l 246 649 l 344 428 l 356 428 l 468 640 l 493 706 l 707 706 l 440 222 l 439 188 l 447 0 z "},"Ÿ":{"ha":796,"x_min":0,"x_max":810,"o":"m 268 1008 q 195 1034 221 1008 q 169 1107 169 1060 q 198 1186 169 1157 q 275 1215 226 1215 q 347 1189 321 1215 q 372 1117 372 1163 q 344 1038 372 1067 q 268 1008 317 1008 m 521 1008 q 448 1034 474 1008 q 422 1107 422 1060 q 451 1186 422 1157 q 528 1215 479 1215 q 599 1189 574 1215 q 625 1117 625 1163 q 597 1038 625 1067 q 521 1008 569 1008 m 500 0 l 275 0 l 288 243 l 286 292 l 0 896 l 238 896 l 258 829 l 389 517 l 404 517 l 551 821 l 579 896 l 810 896 l 493 296 l 492 243 l 500 0 z "},"Ź":{"ha":774,"x_min":40,"x_max":742,"o":"m 306 169 l 575 169 l 733 181 l 742 169 l 724 -6 l 503 0 l 161 0 l 40 -7 l 40 154 l 464 726 l 208 726 l 50 714 l 42 724 l 58 899 l 250 896 l 631 896 l 725 897 l 725 735 l 306 169 m 603 1114 l 596 1096 q 285 992 467 1049 l 264 997 l 229 1089 q 528 1250 379 1163 l 547 1246 l 603 1114 z "},"ź":{"ha":681,"x_min":44,"x_max":642,"o":"m 293 156 l 496 156 l 636 167 l 642 158 l 626 -6 l 428 0 l 154 0 l 46 -6 l 46 143 l 385 550 l 188 550 l 51 538 l 44 546 l 60 708 l 226 706 l 544 706 l 628 707 l 628 557 l 293 156 m 533 958 l 529 939 q 243 779 392 860 l 224 781 l 172 864 q 435 1081 318 975 l 454 1079 l 533 958 z "},"Ż":{"ha":774,"x_min":40,"x_max":742,"o":"m 393 1229 q 473 1200 444 1229 q 501 1119 501 1171 q 469 1031 501 1064 q 385 999 438 999 q 304 1028 332 999 q 276 1110 276 1057 q 308 1197 276 1164 q 393 1229 339 1229 m 306 169 l 575 169 l 733 181 l 742 169 l 724 -6 l 503 0 l 161 0 l 40 -7 l 40 154 l 464 726 l 208 726 l 50 714 l 42 724 l 58 899 l 250 896 l 631 896 l 725 897 l 725 735 l 306 169 z "},"ż":{"ha":681,"x_min":44,"x_max":643,"o":"m 326 1040 q 406 1011 378 1040 q 435 931 435 982 q 403 842 435 875 q 318 810 371 810 q 238 839 265 810 q 210 921 210 868 q 241 1008 210 975 q 326 1040 272 1040 m 294 156 l 496 156 l 636 167 l 643 158 l 626 -6 l 429 0 l 154 0 l 47 -6 l 47 143 l 385 550 l 188 550 l 51 538 l 44 546 l 60 708 l 228 706 l 544 706 l 628 707 l 628 557 l 294 156 z "},"Ž":{"ha":774,"x_min":40,"x_max":742,"o":"m 306 169 l 575 169 l 733 181 l 742 169 l 724 -6 l 503 0 l 161 0 l 40 -7 l 40 154 l 464 726 l 208 726 l 50 714 l 42 724 l 58 899 l 250 896 l 631 896 l 725 897 l 725 735 l 306 169 m 607 1146 q 411 993 501 1075 l 369 993 q 172 1146 275 1078 l 211 1233 l 232 1233 l 390 1147 q 485 1200 367 1133 l 547 1233 l 568 1233 l 607 1146 z "},"ž":{"ha":681,"x_min":44,"x_max":642,"o":"m 293 156 l 496 156 l 636 167 l 642 158 l 626 -6 l 428 0 l 154 0 l 46 -6 l 46 143 l 385 550 l 188 550 l 51 538 l 44 546 l 60 708 l 226 706 l 544 706 l 628 707 l 628 557 l 293 156 m 553 988 q 344 786 467 911 l 301 786 q 93 988 208 883 l 147 1069 l 168 1069 q 322 950 275 993 q 476 1069 367 988 l 499 1069 l 553 988 z "},"ƒ":{"ha":464,"x_min":-25,"x_max":589,"o":"m 472 865 q 589 853 526 865 l 558 706 l 543 697 q 436 724 479 724 q 347 644 360 724 l 333 542 l 468 542 l 474 529 l 463 421 l 317 421 l 293 258 l 274 82 q 214 -87 261 -21 q 65 -210 167 -153 l -25 -121 l -22 -104 q 52 -28 28 -68 q 86 76 76 13 l 107 238 l 126 421 l 35 421 l 29 431 l 42 542 l 140 542 l 149 611 q 249 799 164 733 q 472 865 333 865 z "},"Ơ":{"ha":908,"x_min":33,"x_max":938,"o":"m 835 1085 q 908 1047 878 1085 q 938 950 938 1008 q 892 831 938 879 q 775 771 846 783 q 867 464 867 657 q 816 208 867 315 q 668 42 765 100 q 436 -15 571 -15 q 138 102 242 -15 q 33 433 33 219 q 84 691 33 583 q 228 854 135 799 q 447 910 322 910 q 613 883 525 910 q 692 868 668 868 q 747 887 726 868 q 767 938 767 906 q 725 1026 767 989 l 729 1043 q 835 1085 788 1085 m 444 729 q 341 703 379 729 q 285 617 303 676 q 268 454 268 558 q 286 278 268 343 q 344 184 304 213 q 454 156 385 156 q 558 181 519 156 q 613 267 596 207 q 631 432 631 328 q 613 608 631 543 q 554 701 594 672 q 444 729 514 729 z "},"ơ":{"ha":790,"x_min":38,"x_max":808,"o":"m 619 821 q 715 860 676 860 q 781 828 754 860 q 808 747 808 796 q 771 649 808 690 q 675 594 733 608 q 743 365 743 506 q 647 87 743 188 q 378 -14 550 -14 q 126 79 214 -14 q 38 340 38 172 q 81 544 38 458 q 204 674 125 629 q 389 718 283 718 q 528 699 443 718 q 593 688 578 688 q 650 738 650 688 q 615 806 650 778 l 619 821 m 397 142 q 474 158 447 142 q 513 217 501 175 q 525 338 525 260 q 512 468 525 422 q 469 533 499 514 q 385 551 439 551 q 307 535 335 551 q 267 476 279 518 q 256 357 256 435 q 269 227 256 274 q 313 161 282 181 q 397 142 343 142 z "},"Ư":{"ha":908,"x_min":78,"x_max":953,"o":"m 953 983 q 917 883 953 928 q 818 813 881 838 l 813 442 l 811 313 q 714 71 811 156 q 435 -14 617 -14 q 169 69 261 -14 q 81 308 76 153 l 83 444 l 78 896 l 303 896 l 293 339 q 328 208 292 250 q 446 167 365 167 q 565 208 526 167 q 601 333 603 249 l 592 896 l 699 896 q 782 964 782 896 q 739 1046 782 1010 l 743 1063 q 850 1106 804 1106 q 923 1071 893 1106 q 953 983 953 1036 z "},"ư":{"ha":792,"x_min":67,"x_max":819,"o":"m 819 778 q 788 691 819 731 q 700 629 756 651 l 694 347 l 693 236 q 610 52 693 117 q 372 -12 526 -12 q 145 52 224 -12 q 69 236 67 117 l 72 349 l 67 706 l 275 706 l 265 265 q 292 181 264 207 q 382 154 321 154 q 472 181 443 154 q 499 265 500 207 l 489 706 l 594 706 q 661 758 661 706 q 626 822 661 797 l 631 838 q 729 876 688 876 q 794 849 768 876 q 819 778 819 821 z "},"Ǎ":{"ha":849,"x_min":8,"x_max":831,"o":"m 601 0 l 578 129 l 565 181 l 404 183 l 265 179 l 254 143 l 229 0 l 8 0 l 297 896 l 568 896 l 831 0 l 601 0 m 435 690 l 421 690 l 317 350 l 419 347 l 522 350 l 435 690 m 644 1146 q 449 993 539 1075 l 407 993 q 210 1146 313 1078 l 249 1233 l 269 1233 l 428 1147 q 522 1200 404 1133 l 585 1233 l 606 1233 l 644 1146 z "},"ǎ":{"ha":746,"x_min":18,"x_max":717,"o":"m 506 0 l 486 113 l 483 124 l 354 126 l 243 124 l 222 0 l 18 0 l 253 706 l 503 706 l 717 0 l 506 0 m 381 518 l 368 518 l 292 279 l 367 278 l 443 279 l 381 518 m 613 988 q 404 786 526 911 l 361 786 q 153 988 268 883 l 207 1069 l 228 1069 q 382 950 335 993 q 536 1069 426 988 l 558 1069 l 613 988 z "},"Ǐ":{"ha":428,"x_min":-4,"x_max":431,"o":"m 324 0 l 97 0 l 110 265 l 97 896 l 328 896 l 315 288 l 324 0 m 431 1146 q 235 993 325 1075 l 193 993 q -4 1146 99 1078 l 35 1233 l 56 1233 l 214 1147 q 308 1200 190 1133 l 371 1233 l 392 1233 l 431 1146 z "},"ǐ":{"ha":401,"x_min":-26,"x_max":433,"o":"m 299 0 l 90 0 l 100 207 l 90 706 l 303 706 l 290 228 l 299 0 m 433 988 q 225 786 347 911 l 182 786 q -26 988 89 883 l 28 1069 l 49 1069 q 203 950 156 993 q 357 1069 247 988 l 379 1069 l 433 988 z "},"Ǒ":{"ha":899,"x_min":33,"x_max":867,"o":"m 467 910 q 763 795 658 910 q 867 469 867 681 q 753 112 867 239 q 432 -15 639 -15 q 138 102 242 -15 q 33 435 33 219 q 147 786 33 663 q 467 910 260 910 m 447 729 q 342 704 381 729 q 285 622 303 679 q 268 465 268 564 q 286 281 268 347 q 344 185 304 214 q 451 156 383 156 q 556 181 517 156 q 613 265 594 207 q 631 422 631 322 q 613 605 631 539 q 555 700 594 671 q 447 729 515 729 m 668 1146 q 472 993 563 1075 l 431 993 q 233 1146 336 1078 l 272 1233 l 293 1233 l 451 1147 q 546 1200 428 1133 l 608 1233 l 629 1233 l 668 1146 z "},"ǒ":{"ha":781,"x_min":38,"x_max":743,"o":"m 406 718 q 655 627 567 718 q 743 371 743 536 q 647 87 743 188 q 375 -14 551 -14 q 126 79 214 -14 q 38 342 38 172 q 133 619 38 521 q 406 718 229 718 m 386 551 q 308 535 336 551 q 268 480 281 519 q 256 369 256 440 q 269 231 256 279 q 311 164 282 183 q 393 144 340 144 q 472 160 444 144 q 513 215 500 176 q 525 326 525 254 q 513 464 525 415 q 470 532 500 513 q 386 551 440 551 m 622 988 q 414 786 536 911 l 371 786 q 163 988 278 883 l 217 1069 l 238 1069 q 392 950 344 993 q 546 1069 436 988 l 568 1069 l 622 988 z "},"Ǔ":{"ha":894,"x_min":78,"x_max":821,"o":"m 811 313 q 715 71 813 156 q 436 -14 617 -14 q 169 69 261 -14 q 81 308 76 153 l 83 444 l 78 896 l 303 896 l 293 339 q 329 208 292 250 q 446 167 367 167 q 565 208 526 167 q 601 333 603 249 l 592 896 l 821 896 l 813 442 l 811 313 m 679 1176 q 471 975 593 1100 l 428 975 q 219 1176 335 1072 l 274 1258 l 294 1258 q 449 1139 401 1182 q 603 1258 493 1176 l 625 1258 l 679 1176 z "},"ǔ":{"ha":779,"x_min":72,"x_max":707,"o":"m 699 236 q 615 52 699 117 q 378 -12 532 -12 q 151 52 229 -12 q 75 236 72 117 l 78 349 l 72 706 l 281 706 l 271 265 q 298 181 269 207 q 388 154 326 154 q 477 181 449 154 q 504 265 506 207 l 494 706 l 707 706 l 700 347 l 699 236 m 621 988 q 413 786 535 911 l 369 786 q 161 988 276 883 l 215 1069 l 236 1069 q 390 950 343 993 q 544 1069 435 988 l 567 1069 l 621 988 z "},"Ǖ":{"ha":894,"x_min":78,"x_max":821,"o":"m 811 313 q 715 71 813 156 q 436 -14 617 -14 q 169 69 261 -14 q 81 308 76 153 l 83 444 l 78 896 l 303 896 l 293 339 q 329 208 292 250 q 446 167 367 167 q 565 208 526 167 q 601 333 603 249 l 592 896 l 821 896 l 813 442 l 811 313 m 653 1257 l 251 1257 l 236 1272 l 247 1394 l 649 1394 l 664 1379 l 653 1257 m 328 1183 q 397 1158 372 1183 q 421 1088 421 1133 q 394 1011 421 1039 q 319 983 367 983 q 249 1008 274 983 q 224 1079 224 1033 q 252 1156 224 1128 q 328 1183 281 1183 m 579 1183 q 649 1158 624 1183 q 674 1088 674 1133 q 647 1011 674 1039 q 572 983 619 983 q 501 1008 526 983 q 476 1079 476 1033 q 504 1156 476 1128 q 579 1183 532 1183 z "},"ǖ":{"ha":779,"x_min":72,"x_max":707,"o":"m 699 236 q 615 52 699 117 q 378 -12 532 -12 q 151 52 229 -12 q 75 236 72 117 l 78 349 l 72 706 l 281 706 l 271 265 q 298 181 269 207 q 388 154 326 154 q 477 181 449 154 q 504 265 506 207 l 494 706 l 707 706 l 700 347 l 699 236 m 594 1068 l 193 1068 l 178 1083 l 189 1206 l 590 1206 l 606 1190 l 594 1068 m 269 994 q 338 969 314 994 q 363 899 363 944 q 335 822 363 850 q 261 794 308 794 q 190 819 215 794 q 165 890 165 844 q 194 967 165 939 q 269 994 222 994 m 521 994 q 590 969 565 994 q 615 899 615 944 q 588 822 615 850 q 514 794 561 794 q 443 819 468 794 q 418 890 418 844 q 446 967 418 939 q 521 994 474 994 z "},"Ǘ":{"ha":894,"x_min":78,"x_max":821,"o":"m 811 313 q 715 71 813 156 q 436 -14 617 -14 q 169 69 261 -14 q 81 308 76 153 l 83 444 l 78 896 l 303 896 l 293 339 q 329 208 292 250 q 446 167 367 167 q 565 208 526 167 q 601 333 603 249 l 592 896 l 821 896 l 813 442 l 811 313 m 629 1308 l 619 1290 q 294 1244 431 1258 l 275 1253 l 257 1349 q 579 1456 413 1394 l 597 1447 l 629 1308 m 328 1183 q 397 1158 372 1183 q 421 1088 421 1133 q 394 1011 421 1039 q 319 983 367 983 q 249 1008 274 983 q 224 1079 224 1033 q 252 1156 224 1128 q 328 1183 281 1183 m 579 1183 q 649 1158 624 1183 q 674 1088 674 1133 q 647 1011 674 1039 q 572 983 619 983 q 501 1008 526 983 q 476 1079 476 1033 q 504 1156 476 1128 q 579 1183 532 1183 z "},"ǘ":{"ha":779,"x_min":72,"x_max":707,"o":"m 699 236 q 615 52 699 117 q 378 -12 532 -12 q 151 52 229 -12 q 75 236 72 117 l 78 349 l 72 706 l 281 706 l 271 265 q 298 181 269 207 q 388 154 326 154 q 477 181 449 154 q 504 265 506 207 l 494 706 l 707 706 l 700 347 l 699 236 m 571 1119 l 561 1101 q 236 1056 372 1069 l 217 1064 l 199 1160 q 521 1267 354 1206 l 539 1258 l 571 1119 m 269 994 q 338 969 314 994 q 363 899 363 944 q 335 822 363 850 q 261 794 308 794 q 190 819 215 794 q 165 890 165 844 q 194 967 165 939 q 269 994 222 994 m 521 994 q 590 969 565 994 q 615 899 615 944 q 588 822 615 850 q 514 794 561 794 q 443 819 468 794 q 418 890 418 844 q 446 967 418 939 q 521 994 474 994 z "},"Ǚ":{"ha":894,"x_min":78,"x_max":821,"o":"m 811 313 q 715 71 813 156 q 436 -14 617 -14 q 169 69 261 -14 q 81 308 76 153 l 83 444 l 78 896 l 303 896 l 293 339 q 329 208 292 250 q 446 167 367 167 q 565 208 526 167 q 601 333 603 249 l 592 896 l 821 896 l 813 442 l 811 313 m 665 1350 q 469 1197 561 1278 l 428 1197 q 231 1350 331 1281 l 269 1436 l 290 1436 q 449 1350 343 1408 q 606 1436 533 1399 l 626 1436 l 665 1350 m 328 1183 q 397 1158 372 1183 q 421 1088 421 1133 q 394 1011 421 1039 q 319 983 367 983 q 249 1008 274 983 q 224 1079 224 1033 q 252 1156 224 1128 q 328 1183 281 1183 m 579 1183 q 649 1158 624 1183 q 674 1088 674 1133 q 647 1011 674 1039 q 572 983 619 983 q 501 1008 526 983 q 476 1079 476 1033 q 504 1156 476 1128 q 579 1183 532 1183 z "},"ǚ":{"ha":779,"x_min":72,"x_max":707,"o":"m 699 236 q 615 52 699 117 q 378 -12 532 -12 q 151 52 229 -12 q 75 236 72 117 l 78 349 l 72 706 l 281 706 l 271 265 q 298 181 269 207 q 388 154 326 154 q 477 181 449 154 q 504 265 506 207 l 494 706 l 707 706 l 700 347 l 699 236 m 607 1161 q 411 1008 503 1089 l 369 1008 q 172 1161 272 1092 l 211 1247 l 232 1247 q 390 1161 285 1219 q 547 1247 475 1210 l 568 1247 l 607 1161 m 269 994 q 338 969 314 994 q 363 899 363 944 q 335 822 363 850 q 261 794 308 794 q 190 819 215 794 q 165 890 165 844 q 194 967 165 939 q 269 994 222 994 m 521 994 q 590 969 565 994 q 615 899 615 944 q 588 822 615 850 q 514 794 561 794 q 443 819 468 794 q 418 890 418 844 q 446 967 418 939 q 521 994 474 994 z "},"Ǜ":{"ha":894,"x_min":78,"x_max":821,"o":"m 811 313 q 715 71 813 156 q 436 -14 617 -14 q 169 69 261 -14 q 81 308 76 153 l 83 444 l 78 896 l 303 896 l 293 339 q 329 208 292 250 q 446 167 367 167 q 565 208 526 167 q 601 333 603 249 l 592 896 l 821 896 l 813 442 l 811 313 m 308 1456 q 629 1349 469 1396 l 611 1253 l 592 1244 q 268 1290 450 1260 l 257 1308 l 289 1447 l 308 1456 m 328 1183 q 397 1158 372 1183 q 421 1088 421 1133 q 394 1011 421 1039 q 319 983 367 983 q 249 1008 274 983 q 224 1079 224 1033 q 252 1156 224 1128 q 328 1183 281 1183 m 579 1183 q 649 1158 624 1183 q 674 1088 674 1133 q 647 1011 674 1039 q 572 983 619 983 q 501 1008 526 983 q 476 1079 476 1033 q 504 1156 476 1128 q 579 1183 532 1183 z "},"ǜ":{"ha":779,"x_min":72,"x_max":707,"o":"m 699 236 q 615 52 699 117 q 378 -12 532 -12 q 151 52 229 -12 q 75 236 72 117 l 78 349 l 72 706 l 281 706 l 271 265 q 298 181 269 207 q 388 154 326 154 q 477 181 449 154 q 504 265 506 207 l 494 706 l 707 706 l 700 347 l 699 236 m 250 1267 q 571 1160 411 1207 l 553 1064 l 533 1056 q 210 1101 392 1071 l 199 1119 l 231 1258 l 250 1267 m 269 994 q 338 969 314 994 q 363 899 363 944 q 335 822 363 850 q 261 794 308 794 q 190 819 215 794 q 165 890 165 844 q 194 967 165 939 q 269 994 222 994 m 521 994 q 590 969 565 994 q 615 899 615 944 q 588 822 615 850 q 514 794 561 794 q 443 819 468 794 q 418 890 418 844 q 446 967 418 939 q 521 994 474 994 z "},"Ǫ":{"ha":899,"x_min":33,"x_max":867,"o":"m 574 -44 q 551 -107 551 -81 q 603 -157 551 -157 q 690 -121 643 -157 l 703 -121 l 718 -207 q 571 -274 639 -274 q 473 -237 510 -274 q 436 -146 436 -201 q 479 -28 436 -87 l 490 -12 q 433 -15 454 -15 q 138 102 242 -15 q 33 435 33 219 q 147 786 33 663 q 468 910 260 910 q 763 795 658 910 q 867 469 867 681 q 801 178 867 294 q 613 15 736 63 l 574 -44 m 268 465 q 286 281 268 347 q 344 185 304 214 q 451 156 383 156 q 556 181 517 156 q 613 265 594 207 q 631 422 631 322 q 613 605 631 539 q 555 700 594 671 q 447 729 515 729 q 342 704 381 729 q 285 622 303 679 q 268 465 268 564 z "},"ǫ":{"ha":781,"x_min":38,"x_max":744,"o":"m 474 -47 q 451 -111 451 -83 q 501 -157 451 -157 q 592 -121 544 -157 l 603 -121 l 619 -207 q 471 -274 538 -274 q 374 -237 410 -274 q 338 -146 338 -201 q 378 -31 338 -89 l 390 -14 l 375 -14 q 126 79 214 -14 q 38 342 38 172 q 134 619 38 521 q 407 718 231 718 q 656 627 568 718 q 744 371 744 536 q 683 131 744 225 q 507 4 622 38 l 474 -47 m 256 369 q 269 231 256 279 q 311 164 282 183 q 393 144 340 144 q 473 160 444 144 q 514 215 501 176 q 526 326 526 254 q 513 464 526 415 q 471 532 500 513 q 388 551 442 551 q 309 535 338 551 q 268 480 281 519 q 256 369 256 440 z "},"Ǻ":{"ha":849,"x_min":8,"x_max":831,"o":"m 279 1208 q 599 1324 444 1263 l 617 1317 l 653 1179 l 643 1161 q 319 1104 511 1135 l 300 1113 l 279 1208 m 601 0 l 578 125 l 564 176 l 406 179 l 265 175 l 254 139 l 229 0 l 8 0 l 308 869 q 292 944 292 899 q 329 1050 292 1014 q 438 1086 367 1086 q 540 1051 506 1086 q 575 953 575 1017 q 557 872 575 904 l 831 0 l 601 0 m 432 996 q 381 949 381 996 q 435 896 381 896 q 486 944 486 896 q 432 996 486 996 m 436 671 l 421 671 l 317 340 l 419 339 l 522 340 l 436 671 z "},"ǻ":{"ha":746,"x_min":18,"x_max":718,"o":"m 229 1201 q 549 1317 394 1256 l 567 1310 l 603 1172 l 593 1154 q 269 1097 461 1128 l 250 1106 l 229 1201 m 242 938 q 279 1043 242 1007 q 388 1079 317 1079 q 490 1044 456 1079 q 525 946 525 1010 q 487 838 525 876 q 379 800 449 800 q 277 835 313 800 q 242 938 242 871 m 436 938 q 382 989 436 989 q 331 942 331 989 q 385 889 331 889 q 436 938 436 889 m 506 0 l 486 113 l 483 124 l 354 126 l 243 124 l 222 0 l 18 0 l 254 706 l 504 706 l 718 0 l 506 0 m 381 518 l 368 518 l 292 279 l 367 278 l 443 279 l 381 518 z "},"Ǽ":{"ha":1153,"x_min":-26,"x_max":1146,"o":"m 1131 0 l 564 0 l 557 129 l 540 281 l 267 203 l 240 143 l 196 0 l -26 0 l 385 896 l 1042 896 l 1056 879 l 1039 713 l 826 721 l 713 721 l 735 508 l 990 579 l 1006 567 l 1025 410 l 751 339 l 768 175 l 904 175 l 1132 183 l 1146 167 l 1131 0 m 496 690 l 482 690 l 354 401 l 522 449 l 496 690 m 914 1114 l 907 1096 q 596 992 778 1049 l 575 997 l 540 1089 q 839 1250 690 1163 l 858 1246 l 914 1114 z "},"ǽ":{"ha":994,"x_min":-10,"x_max":982,"o":"m 969 0 l 489 0 l 483 107 l 471 210 l 226 142 l 215 118 l 179 0 l -10 0 l 338 706 l 894 706 l 907 690 l 893 549 l 713 557 l 617 557 l 635 403 l 851 461 l 864 450 l 881 314 l 650 257 l 663 150 l 776 150 l 971 157 l 982 143 l 969 0 m 433 531 l 421 531 l 313 314 l 454 353 l 433 531 m 796 956 l 792 936 q 506 776 654 857 l 486 778 l 435 861 q 697 1078 581 972 l 717 1076 l 796 956 z "},"Ǿ":{"ha":899,"x_min":33,"x_max":867,"o":"m 731 826 q 867 469 867 711 q 753 111 867 238 q 433 -15 640 -15 q 328 -4 379 -15 l 244 -176 l 104 -125 l 94 -106 l 176 65 q 33 435 33 181 q 147 786 33 663 q 468 910 260 910 q 581 897 529 910 l 658 1057 l 794 1006 l 807 983 l 731 826 m 451 156 q 556 181 517 156 q 613 265 594 207 q 631 422 631 322 q 613 605 631 539 q 555 700 594 671 q 447 729 515 729 q 342 704 381 729 q 285 622 303 679 q 268 465 268 564 q 286 281 268 347 q 344 185 304 214 q 451 156 383 156 m 664 1117 l 657 1099 q 346 994 528 1051 l 325 1000 l 290 1092 q 589 1253 440 1165 l 608 1249 l 664 1117 z "},"ǿ":{"ha":781,"x_min":38,"x_max":744,"o":"m 650 633 q 744 371 744 542 q 648 87 744 188 q 375 -14 551 -14 q 285 -6 326 -14 l 192 -167 l 67 -104 l 61 -86 l 146 60 q 38 342 38 153 q 134 619 38 521 q 407 718 231 718 q 515 706 468 718 l 594 839 l 714 778 l 724 758 l 650 633 m 393 144 q 473 160 444 144 q 514 215 501 176 q 526 326 526 254 q 513 464 526 415 q 471 532 500 513 q 388 551 442 551 q 309 535 338 551 q 268 480 281 519 q 256 369 256 440 q 269 231 256 279 q 311 164 282 183 q 393 144 340 144 m 588 960 l 583 940 q 297 781 446 861 l 278 782 l 226 865 q 489 1082 372 976 l 508 1081 l 588 960 z "},"Ș":{"ha":708,"x_min":36,"x_max":668,"o":"m 407 910 q 649 863 528 910 l 613 674 l 581 661 q 474 715 528 696 q 383 735 421 735 q 309 712 336 735 q 282 658 282 689 q 316 599 282 624 q 424 542 350 575 q 549 476 501 506 q 633 396 597 446 q 668 274 668 346 q 624 128 668 193 q 501 24 581 63 q 315 -14 421 -14 q 36 42 174 -14 l 68 243 l 92 257 q 219 181 150 208 q 339 154 288 154 q 417 178 390 154 q 444 233 444 201 q 410 296 444 271 q 301 354 375 321 q 178 419 226 389 q 96 499 131 449 q 61 621 61 549 q 105 769 61 703 q 227 872 149 835 q 407 910 306 910 m 400 -47 q 457 -161 457 -94 q 293 -396 457 -281 l 232 -342 l 231 -328 q 299 -203 299 -269 q 258 -122 299 -157 l 260 -106 q 400 -47 331 -65 z "},"ș":{"ha":632,"x_min":44,"x_max":578,"o":"m 360 718 q 563 682 461 718 l 532 501 l 501 494 q 410 544 457 526 q 332 563 364 563 q 287 549 303 563 q 271 517 271 536 q 294 478 271 493 q 375 439 318 463 q 477 392 436 415 q 548 328 518 369 q 578 224 578 286 q 547 107 578 161 q 448 19 515 53 q 281 -14 381 -14 q 44 28 160 -14 l 74 215 l 94 231 q 203 162 143 188 q 307 136 263 136 q 354 150 336 136 q 372 185 372 164 q 349 224 372 208 q 268 263 325 239 q 165 311 206 288 q 94 376 124 335 q 64 482 64 418 q 99 602 64 549 q 201 687 135 656 q 360 718 268 718 m 346 -47 q 403 -161 403 -94 q 239 -396 403 -281 l 178 -342 l 176 -328 q 244 -203 244 -269 q 204 -122 244 -157 l 206 -106 q 346 -47 276 -65 z "},"Ț":{"ha":708,"x_min":17,"x_max":693,"o":"m 679 714 l 506 722 l 467 722 l 460 288 l 468 0 l 243 0 l 256 265 l 249 722 l 207 722 l 31 714 l 17 731 l 31 896 l 679 896 l 693 879 l 679 714 m 411 -47 q 468 -161 468 -94 q 304 -396 468 -281 l 243 -342 l 242 -328 q 310 -203 310 -269 q 269 -122 310 -157 l 271 -106 q 411 -47 342 -65 z "},"ț":{"ha":626,"x_min":25,"x_max":599,"o":"m 588 535 l 439 543 l 415 543 l 410 228 l 418 0 l 210 0 l 219 207 l 214 543 l 188 543 l 38 535 l 25 550 l 38 706 l 588 706 l 599 690 l 588 535 m 369 -47 q 426 -161 426 -94 q 263 -396 426 -281 l 201 -342 l 200 -328 q 268 -203 268 -269 q 228 -122 268 -157 l 229 -106 q 369 -47 300 -65 z "},"ȷ":{"ha":456,"x_min":22,"x_max":357,"o":"m 349 135 q 326 22 349 68 q 252 -60 304 -25 q 107 -129 200 -96 l 46 -24 l 46 -7 q 131 52 107 21 q 156 133 156 83 l 156 211 l 150 553 l 35 550 l 22 563 l 35 706 l 357 706 l 347 232 l 349 135 z "},"ˆ":{"ha":539,"x_min":39,"x_max":499,"o":"m 39 814 q 247 1015 125 890 l 290 1015 q 499 814 383 918 l 444 732 l 424 732 q 269 851 317 808 q 115 732 225 814 l 93 732 l 39 814 z "},"ˇ":{"ha":539,"x_min":39,"x_max":499,"o":"m 499 931 q 290 729 413 854 l 247 729 q 39 931 154 826 l 93 1013 l 114 1013 q 268 893 221 936 q 422 1013 313 931 l 444 1013 l 499 931 z "},"ˉ":{"ha":539,"x_min":65,"x_max":476,"o":"m 465 797 l 79 797 l 65 813 l 75 935 l 463 935 l 476 919 l 465 797 z "},"˘":{"ha":539,"x_min":46,"x_max":494,"o":"m 494 919 q 414 790 472 840 q 264 739 356 739 q 119 790 174 739 q 46 919 65 842 l 93 990 l 124 990 q 271 893 164 893 q 415 990 379 893 l 447 990 l 494 919 z "},"˙":{"ha":363,"x_min":68,"x_max":293,"o":"m 185 982 q 265 953 236 982 q 293 872 293 924 q 261 784 293 817 q 176 751 229 751 q 96 781 124 751 q 68 863 68 810 q 99 949 68 917 q 185 982 131 982 z "},"˚":{"ha":539,"x_min":128,"x_max":411,"o":"m 274 1024 q 376 989 342 1024 q 411 890 411 954 q 373 783 411 821 q 265 744 335 744 q 163 780 199 744 q 128 882 128 815 q 165 988 128 951 q 274 1024 203 1024 m 268 933 q 217 886 217 933 q 271 833 217 833 q 322 882 322 833 q 268 933 322 933 z "},"˛":{"ha":539,"x_min":122,"x_max":404,"o":"m 260 -44 q 238 -107 238 -81 q 289 -157 238 -157 q 376 -121 329 -157 l 389 -121 l 404 -207 q 257 -274 325 -274 q 159 -237 196 -274 q 122 -146 122 -201 q 165 -28 122 -87 l 257 99 l 354 99 l 260 -44 z "},"˜":{"ha":539,"x_min":14,"x_max":524,"o":"m 524 915 l 421 778 l 401 769 q 286 796 382 772 q 188 818 213 818 q 153 804 169 818 q 120 771 136 790 q 97 743 104 751 l 78 743 l 14 807 l 14 825 l 117 963 l 136 969 q 257 942 167 965 q 350 921 331 921 q 384 935 368 921 q 416 968 400 949 q 440 997 432 988 l 460 997 l 524 933 l 524 915 z "},"˝":{"ha":539,"x_min":18,"x_max":522,"o":"m 18 778 q 183 1026 118 922 l 199 1031 l 300 960 l 303 943 q 103 729 210 836 l 85 724 l 18 778 m 236 778 q 403 1026 313 885 l 418 1031 l 519 960 l 522 943 q 321 729 439 847 l 303 724 l 236 778 z "},"̃":{"ha":0,"x_min":14,"x_max":524,"o":"m 524 915 l 419 776 l 400 769 q 288 796 386 771 q 188 818 201 818 q 153 804 169 818 q 120 771 136 790 q 97 743 104 751 l 78 743 l 14 807 l 14 825 l 118 963 l 138 969 q 256 942 169 965 q 350 921 331 921 q 384 935 368 921 q 416 968 400 949 q 440 997 432 988 l 460 997 l 524 933 l 524 915 z "},"̣":{"ha":0,"x_min":54,"x_max":279,"o":"m 171 -89 q 251 -118 222 -89 q 279 -199 279 -147 q 247 -287 279 -254 q 163 -319 215 -319 q 82 -290 110 -319 q 54 -208 54 -261 q 85 -122 54 -154 q 171 -89 117 -89 z "},"̦":{"ha":0,"x_min":32,"x_max":260,"o":"m 203 -35 q 259 -150 259 -84 q 96 -385 259 -270 l 34 -331 l 33 -316 q 101 -192 101 -259 q 61 -111 101 -148 l 62 -94 q 203 -35 136 -54 z "},"Δ":{"ha":849,"x_min":8,"x_max":831,"o":"m 8 0 l 297 896 l 568 896 l 831 0 l 8 0 m 261 168 l 569 168 l 435 690 l 421 690 l 261 168 z "},"Ω":{"ha":1053,"x_min":26,"x_max":1026,"o":"m 535 910 q 759 862 667 910 q 898 728 851 814 q 944 531 944 643 q 800 174 944 339 l 804 168 l 897 168 l 1015 181 l 1026 167 l 1001 -10 l 831 0 l 629 0 l 578 -4 l 567 4 l 567 136 q 708 486 708 276 q 664 668 708 607 q 522 729 619 729 q 385 671 428 729 q 343 496 343 613 q 483 136 343 285 l 483 4 l 474 -4 l 422 0 l 181 0 l 38 -7 l 26 7 l 51 178 l 182 167 l 247 168 l 250 174 q 107 515 107 332 q 157 719 107 631 q 303 859 207 808 q 535 910 400 910 z "},"μ":{"ha":732,"x_min":68,"x_max":713,"o":"m 690 25 q 582 -11 642 -11 q 501 13 532 -11 q 451 90 471 36 l 442 90 q 306 -8 376 15 q 276 -7 286 -8 l 276 -257 l 69 -257 l 76 265 l 68 636 l 276 653 l 276 257 q 350 167 276 167 q 444 208 397 167 l 444 636 l 653 653 l 640 189 q 668 144 640 144 q 699 153 681 144 l 713 140 l 690 25 z "},"π":{"ha":963,"x_min":-10,"x_max":904,"o":"m 778 189 q 806 144 778 144 q 847 154 821 144 l 863 142 l 839 25 q 731 -11 774 -11 q 624 28 665 -11 q 582 157 582 68 l 582 531 l 426 531 l 426 288 l 433 -122 l 219 -122 l 226 265 l 221 531 l 211 531 q 167 512 189 531 q 110 451 146 493 q 78 415 108 450 l 56 415 l -10 499 l -10 521 l 125 693 l 150 706 l 729 706 l 892 708 l 904 692 l 890 528 l 785 529 l 778 189 z "},"Ẁ":{"ha":1260,"x_min":25,"x_max":1256,"o":"m 513 1250 q 811 1089 661 1163 l 776 997 l 756 992 q 444 1096 574 1049 l 438 1114 l 493 1246 l 513 1250 m 736 0 l 624 386 l 608 386 l 497 0 l 258 0 l 25 896 l 244 896 l 258 774 l 388 229 l 401 229 l 533 682 l 476 896 l 704 896 l 725 751 l 858 229 l 874 229 l 1025 761 l 1049 896 l 1256 896 l 974 0 l 736 0 z "},"ẁ":{"ha":1078,"x_min":35,"x_max":1068,"o":"m 433 1081 q 696 864 550 975 l 644 781 l 625 779 q 339 939 476 860 l 335 958 l 414 1079 l 433 1081 m 615 0 l 535 263 l 522 263 l 444 0 l 218 0 l 35 706 l 242 706 l 253 599 l 340 215 l 354 215 l 450 542 l 408 706 l 624 706 l 640 576 l 732 215 l 746 215 l 851 586 l 872 706 l 1068 706 l 842 0 l 615 0 z "},"Ẃ":{"ha":1260,"x_min":25,"x_max":1257,"o":"m 736 0 l 624 386 l 610 386 l 499 0 l 260 0 l 25 896 l 244 896 l 258 774 l 388 229 l 401 229 l 533 682 l 478 896 l 706 896 l 725 751 l 860 229 l 874 229 l 1025 761 l 1049 896 l 1257 896 l 974 0 l 736 0 m 836 1114 l 829 1096 q 518 992 700 1049 l 497 997 l 463 1089 q 761 1250 613 1163 l 781 1246 l 836 1114 z "},"ẃ":{"ha":1078,"x_min":35,"x_max":1068,"o":"m 615 0 l 535 263 l 522 263 l 444 0 l 218 0 l 35 706 l 242 706 l 253 599 l 340 215 l 353 215 l 450 542 l 408 706 l 624 706 l 639 576 l 732 215 l 746 215 l 851 586 l 872 706 l 1068 706 l 840 0 l 615 0 m 728 958 l 724 939 q 438 779 586 860 l 418 781 l 367 864 q 629 1081 513 975 l 649 1079 l 728 958 z "},"Ẅ":{"ha":1260,"x_min":25,"x_max":1256,"o":"m 500 1215 q 572 1189 546 1215 q 597 1117 597 1163 q 569 1038 597 1067 q 493 1008 542 1008 q 420 1034 446 1008 q 394 1107 394 1060 q 423 1186 394 1157 q 500 1215 451 1215 m 753 1215 q 824 1189 799 1215 q 850 1117 850 1163 q 822 1038 850 1067 q 746 1008 794 1008 q 673 1034 699 1008 q 647 1107 647 1060 q 676 1186 647 1157 q 753 1215 704 1215 m 736 0 l 624 386 l 608 386 l 497 0 l 258 0 l 25 896 l 244 896 l 258 774 l 388 229 l 401 229 l 533 682 l 476 896 l 704 896 l 725 751 l 858 229 l 874 229 l 1025 761 l 1049 896 l 1256 896 l 974 0 l 736 0 z "},"ẅ":{"ha":1078,"x_min":35,"x_max":1068,"o":"m 394 1026 q 466 1000 440 1026 q 492 928 492 974 q 464 849 492 878 q 388 819 436 819 q 315 845 340 819 q 289 918 289 871 q 317 997 289 968 q 394 1026 346 1026 m 647 1026 q 719 1000 693 1026 q 744 928 744 974 q 717 849 744 878 q 640 819 689 819 q 567 845 593 819 q 542 918 542 871 q 570 997 542 968 q 647 1026 599 1026 m 615 0 l 535 263 l 522 263 l 444 0 l 218 0 l 35 706 l 242 706 l 253 599 l 340 215 l 354 215 l 450 542 l 408 706 l 624 706 l 640 576 l 732 215 l 746 215 l 851 586 l 872 706 l 1068 706 l 842 0 l 615 0 z "},"ẞ":{"ha":953,"x_min":75,"x_max":935,"o":"m 483 910 q 667 886 579 910 q 861 813 754 863 l 871 783 l 686 532 q 833 440 785 475 q 908 360 882 404 q 935 251 935 315 q 892 106 935 165 q 776 16 849 46 q 615 -14 704 -14 q 367 42 482 -14 l 399 243 l 422 257 q 531 183 476 210 q 629 156 586 156 q 689 175 667 156 q 711 225 711 194 q 649 313 711 268 q 425 433 588 358 l 418 464 l 593 704 q 465 731 526 731 q 338 691 378 731 q 299 569 297 651 l 293 288 l 301 0 l 75 0 l 88 264 l 82 569 q 185 818 81 726 q 483 910 289 910 z "},"Ạ":{"ha":849,"x_min":8,"x_max":831,"o":"m 601 0 l 578 129 l 565 181 l 406 183 l 265 179 l 254 143 l 229 0 l 8 0 l 299 896 l 568 896 l 831 0 l 601 0 m 436 690 l 421 690 l 317 350 l 419 347 l 522 350 l 436 690 m 422 -61 q 502 -90 474 -61 q 531 -171 531 -119 q 499 -259 531 -226 q 414 -292 467 -292 q 333 -262 361 -292 q 306 -181 306 -233 q 337 -94 306 -126 q 422 -61 368 -61 z "},"ạ":{"ha":746,"x_min":18,"x_max":718,"o":"m 506 0 l 486 113 l 483 124 l 354 126 l 243 124 l 222 0 l 18 0 l 254 706 l 504 706 l 718 0 l 506 0 m 381 518 l 368 518 l 292 279 l 367 278 l 443 279 l 381 518 m 371 -61 q 451 -90 422 -61 q 479 -171 479 -119 q 447 -259 479 -226 q 363 -292 415 -292 q 282 -262 310 -292 q 254 -181 254 -233 q 285 -94 254 -126 q 371 -61 317 -61 z "},"Ả":{"ha":849,"x_min":8,"x_max":831,"o":"m 601 0 l 578 129 l 565 181 l 404 183 l 265 179 l 254 143 l 229 0 l 8 0 l 297 896 l 568 896 l 831 0 l 601 0 m 435 690 l 421 690 l 317 350 l 419 347 l 522 350 l 435 690 m 411 1293 q 498 1263 463 1293 q 533 1185 533 1232 q 516 1130 533 1156 q 453 1064 499 1104 l 488 1008 l 411 963 l 346 1063 q 399 1115 379 1088 q 419 1164 419 1143 q 379 1196 419 1196 q 288 1161 331 1196 l 253 1217 q 411 1293 322 1293 z "},"ả":{"ha":746,"x_min":18,"x_max":717,"o":"m 506 0 l 486 113 l 483 124 l 354 126 l 243 124 l 222 0 l 18 0 l 253 706 l 503 706 l 717 0 l 506 0 m 381 518 l 368 518 l 292 279 l 367 278 l 443 279 l 381 518 m 368 1103 q 455 1072 419 1103 q 490 994 490 1042 q 473 940 490 965 q 410 874 456 914 l 444 818 l 368 772 l 303 872 q 356 925 336 897 q 376 974 376 953 q 336 1006 376 1006 q 244 971 288 1006 l 210 1026 q 368 1103 279 1103 z "},"Ấ":{"ha":849,"x_min":8,"x_max":831,"o":"m 601 0 l 578 129 l 565 181 l 404 183 l 265 179 l 254 143 l 229 0 l 8 0 l 297 896 l 568 896 l 831 0 l 601 0 m 435 690 l 421 690 l 317 350 l 419 347 l 522 350 l 435 690 m 733 1351 l 593 1165 l 579 1165 l 506 1221 l 603 1407 l 618 1414 l 728 1367 l 733 1351 m 208 1067 q 404 1219 314 1138 l 446 1219 q 643 1067 540 1135 l 604 979 l 583 979 l 425 1065 q 331 1013 449 1079 l 268 979 l 247 979 l 208 1067 z "},"ấ":{"ha":746,"x_min":18,"x_max":717,"o":"m 506 0 l 486 113 l 483 124 l 354 126 l 243 124 l 222 0 l 18 0 l 253 706 l 503 706 l 717 0 l 506 0 m 381 518 l 368 518 l 292 279 l 367 278 l 443 279 l 381 518 m 689 1163 l 549 976 l 535 976 l 461 1032 l 558 1218 l 574 1225 l 683 1178 l 689 1163 m 164 878 q 360 1031 269 949 l 401 1031 q 599 878 496 946 l 560 790 l 539 790 l 381 876 q 286 824 404 890 l 224 790 l 203 790 l 164 878 z "},"Ầ":{"ha":849,"x_min":8,"x_max":831,"o":"m 601 0 l 578 129 l 565 181 l 404 183 l 265 179 l 254 143 l 229 0 l 8 0 l 297 896 l 568 896 l 831 0 l 601 0 m 435 690 l 421 690 l 317 350 l 419 347 l 522 350 l 435 690 m 668 1221 l 594 1165 l 581 1165 l 440 1351 l 446 1367 l 556 1414 l 571 1407 l 668 1221 m 208 1067 q 404 1219 314 1138 l 446 1219 q 643 1067 540 1135 l 604 979 l 583 979 l 425 1065 q 331 1013 449 1079 l 268 979 l 247 979 l 208 1067 z "},"ầ":{"ha":746,"x_min":18,"x_max":717,"o":"m 506 0 l 486 113 l 483 124 l 354 126 l 243 124 l 222 0 l 18 0 l 253 706 l 503 706 l 717 0 l 506 0 m 381 518 l 368 518 l 292 279 l 367 278 l 443 279 l 381 518 m 624 1032 l 550 976 l 536 976 l 396 1163 l 401 1178 l 511 1225 l 526 1218 l 624 1032 m 164 878 q 360 1031 269 949 l 401 1031 q 599 878 496 946 l 560 790 l 539 790 l 381 876 q 286 824 404 890 l 224 790 l 203 790 l 164 878 z "},"Ẩ":{"ha":849,"x_min":8,"x_max":831,"o":"m 543 1385 q 456 1351 497 1385 l 422 1404 q 574 1478 492 1478 q 657 1449 624 1478 q 690 1375 690 1421 q 674 1322 690 1347 q 614 1260 657 1297 l 646 1207 l 574 1164 l 511 1258 q 563 1308 543 1282 q 582 1354 582 1335 q 543 1385 582 1385 m 208 1067 q 404 1219 314 1138 l 446 1219 q 643 1067 540 1135 l 604 979 l 583 979 l 425 1065 q 331 1013 449 1079 l 268 979 l 247 979 l 208 1067 m 601 0 l 578 129 l 565 181 l 406 183 l 265 179 l 254 143 l 229 0 l 8 0 l 299 896 l 568 896 l 831 0 l 601 0 m 436 690 l 421 690 l 317 350 l 419 347 l 522 350 l 436 690 z "},"ẩ":{"ha":746,"x_min":18,"x_max":718,"o":"m 499 1196 q 411 1163 453 1196 l 378 1215 q 529 1289 447 1289 q 613 1260 579 1289 q 646 1186 646 1232 q 629 1133 646 1158 q 569 1071 613 1108 l 601 1018 l 529 975 l 467 1069 q 518 1119 499 1093 q 538 1165 538 1146 q 499 1196 538 1196 m 164 878 q 360 1031 269 949 l 401 1031 q 599 878 496 946 l 560 790 l 539 790 l 381 876 q 286 824 404 890 l 224 790 l 203 790 l 164 878 m 506 0 l 486 113 l 483 124 l 354 126 l 243 124 l 222 0 l 18 0 l 254 706 l 504 706 l 718 0 l 506 0 m 381 518 l 368 518 l 292 279 l 367 278 l 443 279 l 381 518 z "},"Ẫ":{"ha":849,"x_min":8,"x_max":831,"o":"m 197 1278 l 197 1294 l 292 1422 l 310 1429 q 419 1404 338 1425 q 506 1385 492 1385 q 538 1398 522 1385 q 569 1429 554 1411 q 589 1454 583 1447 l 607 1454 l 667 1396 l 667 1378 l 571 1251 l 553 1244 q 440 1271 515 1249 q 357 1289 376 1289 q 326 1276 340 1289 q 296 1246 311 1264 q 274 1219 281 1228 l 257 1219 l 197 1278 m 446 1219 q 643 1067 540 1135 l 604 979 l 583 979 l 425 1065 q 331 1013 449 1079 l 268 979 l 247 979 l 208 1067 q 404 1219 314 1138 l 446 1219 m 601 0 l 578 129 l 565 181 l 406 183 l 265 179 l 254 143 l 229 0 l 8 0 l 299 896 l 568 896 l 831 0 l 601 0 m 436 690 l 421 690 l 317 350 l 419 347 l 522 350 l 436 690 z "},"ẫ":{"ha":746,"x_min":18,"x_max":718,"o":"m 153 1089 l 153 1106 l 247 1233 l 265 1240 q 375 1215 293 1236 q 461 1196 447 1196 q 494 1209 478 1196 q 524 1240 510 1222 q 544 1265 539 1258 l 563 1265 l 622 1207 l 622 1189 l 526 1063 l 508 1056 q 396 1082 471 1060 q 313 1100 332 1100 q 281 1088 296 1100 q 251 1057 267 1075 q 229 1031 236 1039 l 213 1031 l 153 1089 m 401 1031 q 599 878 496 946 l 560 790 l 539 790 l 381 876 q 286 824 404 890 l 224 790 l 203 790 l 164 878 q 360 1031 269 949 l 401 1031 m 506 0 l 486 113 l 483 124 l 354 126 l 243 124 l 222 0 l 18 0 l 254 706 l 504 706 l 718 0 l 506 0 m 381 518 l 368 518 l 292 279 l 367 278 l 443 279 l 381 518 z "},"Ậ":{"ha":849,"x_min":8,"x_max":831,"o":"m 208 1094 q 404 1247 314 1165 l 446 1247 q 643 1094 540 1163 l 604 1007 l 583 1007 l 425 1093 q 331 1040 449 1107 l 268 1007 l 247 1007 l 208 1094 m 601 0 l 578 129 l 565 181 l 406 183 l 265 179 l 254 143 l 229 0 l 8 0 l 299 896 l 568 896 l 831 0 l 601 0 m 436 690 l 421 690 l 317 350 l 419 347 l 522 350 l 436 690 m 422 -61 q 502 -90 474 -61 q 531 -171 531 -119 q 499 -259 531 -226 q 414 -292 467 -292 q 333 -262 361 -292 q 306 -181 306 -233 q 337 -94 306 -126 q 422 -61 368 -61 z "},"ậ":{"ha":746,"x_min":18,"x_max":718,"o":"m 153 872 q 361 1074 239 949 l 404 1074 q 613 872 497 976 l 558 790 l 538 790 q 383 910 431 867 q 229 790 339 872 l 207 790 l 153 872 m 506 0 l 486 113 l 483 124 l 354 126 l 243 124 l 222 0 l 18 0 l 254 706 l 504 706 l 718 0 l 506 0 m 381 518 l 368 518 l 292 279 l 367 278 l 443 279 l 381 518 m 371 -61 q 451 -90 422 -61 q 479 -171 479 -119 q 447 -259 479 -226 q 363 -292 415 -292 q 282 -262 310 -292 q 254 -181 254 -233 q 285 -94 254 -126 q 371 -61 317 -61 z "},"Ắ":{"ha":849,"x_min":8,"x_max":831,"o":"m 601 0 l 578 129 l 565 181 l 404 183 l 265 179 l 254 143 l 229 0 l 8 0 l 297 896 l 568 896 l 831 0 l 601 0 m 435 690 l 421 690 l 317 350 l 419 347 l 522 350 l 435 690 m 603 1338 q 438 1181 522 1258 l 419 1176 l 353 1229 q 483 1415 442 1351 l 499 1419 l 600 1354 l 603 1338 m 651 1128 q 565 1010 624 1051 q 424 969 506 969 q 286 1010 343 969 q 203 1128 229 1051 l 250 1196 l 281 1196 q 431 1122 324 1122 q 572 1196 531 1122 l 604 1196 l 651 1128 z "},"ắ":{"ha":746,"x_min":18,"x_max":717,"o":"m 506 0 l 486 113 l 483 124 l 354 126 l 243 124 l 222 0 l 18 0 l 253 706 l 503 706 l 717 0 l 506 0 m 381 518 l 368 518 l 292 279 l 367 278 l 443 279 l 381 518 m 558 1149 q 393 992 478 1069 l 375 988 l 308 1040 q 439 1226 397 1163 l 454 1231 l 556 1165 l 558 1149 m 607 939 q 520 822 579 863 q 379 781 461 781 q 242 822 299 781 q 158 939 185 863 l 206 1007 l 236 1007 q 386 933 279 933 q 528 1007 486 933 l 560 1007 l 607 939 z "},"Ằ":{"ha":849,"x_min":8,"x_max":831,"o":"m 601 0 l 578 129 l 565 181 l 404 183 l 265 179 l 254 143 l 229 0 l 8 0 l 297 896 l 568 896 l 831 0 l 601 0 m 435 690 l 421 690 l 317 350 l 419 347 l 522 350 l 435 690 m 374 1415 q 504 1229 415 1351 l 438 1176 l 419 1181 q 254 1338 335 1257 l 257 1354 l 358 1419 l 374 1415 m 651 1128 q 565 1010 624 1051 q 424 969 506 969 q 286 1010 343 969 q 203 1128 229 1051 l 250 1196 l 281 1196 q 431 1122 324 1122 q 572 1196 531 1122 l 604 1196 l 651 1128 z "},"ằ":{"ha":746,"x_min":18,"x_max":717,"o":"m 506 0 l 486 113 l 483 124 l 354 126 l 243 124 l 222 0 l 18 0 l 253 706 l 503 706 l 717 0 l 506 0 m 381 518 l 368 518 l 292 279 l 367 278 l 443 279 l 381 518 m 329 1226 q 460 1040 371 1163 l 393 988 l 375 992 q 210 1149 290 1068 l 213 1165 l 314 1231 l 329 1226 m 607 939 q 520 822 579 863 q 379 781 461 781 q 242 822 299 781 q 158 939 185 863 l 206 1007 l 236 1007 q 386 933 279 933 q 528 1007 486 933 l 560 1007 l 607 939 z "},"Ẳ":{"ha":849,"x_min":8,"x_max":831,"o":"m 386 1401 q 294 1367 338 1401 l 260 1422 q 418 1499 329 1499 q 505 1468 469 1499 q 540 1390 540 1438 q 523 1335 540 1361 q 460 1269 506 1310 l 494 1214 l 418 1168 l 353 1268 q 406 1321 386 1293 q 426 1369 426 1349 q 386 1401 426 1401 m 424 969 q 286 1010 343 969 q 203 1128 229 1051 l 250 1196 l 281 1196 q 431 1122 324 1122 q 572 1196 531 1122 l 604 1196 l 651 1128 q 565 1010 624 1051 q 424 969 506 969 m 601 0 l 578 129 l 565 181 l 406 183 l 265 179 l 254 143 l 229 0 l 8 0 l 299 896 l 568 896 l 831 0 l 601 0 m 436 690 l 421 690 l 317 350 l 419 347 l 522 350 l 436 690 z "},"ẳ":{"ha":746,"x_min":18,"x_max":718,"o":"m 342 1213 q 250 1178 293 1213 l 215 1233 q 374 1310 285 1310 q 460 1279 425 1310 q 496 1201 496 1249 q 478 1147 496 1172 q 415 1081 461 1121 l 450 1025 l 374 979 l 308 1079 q 362 1132 342 1104 q 382 1181 382 1160 q 342 1213 382 1213 m 379 781 q 242 822 299 781 q 158 939 185 863 l 206 1007 l 236 1007 q 386 933 279 933 q 528 1007 486 933 l 560 1007 l 607 939 q 520 822 579 863 q 379 781 461 781 m 506 0 l 486 113 l 483 124 l 354 126 l 243 124 l 222 0 l 18 0 l 254 706 l 504 706 l 718 0 l 506 0 m 381 518 l 368 518 l 292 279 l 367 278 l 443 279 l 381 518 z "},"Ẵ":{"ha":849,"x_min":8,"x_max":831,"o":"m 197 1278 l 197 1294 l 292 1422 l 310 1429 q 419 1404 338 1425 q 506 1385 492 1385 q 538 1398 522 1385 q 569 1429 554 1411 q 589 1454 583 1447 l 607 1454 l 667 1396 l 667 1378 l 571 1251 l 553 1244 q 440 1271 515 1249 q 357 1289 376 1289 q 326 1276 340 1289 q 296 1246 311 1264 q 274 1219 281 1228 l 257 1219 l 197 1278 m 435 1114 q 569 1185 531 1114 l 599 1185 l 643 1119 q 561 1009 617 1047 q 428 971 506 971 q 297 1009 351 971 q 219 1119 243 1047 l 264 1185 l 293 1185 q 435 1114 333 1114 m 601 0 l 578 129 l 565 181 l 406 183 l 265 179 l 254 143 l 229 0 l 8 0 l 299 896 l 568 896 l 831 0 l 601 0 m 436 690 l 421 690 l 317 350 l 419 347 l 522 350 l 436 690 z "},"ẵ":{"ha":746,"x_min":18,"x_max":718,"o":"m 153 1089 l 153 1106 l 247 1233 l 265 1240 q 375 1215 293 1236 q 461 1196 447 1196 q 494 1209 478 1196 q 524 1240 510 1222 q 544 1265 539 1258 l 563 1265 l 622 1207 l 622 1189 l 526 1063 l 508 1056 q 396 1082 471 1060 q 313 1100 332 1100 q 281 1088 296 1100 q 251 1057 267 1075 q 229 1031 236 1039 l 213 1031 l 153 1089 m 390 925 q 525 996 486 925 l 554 996 l 599 931 q 517 820 572 858 q 383 782 461 782 q 253 820 307 782 q 175 931 199 858 l 219 996 l 249 996 q 390 925 289 925 m 506 0 l 486 113 l 483 124 l 354 126 l 243 124 l 222 0 l 18 0 l 254 706 l 504 706 l 718 0 l 506 0 m 381 518 l 368 518 l 292 279 l 367 278 l 443 279 l 381 518 z "},"Ặ":{"ha":849,"x_min":8,"x_max":831,"o":"m 422 997 q 285 1038 342 997 q 201 1156 228 1079 l 250 1224 l 281 1224 q 431 1150 322 1150 q 572 1224 531 1150 l 603 1224 l 651 1156 q 564 1038 624 1079 q 422 997 504 997 m 601 0 l 578 129 l 565 181 l 406 183 l 265 179 l 254 143 l 229 0 l 8 0 l 299 896 l 568 896 l 831 0 l 601 0 m 436 690 l 421 690 l 317 350 l 419 347 l 522 350 l 436 690 m 422 -61 q 502 -90 474 -61 q 531 -171 531 -119 q 499 -259 531 -226 q 414 -292 467 -292 q 333 -262 361 -292 q 306 -181 306 -233 q 337 -94 306 -126 q 422 -61 368 -61 z "},"ặ":{"ha":746,"x_min":18,"x_max":718,"o":"m 378 796 q 233 847 288 796 q 160 976 179 899 l 207 1047 l 238 1047 q 385 950 278 950 q 529 1047 493 950 l 561 1047 l 608 976 q 528 847 586 897 q 378 796 469 796 m 506 0 l 486 113 l 483 124 l 354 126 l 243 124 l 222 0 l 18 0 l 254 706 l 504 706 l 718 0 l 506 0 m 381 518 l 368 518 l 292 279 l 367 278 l 443 279 l 381 518 m 371 -61 q 451 -90 422 -61 q 479 -171 479 -119 q 447 -259 479 -226 q 363 -292 415 -292 q 282 -262 310 -292 q 254 -181 254 -233 q 285 -94 254 -126 q 371 -61 317 -61 z "},"Ẹ":{"ha":725,"x_min":97,"x_max":708,"o":"m 703 167 l 689 0 l 97 0 l 110 265 l 97 896 l 696 896 l 708 879 l 693 713 l 476 721 l 322 719 l 319 540 l 467 540 l 613 544 l 625 528 l 611 361 l 451 365 l 315 365 l 314 288 l 318 176 l 465 175 l 690 183 l 703 167 m 421 -61 q 501 -90 472 -61 q 529 -171 529 -119 q 497 -259 529 -226 q 413 -292 465 -292 q 332 -262 360 -292 q 304 -181 304 -233 q 335 -94 304 -126 q 421 -61 367 -61 z "},"ẹ":{"ha":647,"x_min":90,"x_max":619,"o":"m 614 154 l 600 0 l 90 0 l 100 207 l 90 706 l 608 706 l 619 690 l 607 538 l 424 544 l 299 544 l 296 436 l 415 436 l 536 440 l 549 425 l 535 271 l 401 275 l 292 274 l 290 228 l 293 161 l 410 161 l 601 168 l 614 154 m 358 -61 q 438 -90 410 -61 q 467 -171 467 -119 q 435 -259 467 -226 q 350 -292 403 -292 q 269 -262 297 -292 q 242 -181 242 -233 q 273 -94 242 -126 q 358 -61 304 -61 z "},"Ẻ":{"ha":725,"x_min":97,"x_max":710,"o":"m 703 167 l 689 0 l 97 0 l 110 265 l 97 896 l 697 896 l 710 879 l 694 713 l 476 721 l 324 719 l 321 540 l 467 540 l 613 544 l 625 528 l 611 361 l 451 365 l 317 365 l 315 288 l 318 176 l 465 175 l 690 183 l 703 167 m 383 1293 q 470 1263 435 1293 q 506 1185 506 1232 q 488 1130 506 1156 q 425 1064 471 1104 l 460 1008 l 383 963 l 318 1063 q 372 1115 351 1088 q 392 1164 392 1143 q 351 1196 392 1196 q 260 1161 303 1196 l 225 1217 q 383 1293 294 1293 z "},"ẻ":{"ha":647,"x_min":90,"x_max":619,"o":"m 614 154 l 600 0 l 90 0 l 100 207 l 90 706 l 607 706 l 619 690 l 606 538 l 422 544 l 299 544 l 296 436 l 415 436 l 536 440 l 547 425 l 535 271 l 401 275 l 292 274 l 290 228 l 293 161 l 410 161 l 601 168 l 614 154 m 333 1103 q 420 1072 385 1103 q 456 994 456 1042 q 438 940 456 965 q 375 874 421 914 l 410 818 l 333 772 l 268 872 q 322 925 301 897 q 342 974 342 953 q 301 1006 342 1006 q 210 971 253 1006 l 175 1026 q 333 1103 244 1103 z "},"Ẽ":{"ha":725,"x_min":97,"x_max":710,"o":"m 703 167 l 689 0 l 97 0 l 110 265 l 97 896 l 697 896 l 710 879 l 694 713 l 476 721 l 324 719 l 321 540 l 467 540 l 613 544 l 625 528 l 611 361 l 451 365 l 317 365 l 315 288 l 318 176 l 465 175 l 690 183 l 703 167 m 651 1161 l 549 1024 l 529 1015 q 414 1042 510 1018 q 315 1064 340 1064 q 281 1050 297 1064 q 248 1017 264 1036 q 225 989 232 997 l 206 989 l 142 1053 l 142 1071 l 244 1208 l 264 1215 q 385 1188 294 1211 q 478 1167 458 1167 q 512 1181 496 1167 q 544 1214 528 1194 q 568 1243 560 1233 l 588 1243 l 651 1179 l 651 1161 z "},"ẽ":{"ha":647,"x_min":90,"x_max":619,"o":"m 614 154 l 600 0 l 90 0 l 100 207 l 90 706 l 607 706 l 619 690 l 606 538 l 422 544 l 299 544 l 296 436 l 415 436 l 536 440 l 547 425 l 535 271 l 401 275 l 292 274 l 290 228 l 293 161 l 410 161 l 601 168 l 614 154 m 601 972 l 499 835 l 479 826 q 364 853 460 829 q 265 875 290 875 q 231 861 247 875 q 198 828 214 847 q 175 800 182 808 l 156 800 l 92 864 l 92 882 l 194 1019 l 214 1026 q 335 999 244 1022 q 428 978 408 978 q 462 992 446 978 q 494 1025 478 1006 q 518 1054 510 1044 l 538 1054 l 601 990 l 601 972 z "},"Ế":{"ha":725,"x_min":97,"x_max":710,"o":"m 703 167 l 689 0 l 97 0 l 110 265 l 97 896 l 697 896 l 710 879 l 694 713 l 476 721 l 324 719 l 321 540 l 467 540 l 613 544 l 625 528 l 611 361 l 451 365 l 317 365 l 315 288 l 318 176 l 465 175 l 690 183 l 703 167 m 704 1351 l 564 1165 l 550 1165 l 476 1221 l 574 1407 l 589 1414 l 699 1367 l 704 1351 m 179 1067 q 375 1219 285 1138 l 417 1219 q 614 1067 511 1135 l 575 979 l 554 979 l 396 1065 q 301 1013 419 1079 l 239 979 l 218 979 l 179 1067 z "},"ế":{"ha":647,"x_min":90,"x_max":654,"o":"m 614 154 l 600 0 l 90 0 l 100 207 l 90 706 l 607 706 l 619 690 l 606 538 l 422 544 l 299 544 l 296 436 l 415 436 l 536 440 l 547 425 l 535 271 l 401 275 l 292 274 l 290 228 l 293 161 l 410 161 l 601 168 l 614 154 m 654 1163 l 514 976 l 500 976 l 426 1032 l 524 1218 l 539 1225 l 649 1178 l 654 1163 m 129 878 q 325 1031 235 949 l 367 1031 q 564 878 461 946 l 525 790 l 504 790 l 346 876 q 251 824 369 890 l 189 790 l 168 790 l 129 878 z "},"Ề":{"ha":725,"x_min":97,"x_max":710,"o":"m 703 167 l 689 0 l 97 0 l 110 265 l 97 896 l 697 896 l 710 879 l 694 713 l 476 721 l 324 719 l 321 540 l 467 540 l 613 544 l 625 528 l 611 361 l 451 365 l 317 365 l 315 288 l 318 176 l 465 175 l 690 183 l 703 167 m 639 1221 l 565 1165 l 551 1165 l 411 1351 l 417 1367 l 526 1414 l 542 1407 l 639 1221 m 179 1067 q 375 1219 285 1138 l 417 1219 q 614 1067 511 1135 l 575 979 l 554 979 l 396 1065 q 301 1013 419 1079 l 239 979 l 218 979 l 179 1067 z "},"ề":{"ha":647,"x_min":90,"x_max":619,"o":"m 614 154 l 600 0 l 90 0 l 100 207 l 90 706 l 607 706 l 619 690 l 606 538 l 422 544 l 299 544 l 296 436 l 415 436 l 536 440 l 547 425 l 535 271 l 401 275 l 292 274 l 290 228 l 293 161 l 410 161 l 601 168 l 614 154 m 589 1032 l 515 976 l 501 976 l 361 1163 l 367 1178 l 476 1225 l 492 1218 l 589 1032 m 129 878 q 325 1031 235 949 l 367 1031 q 564 878 461 946 l 525 790 l 504 790 l 346 876 q 251 824 369 890 l 189 790 l 168 790 l 129 878 z "},"Ể":{"ha":725,"x_min":97,"x_max":708,"o":"m 514 1385 q 426 1351 468 1385 l 393 1404 q 544 1478 463 1478 q 628 1449 594 1478 q 661 1375 661 1421 q 644 1322 661 1347 q 585 1260 628 1297 l 617 1207 l 544 1164 l 482 1258 q 533 1308 514 1282 q 553 1354 553 1335 q 514 1385 553 1385 m 179 1067 q 375 1219 285 1138 l 417 1219 q 614 1067 511 1135 l 575 979 l 554 979 l 396 1065 q 301 1013 419 1079 l 239 979 l 218 979 l 179 1067 m 703 167 l 689 0 l 97 0 l 110 265 l 97 896 l 696 896 l 708 879 l 693 713 l 476 721 l 322 719 l 319 540 l 467 540 l 613 544 l 625 528 l 611 361 l 451 365 l 315 365 l 314 288 l 318 176 l 465 175 l 690 183 l 703 167 z "},"ể":{"ha":647,"x_min":90,"x_max":619,"o":"m 464 1196 q 376 1163 418 1196 l 343 1215 q 494 1289 413 1289 q 578 1260 544 1289 q 611 1186 611 1232 q 594 1133 611 1158 q 535 1071 578 1108 l 567 1018 l 494 975 l 432 1069 q 483 1119 464 1093 q 503 1165 503 1146 q 464 1196 503 1196 m 129 878 q 325 1031 235 949 l 367 1031 q 564 878 461 946 l 525 790 l 504 790 l 346 876 q 251 824 369 890 l 189 790 l 168 790 l 129 878 m 614 154 l 600 0 l 90 0 l 100 207 l 90 706 l 608 706 l 619 690 l 607 538 l 424 544 l 299 544 l 296 436 l 415 436 l 536 440 l 549 425 l 535 271 l 401 275 l 292 274 l 290 228 l 293 161 l 410 161 l 601 168 l 614 154 z "},"Ễ":{"ha":725,"x_min":97,"x_max":710,"o":"m 703 167 l 689 0 l 97 0 l 110 265 l 97 896 l 697 896 l 710 879 l 694 713 l 476 721 l 324 719 l 321 540 l 467 540 l 613 544 l 625 528 l 611 361 l 451 365 l 317 365 l 315 288 l 318 176 l 465 175 l 690 183 l 703 167 m 639 1221 l 565 1165 l 551 1165 l 411 1351 l 417 1367 l 526 1414 l 542 1407 l 639 1221 m 179 1067 q 375 1219 285 1138 l 417 1219 q 614 1067 511 1135 l 575 979 l 554 979 l 396 1065 q 301 1013 419 1079 l 239 979 l 218 979 l 179 1067 z "},"ễ":{"ha":647,"x_min":90,"x_max":619,"o":"m 118 1089 l 118 1106 l 213 1233 l 231 1240 q 340 1215 258 1236 q 426 1196 413 1196 q 459 1209 443 1196 q 490 1240 475 1222 q 510 1265 504 1258 l 528 1265 l 588 1207 l 588 1189 l 492 1063 l 474 1056 q 361 1082 436 1060 q 278 1100 297 1100 q 247 1088 261 1100 q 217 1057 232 1075 q 194 1031 201 1039 l 178 1031 l 118 1089 m 367 1031 q 564 878 461 946 l 525 790 l 504 790 l 346 876 q 251 824 369 890 l 189 790 l 168 790 l 129 878 q 325 1031 235 949 l 367 1031 m 614 154 l 600 0 l 90 0 l 100 207 l 90 706 l 608 706 l 619 690 l 607 538 l 424 544 l 299 544 l 296 436 l 415 436 l 536 440 l 549 425 l 535 271 l 401 275 l 292 274 l 290 228 l 293 161 l 410 161 l 601 168 l 614 154 z "},"Ệ":{"ha":725,"x_min":97,"x_max":708,"o":"m 181 1094 q 376 1247 286 1165 l 418 1247 q 615 1094 513 1163 l 576 1007 l 556 1007 l 397 1093 q 303 1040 421 1107 l 240 1007 l 219 1007 l 181 1094 m 703 167 l 689 0 l 97 0 l 110 265 l 97 896 l 696 896 l 708 879 l 693 713 l 476 721 l 322 719 l 319 540 l 467 540 l 613 544 l 625 528 l 611 361 l 451 365 l 315 365 l 314 288 l 318 176 l 465 175 l 690 183 l 703 167 m 421 -61 q 501 -90 472 -61 q 529 -171 529 -119 q 497 -259 529 -226 q 413 -292 465 -292 q 332 -262 360 -292 q 304 -181 304 -233 q 335 -94 304 -126 q 421 -61 367 -61 z "},"ệ":{"ha":647,"x_min":90,"x_max":619,"o":"m 118 872 q 326 1074 204 949 l 369 1074 q 578 872 463 976 l 524 790 l 503 790 q 349 910 396 867 q 194 790 304 872 l 172 790 l 118 872 m 614 154 l 600 0 l 90 0 l 100 207 l 90 706 l 608 706 l 619 690 l 607 538 l 424 544 l 299 544 l 296 436 l 415 436 l 536 440 l 549 425 l 535 271 l 401 275 l 292 274 l 290 228 l 293 161 l 410 161 l 601 168 l 614 154 m 358 -61 q 438 -90 410 -61 q 467 -171 467 -119 q 435 -259 467 -226 q 350 -292 403 -292 q 269 -262 297 -292 q 242 -181 242 -233 q 273 -94 242 -126 q 358 -61 304 -61 z "},"Ỉ":{"ha":428,"x_min":39,"x_max":328,"o":"m 324 0 l 97 0 l 110 265 l 97 896 l 328 896 l 315 288 l 324 0 m 197 1293 q 284 1263 249 1293 q 319 1185 319 1232 q 302 1130 319 1156 q 239 1064 285 1104 l 274 1008 l 197 963 l 132 1063 q 185 1115 165 1088 q 206 1164 206 1143 q 165 1196 206 1196 q 74 1161 117 1196 l 39 1217 q 197 1293 108 1293 z "},"ỉ":{"ha":401,"x_min":29,"x_max":310,"o":"m 299 0 l 90 0 l 100 207 l 90 706 l 303 706 l 290 228 l 299 0 m 188 1103 q 274 1072 239 1103 q 310 994 310 1042 q 292 940 310 965 q 229 874 275 914 l 264 818 l 188 772 l 122 872 q 176 925 156 897 q 196 974 196 953 q 156 1006 196 1006 q 64 971 107 1006 l 29 1026 q 188 1103 99 1103 z "},"Ị":{"ha":428,"x_min":92,"x_max":326,"o":"m 324 0 l 97 0 l 110 265 l 97 896 l 326 896 l 314 288 l 324 0 m 208 -61 q 288 -90 260 -61 q 317 -171 317 -119 q 285 -259 317 -226 q 200 -292 253 -292 q 119 -262 147 -292 q 92 -181 92 -233 q 123 -94 92 -126 q 208 -61 154 -61 z "},"ị":{"ha":401,"x_min":81,"x_max":306,"o":"m 300 0 l 90 0 l 100 207 l 90 706 l 303 706 l 290 228 l 300 0 m 197 -61 q 277 -90 249 -61 q 306 -171 306 -119 q 274 -259 306 -226 q 189 -292 242 -292 q 108 -262 136 -292 q 81 -181 81 -233 q 112 -94 81 -126 q 197 -61 143 -61 z "},"Ọ":{"ha":899,"x_min":33,"x_max":867,"o":"m 468 910 q 763 795 658 910 q 867 469 867 681 q 753 111 867 238 q 433 -15 640 -15 q 138 102 242 -15 q 33 435 33 219 q 147 786 33 663 q 468 910 260 910 m 447 729 q 342 704 381 729 q 285 622 303 679 q 268 465 268 564 q 286 281 268 347 q 344 185 304 214 q 451 156 383 156 q 556 181 517 156 q 613 265 594 207 q 631 422 631 322 q 613 605 631 539 q 555 700 594 671 q 447 729 515 729 m 458 -61 q 538 -90 510 -61 q 567 -171 567 -119 q 535 -259 567 -226 q 450 -292 503 -292 q 369 -262 397 -292 q 342 -181 342 -233 q 373 -94 342 -126 q 458 -61 404 -61 z "},"ọ":{"ha":781,"x_min":38,"x_max":744,"o":"m 407 718 q 656 627 568 718 q 744 371 744 536 q 648 87 744 188 q 375 -14 551 -14 q 126 79 214 -14 q 38 342 38 172 q 134 619 38 521 q 407 718 231 718 m 388 551 q 309 535 338 551 q 268 480 281 519 q 256 369 256 440 q 269 231 256 279 q 311 164 282 183 q 393 144 340 144 q 473 160 444 144 q 514 215 501 176 q 526 326 526 254 q 513 464 526 415 q 471 532 500 513 q 388 551 442 551 m 399 -61 q 478 -90 450 -61 q 507 -171 507 -119 q 475 -259 507 -226 q 390 -292 443 -292 q 310 -262 338 -292 q 282 -181 282 -233 q 313 -94 282 -126 q 399 -61 344 -61 z "},"Ỏ":{"ha":899,"x_min":33,"x_max":867,"o":"m 467 910 q 763 795 658 910 q 867 469 867 681 q 753 112 867 239 q 432 -15 639 -15 q 138 102 242 -15 q 33 435 33 219 q 147 786 33 663 q 467 910 260 910 m 447 729 q 342 704 381 729 q 285 622 303 679 q 268 465 268 564 q 286 281 268 347 q 344 185 304 214 q 451 156 383 156 q 556 181 517 156 q 613 265 594 207 q 631 422 631 322 q 613 605 631 539 q 555 700 594 671 q 447 729 515 729 m 436 1293 q 523 1263 488 1293 q 558 1185 558 1232 q 541 1130 558 1156 q 478 1064 524 1104 l 513 1008 l 436 963 l 371 1063 q 424 1115 404 1088 q 444 1164 444 1143 q 404 1196 444 1196 q 313 1161 356 1196 l 278 1217 q 436 1293 347 1293 z "},"ỏ":{"ha":781,"x_min":38,"x_max":743,"o":"m 406 718 q 655 627 567 718 q 743 371 743 536 q 647 87 743 188 q 375 -14 551 -14 q 126 79 214 -14 q 38 342 38 172 q 133 619 38 521 q 406 718 229 718 m 386 551 q 308 535 336 551 q 268 480 281 519 q 256 369 256 440 q 269 231 256 279 q 311 164 282 183 q 393 144 340 144 q 472 160 444 144 q 513 215 500 176 q 525 326 525 254 q 513 464 525 415 q 470 532 500 513 q 386 551 440 551 m 378 1103 q 465 1072 429 1103 q 500 994 500 1042 q 483 940 500 965 q 419 874 465 914 l 454 818 l 378 772 l 313 872 q 366 925 346 897 q 386 974 386 953 q 346 1006 386 1006 q 254 971 297 1006 l 219 1026 q 378 1103 289 1103 z "},"Ố":{"ha":899,"x_min":33,"x_max":867,"o":"m 467 910 q 763 795 658 910 q 867 469 867 681 q 753 112 867 239 q 432 -15 639 -15 q 138 102 242 -15 q 33 435 33 219 q 147 786 33 663 q 467 910 260 910 m 447 729 q 342 704 381 729 q 285 622 303 679 q 268 465 268 564 q 286 281 268 347 q 344 185 304 214 q 451 156 383 156 q 556 181 517 156 q 613 265 594 207 q 631 422 631 322 q 613 605 631 539 q 555 700 594 671 q 447 729 515 729 m 757 1351 l 617 1165 l 603 1165 l 529 1221 l 626 1407 l 642 1414 l 751 1367 l 757 1351 m 232 1067 q 428 1219 338 1138 l 469 1219 q 667 1067 564 1135 l 628 979 l 607 979 l 449 1065 q 354 1013 472 1079 l 292 979 l 271 979 l 232 1067 z "},"ố":{"ha":781,"x_min":38,"x_max":743,"o":"m 406 718 q 655 627 567 718 q 743 371 743 536 q 647 87 743 188 q 375 -14 551 -14 q 126 79 214 -14 q 38 342 38 172 q 133 619 38 521 q 406 718 229 718 m 386 551 q 308 535 336 551 q 268 480 281 519 q 256 369 256 440 q 269 231 256 279 q 311 164 282 183 q 393 144 340 144 q 472 160 444 144 q 513 215 500 176 q 525 326 525 254 q 513 464 525 415 q 470 532 500 513 q 386 551 440 551 m 699 1163 l 558 976 l 544 976 l 471 1032 l 568 1218 l 583 1225 l 693 1178 l 699 1163 m 174 878 q 369 1031 279 949 l 411 1031 q 608 878 506 946 l 569 790 l 549 790 l 390 876 q 296 824 414 890 l 233 790 l 213 790 l 174 878 z "},"Ồ":{"ha":899,"x_min":33,"x_max":867,"o":"m 467 910 q 763 795 658 910 q 867 469 867 681 q 753 112 867 239 q 432 -15 639 -15 q 138 102 242 -15 q 33 435 33 219 q 147 786 33 663 q 467 910 260 910 m 447 729 q 342 704 381 729 q 285 622 303 679 q 268 465 268 564 q 286 281 268 347 q 344 185 304 214 q 451 156 383 156 q 556 181 517 156 q 613 265 594 207 q 631 422 631 322 q 613 605 631 539 q 555 700 594 671 q 447 729 515 729 m 692 1221 l 618 1165 l 604 1165 l 464 1351 l 469 1367 l 579 1414 l 594 1407 l 692 1221 m 232 1067 q 428 1219 338 1138 l 469 1219 q 667 1067 564 1135 l 628 979 l 607 979 l 449 1065 q 354 1013 472 1079 l 292 979 l 271 979 l 232 1067 z "},"ồ":{"ha":781,"x_min":38,"x_max":743,"o":"m 406 718 q 655 627 567 718 q 743 371 743 536 q 647 87 743 188 q 375 -14 551 -14 q 126 79 214 -14 q 38 342 38 172 q 133 619 38 521 q 406 718 229 718 m 386 551 q 308 535 336 551 q 268 480 281 519 q 256 369 256 440 q 269 231 256 279 q 311 164 282 183 q 393 144 340 144 q 472 160 444 144 q 513 215 500 176 q 525 326 525 254 q 513 464 525 415 q 470 532 500 513 q 386 551 440 551 m 633 1032 l 560 976 l 546 976 l 406 1163 l 411 1178 l 521 1225 l 536 1218 l 633 1032 m 174 878 q 369 1031 279 949 l 411 1031 q 608 878 506 946 l 569 790 l 549 790 l 390 876 q 296 824 414 890 l 233 790 l 213 790 l 174 878 z "},"Ổ":{"ha":899,"x_min":33,"x_max":867,"o":"m 597 1478 q 681 1449 647 1478 q 714 1375 714 1421 q 697 1322 714 1347 q 638 1260 681 1297 l 669 1207 l 597 1164 l 535 1258 q 586 1308 567 1282 q 606 1354 606 1335 q 567 1385 606 1385 q 479 1351 521 1385 l 446 1404 q 597 1478 515 1478 m 232 1067 q 428 1219 338 1138 l 469 1219 q 667 1067 564 1135 l 628 979 l 607 979 l 449 1065 q 354 1013 472 1079 l 292 979 l 271 979 l 232 1067 m 468 910 q 763 795 658 910 q 867 469 867 681 q 753 111 867 238 q 433 -15 640 -15 q 138 102 242 -15 q 33 435 33 219 q 147 786 33 663 q 468 910 260 910 m 447 729 q 342 704 381 729 q 285 622 303 679 q 268 465 268 564 q 286 281 268 347 q 344 185 304 214 q 451 156 383 156 q 556 181 517 156 q 613 265 594 207 q 631 422 631 322 q 613 605 631 539 q 555 700 594 671 q 447 729 515 729 z "},"ổ":{"ha":781,"x_min":38,"x_max":744,"o":"m 539 1289 q 622 1260 589 1289 q 656 1186 656 1232 q 639 1133 656 1158 q 579 1071 622 1108 l 611 1018 l 539 975 l 476 1069 q 528 1119 508 1093 q 547 1165 547 1146 q 508 1196 547 1196 q 421 1163 463 1196 l 388 1215 q 539 1289 457 1289 m 174 878 q 369 1031 279 949 l 411 1031 q 608 878 506 946 l 569 790 l 549 790 l 390 876 q 296 824 414 890 l 233 790 l 213 790 l 174 878 m 407 718 q 656 627 568 718 q 744 371 744 536 q 648 87 744 188 q 375 -14 551 -14 q 126 79 214 -14 q 38 342 38 172 q 134 619 38 521 q 407 718 231 718 m 388 551 q 309 535 338 551 q 268 480 281 519 q 256 369 256 440 q 269 231 256 279 q 311 164 282 183 q 393 144 340 144 q 473 160 444 144 q 514 215 501 176 q 526 326 526 254 q 513 464 526 415 q 471 532 500 513 q 388 551 442 551 z "},"Ỗ":{"ha":899,"x_min":33,"x_max":867,"o":"m 690 1378 l 594 1251 l 576 1244 q 464 1271 539 1249 q 381 1289 400 1289 q 349 1276 364 1289 q 319 1246 335 1264 q 297 1219 304 1228 l 281 1219 l 221 1278 l 221 1294 l 315 1422 l 333 1429 q 443 1404 361 1425 q 529 1385 515 1385 q 562 1398 546 1385 q 592 1429 578 1411 q 613 1454 607 1447 l 631 1454 l 690 1396 l 690 1378 m 232 1067 q 428 1219 338 1138 l 469 1219 q 667 1067 564 1135 l 628 979 l 607 979 l 449 1065 q 354 1013 472 1079 l 292 979 l 271 979 l 232 1067 m 468 910 q 763 795 658 910 q 867 469 867 681 q 753 111 867 238 q 433 -15 640 -15 q 138 102 242 -15 q 33 435 33 219 q 147 786 33 663 q 468 910 260 910 m 447 729 q 342 704 381 729 q 285 622 303 679 q 268 465 268 564 q 286 281 268 347 q 344 185 304 214 q 451 156 383 156 q 556 181 517 156 q 613 265 594 207 q 631 422 631 322 q 613 605 631 539 q 555 700 594 671 q 447 729 515 729 z "},"ỗ":{"ha":781,"x_min":38,"x_max":744,"o":"m 632 1189 l 536 1063 l 518 1056 q 406 1082 481 1060 q 322 1100 342 1100 q 291 1088 306 1100 q 261 1057 276 1075 q 239 1031 246 1039 l 222 1031 l 163 1089 l 163 1106 l 257 1233 l 275 1240 q 385 1215 303 1236 q 471 1196 457 1196 q 503 1209 488 1196 q 534 1240 519 1222 q 554 1265 549 1258 l 572 1265 l 632 1207 l 632 1189 m 174 878 q 369 1031 279 949 l 411 1031 q 608 878 506 946 l 569 790 l 549 790 l 390 876 q 296 824 414 890 l 233 790 l 213 790 l 174 878 m 407 718 q 656 627 568 718 q 744 371 744 536 q 648 87 744 188 q 375 -14 551 -14 q 126 79 214 -14 q 38 342 38 172 q 134 619 38 521 q 407 718 231 718 m 388 551 q 309 535 338 551 q 268 480 281 519 q 256 369 256 440 q 269 231 256 279 q 311 164 282 183 q 393 144 340 144 q 473 160 444 144 q 514 215 501 176 q 526 326 526 254 q 513 464 526 415 q 471 532 500 513 q 388 551 442 551 z "},"Ộ":{"ha":899,"x_min":33,"x_max":867,"o":"m 238 1092 q 433 1244 343 1163 l 475 1244 q 672 1092 569 1160 l 633 1004 l 613 1004 l 454 1090 q 360 1038 478 1104 l 297 1004 l 276 1004 l 238 1092 m 468 910 q 763 795 658 910 q 867 469 867 681 q 753 111 867 238 q 433 -15 640 -15 q 138 102 242 -15 q 33 435 33 219 q 147 786 33 663 q 468 910 260 910 m 447 729 q 342 704 381 729 q 285 622 303 679 q 268 465 268 564 q 286 281 268 347 q 344 185 304 214 q 451 156 383 156 q 556 181 517 156 q 613 265 594 207 q 631 422 631 322 q 613 605 631 539 q 555 700 594 671 q 447 729 515 729 m 458 -61 q 538 -90 510 -61 q 567 -171 567 -119 q 535 -259 567 -226 q 450 -292 503 -292 q 369 -262 397 -292 q 342 -181 342 -233 q 373 -94 342 -126 q 458 -61 404 -61 z "},"ộ":{"ha":781,"x_min":38,"x_max":744,"o":"m 163 872 q 371 1074 249 949 l 414 1074 q 622 872 507 976 l 568 790 l 547 790 q 393 910 440 867 q 239 790 349 872 l 217 790 l 163 872 m 407 718 q 656 627 568 718 q 744 371 744 536 q 648 87 744 188 q 375 -14 551 -14 q 126 79 214 -14 q 38 342 38 172 q 134 619 38 521 q 407 718 231 718 m 388 551 q 309 535 338 551 q 268 480 281 519 q 256 369 256 440 q 269 231 256 279 q 311 164 282 183 q 393 144 340 144 q 473 160 444 144 q 514 215 501 176 q 526 326 526 254 q 513 464 526 415 q 471 532 500 513 q 388 551 442 551 m 399 -61 q 478 -90 450 -61 q 507 -171 507 -119 q 475 -259 507 -226 q 390 -292 443 -292 q 310 -262 338 -292 q 282 -181 282 -233 q 313 -94 282 -126 q 399 -61 344 -61 z "},"Ớ":{"ha":908,"x_min":33,"x_max":938,"o":"m 835 1085 q 908 1047 878 1085 q 938 950 938 1008 q 892 831 938 879 q 775 771 846 783 q 867 464 867 657 q 816 208 867 315 q 668 42 765 100 q 436 -15 571 -15 q 138 102 242 -15 q 33 433 33 219 q 84 691 33 583 q 228 854 135 799 q 447 910 322 910 q 613 883 525 910 q 692 868 668 868 q 747 887 726 868 q 767 938 767 906 q 725 1026 767 989 l 729 1043 q 835 1085 788 1085 m 444 729 q 341 703 379 729 q 285 617 303 676 q 268 454 268 558 q 286 278 268 343 q 344 184 304 213 q 454 156 385 156 q 558 181 519 156 q 613 267 596 207 q 631 432 631 328 q 613 608 631 543 q 554 701 594 672 q 444 729 514 729 m 665 1114 l 658 1096 q 347 992 529 1049 l 326 997 l 292 1089 q 590 1250 442 1163 l 610 1246 l 665 1114 z "},"ớ":{"ha":790,"x_min":38,"x_max":808,"o":"m 619 821 q 715 860 676 860 q 781 828 754 860 q 808 747 808 796 q 771 649 808 690 q 675 594 733 608 q 743 365 743 506 q 647 87 743 188 q 378 -14 550 -14 q 126 79 214 -14 q 38 340 38 172 q 81 544 38 458 q 204 674 125 629 q 389 718 283 718 q 528 699 443 718 q 593 688 578 688 q 650 738 650 688 q 615 806 650 778 l 619 821 m 397 142 q 474 158 447 142 q 513 217 501 175 q 525 338 525 260 q 512 468 525 422 q 469 533 499 514 q 385 551 439 551 q 307 535 335 551 q 267 476 279 518 q 256 357 256 435 q 269 227 256 274 q 313 161 282 181 q 397 142 343 142 m 593 925 l 586 907 q 275 803 457 860 l 254 808 l 219 900 q 518 1061 369 974 l 538 1057 l 593 925 z "},"Ờ":{"ha":908,"x_min":33,"x_max":939,"o":"m 342 1250 q 640 1089 490 1163 l 606 997 l 585 992 q 274 1096 403 1049 l 267 1114 l 322 1246 l 342 1250 m 835 1085 q 908 1046 878 1085 q 939 950 939 1007 q 893 831 939 879 q 776 771 847 783 q 867 464 867 656 q 753 112 867 239 q 436 -15 640 -15 q 138 102 242 -15 q 33 433 33 219 q 85 691 33 583 q 229 854 136 799 q 447 910 322 910 q 614 883 524 910 q 692 868 667 868 q 747 887 726 868 q 767 938 767 906 q 725 1026 767 989 l 729 1043 q 835 1085 788 1085 m 444 729 q 341 703 379 729 q 285 617 303 676 q 268 454 268 558 q 286 278 268 343 q 344 184 304 213 q 454 156 385 156 q 558 181 519 156 q 613 267 596 207 q 631 432 631 328 q 613 608 631 543 q 554 701 594 672 q 444 729 514 729 z "},"ờ":{"ha":790,"x_min":38,"x_max":810,"o":"m 269 1061 q 568 900 418 974 l 533 808 l 513 803 q 201 907 331 860 l 194 925 l 250 1057 l 269 1061 m 619 821 q 717 860 676 860 q 783 828 756 860 q 810 747 810 796 q 772 649 810 690 q 676 594 735 608 q 744 365 744 506 q 648 88 744 189 q 379 -14 551 -14 q 126 79 214 -14 q 38 340 38 172 q 81 544 38 458 q 204 674 125 629 q 389 718 283 718 q 529 699 444 718 q 594 688 579 688 q 650 738 650 688 q 615 806 650 778 l 619 821 m 397 142 q 474 158 447 142 q 514 217 501 175 q 526 338 526 260 q 513 468 526 422 q 470 533 500 514 q 386 551 440 551 q 307 535 335 551 q 267 476 279 518 q 256 357 256 435 q 269 227 256 274 q 313 161 282 181 q 397 142 343 142 z "},"Ở":{"ha":908,"x_min":33,"x_max":938,"o":"m 835 1085 q 908 1047 878 1085 q 938 950 938 1008 q 892 831 938 879 q 775 771 846 783 q 867 464 867 657 q 816 208 867 315 q 668 42 765 100 q 436 -15 571 -15 q 138 102 242 -15 q 33 433 33 219 q 84 691 33 583 q 228 854 135 799 q 447 910 322 910 q 613 883 525 910 q 692 868 668 868 q 747 887 726 868 q 767 938 767 906 q 725 1026 767 989 l 729 1043 q 835 1085 788 1085 m 444 729 q 341 703 379 729 q 285 617 303 676 q 268 454 268 558 q 286 278 268 343 q 344 184 304 213 q 454 156 385 156 q 558 181 519 156 q 613 267 596 207 q 631 432 631 328 q 613 608 631 543 q 554 701 594 672 q 444 729 514 729 m 436 1293 q 523 1263 488 1293 q 558 1185 558 1232 q 541 1130 558 1156 q 478 1064 524 1104 l 513 1008 l 436 963 l 371 1063 q 424 1115 404 1088 q 444 1164 444 1143 q 404 1196 444 1196 q 313 1161 356 1196 l 278 1217 q 436 1293 347 1293 z "},"ở":{"ha":790,"x_min":38,"x_max":808,"o":"m 619 821 q 715 860 676 860 q 781 828 754 860 q 808 747 808 796 q 771 649 808 690 q 675 594 733 608 q 743 365 743 506 q 647 87 743 188 q 378 -14 550 -14 q 126 79 214 -14 q 38 340 38 172 q 81 544 38 458 q 204 674 125 629 q 389 718 283 718 q 528 699 443 718 q 593 688 578 688 q 650 738 650 688 q 615 806 650 778 l 619 821 m 397 142 q 474 158 447 142 q 513 217 501 175 q 525 338 525 260 q 512 468 525 422 q 469 533 499 514 q 385 551 439 551 q 307 535 335 551 q 267 476 279 518 q 256 357 256 435 q 269 227 256 274 q 313 161 282 181 q 397 142 343 142 m 364 1103 q 451 1072 415 1103 q 486 994 486 1042 q 469 940 486 965 q 406 874 451 914 l 440 818 l 364 772 l 299 872 q 352 925 332 897 q 372 974 372 953 q 332 1006 372 1006 q 240 971 283 1006 l 206 1026 q 364 1103 275 1103 z "},"Ỡ":{"ha":908,"x_min":33,"x_max":938,"o":"m 835 1085 q 908 1047 878 1085 q 938 950 938 1008 q 892 831 938 879 q 775 771 846 783 q 867 464 867 657 q 816 208 867 315 q 668 42 765 100 q 436 -15 571 -15 q 138 102 242 -15 q 33 433 33 219 q 84 691 33 583 q 228 854 135 799 q 447 910 322 910 q 613 883 525 910 q 692 868 668 868 q 747 887 726 868 q 767 938 767 906 q 725 1026 767 989 l 729 1043 q 835 1085 788 1085 m 444 729 q 341 703 379 729 q 285 617 303 676 q 268 454 268 558 q 286 278 268 343 q 344 184 304 213 q 454 156 385 156 q 558 181 519 156 q 613 267 596 207 q 631 432 631 328 q 613 608 631 543 q 554 701 594 672 q 444 729 514 729 m 704 1161 l 601 1024 l 582 1015 q 467 1042 563 1018 q 368 1064 393 1064 q 333 1050 350 1064 q 301 1017 317 1036 q 278 989 285 997 l 258 989 l 194 1053 l 194 1071 l 297 1208 l 317 1215 q 438 1188 347 1211 q 531 1167 511 1167 q 565 1181 549 1167 q 597 1214 581 1194 q 621 1243 613 1233 l 640 1243 l 704 1179 l 704 1161 z "},"ỡ":{"ha":790,"x_min":38,"x_max":808,"o":"m 619 821 q 715 860 676 860 q 781 828 754 860 q 808 747 808 796 q 771 649 808 690 q 675 594 733 608 q 743 365 743 506 q 647 87 743 188 q 378 -14 550 -14 q 126 79 214 -14 q 38 340 38 172 q 81 544 38 458 q 204 674 125 629 q 389 718 283 718 q 528 699 443 718 q 593 688 578 688 q 650 738 650 688 q 615 806 650 778 l 619 821 m 397 142 q 474 158 447 142 q 513 217 501 175 q 525 338 525 260 q 512 468 525 422 q 469 533 499 514 q 385 551 439 551 q 307 535 335 551 q 267 476 279 518 q 256 357 256 435 q 269 227 256 274 q 313 161 282 181 q 397 142 343 142 m 632 972 l 529 835 l 510 826 q 394 853 490 829 q 296 875 321 875 q 261 861 278 875 q 228 828 244 847 q 206 800 213 808 l 186 800 l 122 864 l 122 882 l 225 1019 l 244 1026 q 365 999 275 1022 q 458 978 439 978 q 492 992 476 978 q 524 1025 508 1006 q 549 1054 540 1044 l 568 1054 l 632 990 l 632 972 z "},"Ợ":{"ha":908,"x_min":33,"x_max":939,"o":"m 835 1085 q 908 1046 878 1085 q 939 950 939 1007 q 893 831 939 879 q 776 771 847 783 q 867 464 867 656 q 753 112 867 239 q 436 -15 640 -15 q 138 102 242 -15 q 33 433 33 219 q 85 691 33 583 q 229 854 136 799 q 447 910 322 910 q 614 883 524 910 q 692 868 667 868 q 747 887 726 868 q 767 938 767 906 q 725 1026 767 989 l 729 1043 q 835 1085 788 1085 m 444 729 q 341 703 379 729 q 285 617 303 676 q 268 454 268 558 q 286 278 268 343 q 344 184 304 213 q 454 156 385 156 q 558 181 519 156 q 613 267 596 207 q 631 432 631 328 q 613 608 631 543 q 554 701 594 672 q 444 729 514 729 m 458 -61 q 538 -90 510 -61 q 567 -171 567 -119 q 535 -259 567 -226 q 450 -292 503 -292 q 369 -262 397 -292 q 342 -181 342 -233 q 373 -94 342 -126 q 458 -61 404 -61 z "},"ợ":{"ha":790,"x_min":38,"x_max":810,"o":"m 619 821 q 717 860 676 860 q 783 828 756 860 q 810 747 810 796 q 772 649 810 690 q 676 594 735 608 q 744 365 744 506 q 648 88 744 189 q 379 -14 551 -14 q 126 79 214 -14 q 38 340 38 172 q 81 544 38 458 q 204 674 125 629 q 389 718 283 718 q 529 699 444 718 q 594 688 579 688 q 650 738 650 688 q 615 806 650 778 l 619 821 m 397 142 q 474 158 447 142 q 514 217 501 175 q 526 338 526 260 q 513 468 526 422 q 470 533 500 514 q 386 551 440 551 q 307 535 335 551 q 267 476 279 518 q 256 357 256 435 q 269 227 256 274 q 313 161 282 181 q 397 142 343 142 m 399 -61 q 478 -90 450 -61 q 507 -171 507 -119 q 475 -259 507 -226 q 390 -292 443 -292 q 310 -262 338 -292 q 282 -181 282 -233 q 313 -94 282 -126 q 399 -61 344 -61 z "},"Ụ":{"ha":894,"x_min":78,"x_max":819,"o":"m 811 313 q 714 71 811 156 q 435 -14 617 -14 q 169 69 261 -14 q 81 308 76 153 l 83 444 l 78 896 l 303 896 l 293 339 q 328 208 292 250 q 446 167 365 167 q 565 208 526 167 q 601 333 603 249 l 592 896 l 819 896 l 813 442 l 811 313 m 450 -61 q 530 -90 501 -61 q 558 -171 558 -119 q 526 -259 558 -226 q 442 -292 494 -292 q 361 -262 389 -292 q 333 -181 333 -233 q 365 -94 333 -126 q 450 -61 396 -61 z "},"ụ":{"ha":779,"x_min":72,"x_max":707,"o":"m 699 236 q 615 52 699 117 q 379 -12 532 -12 q 151 52 229 -12 q 76 236 72 117 l 78 349 l 72 706 l 282 706 l 272 265 q 299 181 271 207 q 388 154 326 154 q 477 181 449 154 q 504 265 506 207 l 496 706 l 707 706 l 700 347 l 699 236 m 393 -61 q 473 -90 444 -61 q 501 -171 501 -119 q 469 -259 501 -226 q 385 -292 438 -292 q 304 -262 332 -292 q 276 -181 276 -233 q 308 -94 276 -126 q 393 -61 339 -61 z "},"Ủ":{"ha":894,"x_min":78,"x_max":821,"o":"m 811 313 q 715 71 813 156 q 436 -14 617 -14 q 169 69 261 -14 q 81 308 76 153 l 83 444 l 78 896 l 303 896 l 293 339 q 329 208 292 250 q 446 167 367 167 q 565 208 526 167 q 601 333 603 249 l 592 896 l 821 896 l 813 442 l 811 313 m 435 1293 q 522 1263 486 1293 q 557 1185 557 1232 q 540 1130 557 1156 q 476 1064 522 1104 l 511 1008 l 435 963 l 369 1063 q 423 1115 403 1088 q 443 1164 443 1143 q 403 1196 443 1196 q 311 1161 354 1196 l 276 1217 q 435 1293 346 1293 z "},"ủ":{"ha":779,"x_min":72,"x_max":707,"o":"m 699 236 q 615 52 699 117 q 378 -12 532 -12 q 151 52 229 -12 q 75 236 72 117 l 78 349 l 72 706 l 281 706 l 271 265 q 298 181 269 207 q 388 154 326 154 q 477 181 449 154 q 504 265 506 207 l 494 706 l 707 706 l 700 347 l 699 236 m 375 1103 q 462 1072 426 1103 q 497 994 497 1042 q 480 940 497 965 q 417 874 463 914 l 451 818 l 375 772 l 310 872 q 363 925 343 897 q 383 974 383 953 q 343 1006 383 1006 q 251 971 294 1006 l 217 1026 q 375 1103 286 1103 z "},"Ứ":{"ha":908,"x_min":78,"x_max":953,"o":"m 953 983 q 917 883 953 928 q 818 813 881 838 l 813 442 l 811 313 q 714 71 811 156 q 435 -14 617 -14 q 169 69 261 -14 q 81 308 76 153 l 83 444 l 78 896 l 303 896 l 293 339 q 328 208 292 250 q 446 167 365 167 q 565 208 526 167 q 601 333 603 249 l 592 896 l 699 896 q 782 964 782 896 q 739 1046 782 1010 l 743 1063 q 850 1106 804 1106 q 923 1071 893 1106 q 953 983 953 1036 m 663 1114 l 656 1096 q 344 992 526 1049 l 324 997 l 289 1089 q 588 1250 439 1163 l 607 1246 l 663 1114 z "},"ứ":{"ha":792,"x_min":67,"x_max":819,"o":"m 819 778 q 788 691 819 731 q 700 629 756 651 l 694 347 l 693 236 q 610 52 693 117 q 372 -12 526 -12 q 145 52 224 -12 q 69 236 67 117 l 72 349 l 67 706 l 275 706 l 265 265 q 292 181 264 207 q 382 154 321 154 q 472 181 443 154 q 499 265 500 207 l 489 706 l 594 706 q 661 758 661 706 q 626 822 661 797 l 631 838 q 729 876 688 876 q 794 849 768 876 q 819 778 819 821 m 589 924 l 582 906 q 271 801 453 858 l 250 807 l 215 899 q 514 1060 365 972 l 533 1056 l 589 924 z "},"Ừ":{"ha":908,"x_min":78,"x_max":953,"o":"m 583 992 q 272 1096 401 1049 l 265 1114 l 321 1246 l 340 1250 q 639 1089 489 1163 l 604 997 l 583 992 m 953 983 q 917 883 953 928 q 818 813 881 838 l 813 442 l 811 313 q 714 71 811 156 q 435 -14 617 -14 q 169 69 261 -14 q 81 308 76 153 l 83 444 l 78 896 l 303 896 l 293 339 q 328 208 292 250 q 446 167 365 167 q 565 208 526 167 q 601 333 603 249 l 592 896 l 699 896 q 782 964 782 896 q 739 1046 782 1010 l 743 1063 q 850 1106 804 1106 q 923 1071 893 1106 q 953 983 953 1036 z "},"ừ":{"ha":792,"x_min":67,"x_max":819,"o":"m 508 801 q 197 906 326 858 l 190 924 l 246 1056 l 265 1060 q 564 899 414 972 l 529 807 l 508 801 m 819 778 q 788 691 819 731 q 700 629 756 651 l 694 347 l 693 236 q 610 52 693 117 q 372 -12 526 -12 q 145 52 224 -12 q 69 236 67 117 l 72 349 l 67 706 l 275 706 l 265 265 q 292 181 264 207 q 382 154 321 154 q 472 181 443 154 q 499 265 500 207 l 489 706 l 594 706 q 661 758 661 706 q 626 822 661 797 l 631 838 q 729 876 688 876 q 794 849 768 876 q 819 778 819 821 z "},"Ử":{"ha":908,"x_min":78,"x_max":953,"o":"m 953 983 q 917 883 953 928 q 818 813 881 838 l 813 442 l 811 313 q 714 71 811 156 q 435 -14 617 -14 q 169 69 261 -14 q 81 308 76 153 l 83 444 l 78 896 l 303 896 l 293 339 q 328 208 292 250 q 446 167 365 167 q 565 208 526 167 q 601 333 603 249 l 592 896 l 699 896 q 782 964 782 896 q 739 1046 782 1010 l 743 1063 q 850 1106 804 1106 q 923 1071 893 1106 q 953 983 953 1036 m 433 1293 q 520 1263 485 1293 q 556 1185 556 1232 q 538 1130 556 1156 q 475 1064 521 1104 l 510 1008 l 433 963 l 368 1063 q 422 1115 401 1088 q 442 1164 442 1143 q 401 1196 442 1196 q 310 1161 353 1196 l 275 1217 q 433 1293 344 1293 z "},"ử":{"ha":792,"x_min":67,"x_max":819,"o":"m 819 778 q 788 691 819 731 q 700 629 756 651 l 694 347 l 693 236 q 610 52 693 117 q 372 -12 526 -12 q 145 52 224 -12 q 69 236 67 117 l 72 349 l 67 706 l 275 706 l 265 265 q 292 181 264 207 q 382 154 321 154 q 472 181 443 154 q 499 265 500 207 l 489 706 l 594 706 q 661 758 661 706 q 626 822 661 797 l 631 838 q 729 876 688 876 q 794 849 768 876 q 819 778 819 821 m 360 1103 q 447 1072 411 1103 q 482 994 482 1042 q 465 940 482 965 q 401 874 447 914 l 436 818 l 360 772 l 294 872 q 348 925 328 897 q 368 974 368 953 q 328 1006 368 1006 q 236 971 279 1006 l 201 1026 q 360 1103 271 1103 z "},"Ữ":{"ha":908,"x_min":78,"x_max":953,"o":"m 953 983 q 917 883 953 928 q 818 813 881 838 l 813 442 l 811 313 q 714 71 811 156 q 435 -14 617 -14 q 169 69 261 -14 q 81 308 76 153 l 83 444 l 78 896 l 303 896 l 293 339 q 328 208 292 250 q 446 167 365 167 q 565 208 526 167 q 601 333 603 249 l 592 896 l 699 896 q 782 964 782 896 q 739 1046 782 1010 l 743 1063 q 850 1106 804 1106 q 923 1071 893 1106 q 953 983 953 1036 m 703 1161 l 600 1024 l 581 1015 q 465 1042 561 1018 q 367 1064 392 1064 q 332 1050 349 1064 q 299 1017 315 1036 q 276 989 283 997 l 257 989 l 193 1053 l 193 1071 l 296 1208 l 315 1215 q 436 1188 346 1211 q 529 1167 510 1167 q 563 1181 547 1167 q 595 1214 579 1194 q 619 1243 611 1233 l 639 1243 l 703 1179 l 703 1161 z "},"ữ":{"ha":792,"x_min":67,"x_max":819,"o":"m 819 778 q 788 691 819 731 q 700 629 756 651 l 694 347 l 693 236 q 610 52 693 117 q 372 -12 526 -12 q 145 52 224 -12 q 69 236 67 117 l 72 349 l 67 706 l 275 706 l 265 265 q 292 181 264 207 q 382 154 321 154 q 472 181 443 154 q 499 265 500 207 l 489 706 l 594 706 q 661 758 661 706 q 626 822 661 797 l 631 838 q 729 876 688 876 q 794 849 768 876 q 819 778 819 821 m 629 971 l 526 833 l 507 825 q 392 851 488 828 q 293 874 318 874 q 258 860 275 874 q 226 826 242 846 q 203 799 210 807 l 183 799 l 119 863 l 119 881 l 222 1018 l 242 1025 q 363 997 272 1021 q 456 976 436 976 q 490 990 474 976 q 522 1024 506 1004 q 546 1053 538 1043 l 565 1053 l 629 989 l 629 971 z "},"Ự":{"ha":908,"x_min":78,"x_max":953,"o":"m 953 983 q 917 883 953 928 q 818 813 881 838 l 813 442 l 811 313 q 714 71 811 156 q 435 -14 617 -14 q 169 69 261 -14 q 81 308 76 153 l 83 444 l 78 896 l 303 896 l 293 339 q 328 208 292 250 q 446 167 365 167 q 565 208 526 167 q 601 333 603 249 l 592 896 l 699 896 q 782 964 782 896 q 739 1046 782 1010 l 743 1063 q 850 1106 804 1106 q 923 1071 893 1106 q 953 983 953 1036 m 453 -61 q 533 -90 504 -61 q 561 -171 561 -119 q 529 -259 561 -226 q 444 -292 497 -292 q 364 -262 392 -292 q 336 -181 336 -233 q 367 -94 336 -126 q 453 -61 399 -61 z "},"ự":{"ha":792,"x_min":67,"x_max":819,"o":"m 819 778 q 788 691 819 731 q 700 629 756 651 l 694 347 l 693 236 q 610 52 693 117 q 372 -12 526 -12 q 145 52 224 -12 q 69 236 67 117 l 72 349 l 67 706 l 275 706 l 265 265 q 292 181 264 207 q 382 154 321 154 q 472 181 443 154 q 499 265 500 207 l 489 706 l 594 706 q 661 758 661 706 q 626 822 661 797 l 631 838 q 729 876 688 876 q 794 849 768 876 q 819 778 819 821 m 394 -61 q 474 -90 446 -61 q 503 -171 503 -119 q 471 -259 503 -226 q 386 -292 439 -292 q 306 -262 333 -292 q 278 -181 278 -233 q 309 -94 278 -126 q 394 -61 340 -61 z "},"Ỳ":{"ha":796,"x_min":0,"x_max":810,"o":"m 529 992 q 218 1096 347 1049 l 211 1114 l 267 1246 l 286 1250 q 585 1089 435 1163 l 550 997 l 529 992 m 500 0 l 275 0 l 288 243 l 286 292 l 0 896 l 238 896 l 258 829 l 389 517 l 404 517 l 551 821 l 579 896 l 810 896 l 493 296 l 492 243 l 500 0 z "},"ỳ":{"ha":706,"x_min":8,"x_max":707,"o":"m 469 779 q 183 939 321 860 l 179 958 l 258 1079 l 278 1081 q 540 864 394 975 l 489 781 l 469 779 m 447 0 l 239 0 l 249 188 l 247 217 l 8 706 l 228 706 l 246 649 l 344 428 l 356 428 l 468 640 l 493 706 l 707 706 l 440 222 l 439 188 l 447 0 z "},"Ỵ":{"ha":796,"x_min":0,"x_max":810,"o":"m 500 0 l 275 0 l 288 243 l 286 292 l 0 896 l 238 896 l 258 829 l 389 517 l 404 517 l 551 821 l 579 896 l 810 896 l 493 296 l 492 243 l 500 0 m 392 -61 q 472 -90 443 -61 q 500 -171 500 -119 q 468 -259 500 -226 q 383 -292 436 -292 q 303 -262 331 -292 q 275 -181 275 -233 q 306 -94 275 -126 q 392 -61 338 -61 z "},"ỵ":{"ha":706,"x_min":8,"x_max":707,"o":"m 8 706 l 228 706 l 246 649 l 344 428 l 356 428 l 468 640 l 493 706 l 707 706 l 440 222 l 439 188 l 447 0 l 239 0 l 249 188 l 247 217 l 8 706 m 347 -61 q 427 -90 399 -61 q 456 -171 456 -119 q 424 -259 456 -226 q 339 -292 392 -292 q 258 -262 286 -292 q 231 -181 231 -233 q 262 -94 231 -126 q 347 -61 293 -61 z "},"Ỷ":{"ha":796,"x_min":-1,"x_max":810,"o":"m 500 0 l 275 0 l 286 243 l 285 292 l -1 896 l 236 896 l 257 829 l 388 517 l 403 517 l 550 821 l 578 896 l 810 896 l 493 297 l 490 243 l 500 0 m 381 1293 q 467 1263 432 1293 q 503 1185 503 1232 q 485 1130 503 1156 q 422 1064 468 1104 l 457 1008 l 381 963 l 315 1063 q 369 1115 349 1088 q 389 1164 389 1143 q 349 1196 389 1196 q 257 1161 300 1196 l 222 1217 q 381 1293 292 1293 z "},"ỷ":{"ha":706,"x_min":8,"x_max":707,"o":"m 447 0 l 239 0 l 249 188 l 247 217 l 8 706 l 228 706 l 246 649 l 344 428 l 356 428 l 468 640 l 493 706 l 707 706 l 440 222 l 439 188 l 447 0 m 346 1103 q 433 1072 397 1103 q 468 994 468 1042 q 451 940 468 965 q 388 874 433 914 l 422 818 l 346 772 l 281 872 q 334 925 314 897 q 354 974 354 953 q 314 1006 354 1006 q 222 971 265 1006 l 188 1026 q 346 1103 257 1103 z "},"Ỹ":{"ha":796,"x_min":-1,"x_max":810,"o":"m 500 0 l 275 0 l 286 243 l 285 292 l -1 896 l 236 896 l 257 829 l 388 517 l 403 517 l 550 821 l 578 896 l 810 896 l 493 297 l 490 243 l 500 0 m 649 1161 l 546 1024 l 526 1015 q 411 1042 507 1018 q 313 1064 338 1064 q 278 1050 294 1064 q 245 1017 261 1036 q 222 989 229 997 l 203 989 l 139 1053 l 139 1071 l 242 1208 l 261 1215 q 382 1188 292 1211 q 475 1167 456 1167 q 509 1181 493 1167 q 541 1214 525 1194 q 565 1243 557 1233 l 585 1243 l 649 1179 l 649 1161 z "},"ỹ":{"ha":706,"x_min":8,"x_max":707,"o":"m 447 0 l 239 0 l 249 188 l 247 217 l 8 706 l 228 706 l 246 649 l 344 428 l 356 428 l 468 640 l 493 706 l 707 706 l 440 222 l 439 188 l 447 0 m 615 972 l 513 835 l 493 826 q 378 853 474 829 q 279 875 304 875 q 244 861 261 875 q 212 828 228 847 q 189 800 196 808 l 169 800 l 106 864 l 106 882 l 208 1019 l 228 1026 q 349 999 258 1022 q 442 978 422 978 q 476 992 460 978 q 508 1025 492 1006 q 532 1054 524 1044 l 551 1054 l 615 990 l 615 972 z "},"–":{"ha":639,"x_min":-21,"x_max":660,"o":"m 649 285 l -7 285 l -21 300 l -10 433 l 646 433 l 660 418 l 649 285 z "},"—":{"ha":1207,"x_min":-25,"x_max":1232,"o":"m 1222 285 l -11 285 l -25 300 l -14 433 l 1218 433 l 1232 418 l 1222 285 z "},"‘":{"ha":314,"x_min":47,"x_max":267,"o":"m 128 515 q 47 658 47 564 q 188 907 47 775 l 263 858 l 265 844 q 210 724 210 783 q 267 615 210 653 l 267 599 q 128 515 194 543 z "},"’":{"ha":314,"x_min":49,"x_max":268,"o":"m 188 908 q 268 765 268 860 q 128 517 268 649 l 53 565 l 50 579 q 106 700 106 640 q 49 808 106 771 l 49 825 q 188 908 121 881 z "},"‚":{"ha":317,"x_min":10,"x_max":267,"o":"m 203 213 q 267 82 267 157 q 82 -185 267 -54 l 11 -124 l 10 -107 q 88 35 88 -42 q 42 126 88 85 l 43 146 q 203 213 126 192 z "},"“":{"ha":561,"x_min":44,"x_max":517,"o":"m 378 515 q 297 658 297 564 q 438 907 297 775 l 513 858 l 515 844 q 460 724 460 783 q 517 615 460 653 l 517 599 q 378 515 444 543 m 125 515 q 44 658 44 564 q 185 907 44 775 l 260 858 l 263 844 q 207 724 207 783 q 264 615 207 653 l 264 599 q 125 515 192 543 z "},"”":{"ha":554,"x_min":47,"x_max":508,"o":"m 428 908 q 508 765 508 860 q 368 517 508 649 l 293 565 l 290 579 q 346 700 346 640 q 289 808 346 771 l 289 825 q 428 908 361 881 m 186 908 q 267 765 267 860 q 126 517 267 649 l 51 565 l 49 579 q 104 700 104 640 q 47 808 104 771 l 47 825 q 186 908 119 881 z "},"„":{"ha":569,"x_min":10,"x_max":517,"o":"m 453 213 q 517 82 517 157 q 332 -185 517 -54 l 261 -124 l 260 -107 q 338 35 338 -42 q 292 126 338 85 l 293 146 q 453 213 376 192 m 203 213 q 267 82 267 157 q 82 -185 267 -54 l 11 -124 l 10 -107 q 88 35 88 -42 q 42 126 88 85 l 43 146 q 203 213 126 192 z "},"†":{"ha":710,"x_min":54,"x_max":657,"o":"m 425 432 l 425 403 l 425 -121 l 290 -131 l 276 -115 l 276 389 l 276 432 l 68 432 l 54 447 l 64 578 l 276 578 l 278 811 l 417 822 l 429 810 l 426 578 l 643 578 l 657 563 l 646 432 l 425 432 z "},"‡":{"ha":710,"x_min":54,"x_max":657,"o":"m 657 217 l 646 85 l 425 85 l 425 -121 l 290 -131 l 276 -115 l 276 85 l 68 85 l 54 100 l 64 231 l 276 231 l 276 389 l 276 450 l 68 450 l 54 465 l 64 596 l 276 596 l 278 811 l 417 822 l 429 810 l 426 596 l 643 596 l 657 582 l 646 450 l 425 450 l 425 403 l 425 231 l 643 231 l 657 217 z "},"•":{"ha":399,"x_min":51,"x_max":344,"o":"m 204 561 q 308 523 271 561 q 345 419 345 485 q 303 304 345 347 q 193 262 262 262 q 89 300 125 262 q 53 406 53 338 q 93 519 53 476 q 204 561 134 561 z "},"․":{"ha":317,"x_min":46,"x_max":271,"o":"m 163 219 q 242 190 214 219 q 271 110 271 161 q 239 22 271 54 q 154 -11 207 -11 q 74 18 101 -11 q 46 100 46 47 q 77 187 46 154 q 163 219 108 219 z "},"‥":{"ha":613,"x_min":40,"x_max":560,"o":"m 451 219 q 531 190 503 219 q 560 110 560 161 q 528 22 560 54 q 443 -11 496 -11 q 363 18 390 -11 q 335 100 335 47 q 366 187 335 154 q 451 219 397 219 m 157 219 q 237 190 208 219 q 265 110 265 161 q 233 22 265 54 q 149 -11 201 -11 q 68 18 96 -11 q 40 100 40 47 q 72 187 40 154 q 157 219 103 219 z "},"…":{"ha":908,"x_min":40,"x_max":856,"o":"m 451 219 q 531 190 503 219 q 560 110 560 161 q 528 22 560 54 q 443 -11 496 -11 q 363 18 390 -11 q 335 100 335 47 q 366 187 335 154 q 451 219 397 219 m 747 219 q 827 190 799 219 q 856 110 856 161 q 824 22 856 54 q 739 -11 792 -11 q 658 18 686 -11 q 631 100 631 47 q 662 187 631 154 q 747 219 693 219 m 157 219 q 237 190 208 219 q 265 110 265 161 q 233 22 265 54 q 149 -11 201 -11 q 68 18 96 -11 q 40 100 40 47 q 72 187 40 154 q 157 219 103 219 z "},"‰":{"ha":1728,"x_min":36,"x_max":1689,"o":"m 953 875 l 307 -129 l 214 -72 l 206 -51 l 853 957 l 940 903 l 953 875 m 272 906 q 429 842 375 906 q 483 661 483 779 q 423 464 483 532 q 250 396 363 396 q 92 459 147 396 q 36 640 36 522 q 97 837 36 768 q 272 906 158 906 m 258 767 q 191 740 211 767 q 171 651 171 713 q 192 555 171 585 q 260 525 213 525 q 328 553 307 525 q 350 643 350 582 q 328 738 350 708 q 258 767 306 767 m 957 501 q 1114 438 1060 501 q 1168 257 1168 375 q 1108 60 1168 128 q 935 -8 1047 -8 q 776 55 832 -8 q 721 236 721 118 q 782 433 721 364 q 957 501 843 501 m 1478 501 q 1635 438 1581 501 q 1689 257 1689 375 q 1629 60 1689 128 q 1456 -8 1569 -8 q 1298 55 1353 -8 q 1243 236 1243 118 q 1303 433 1243 364 q 1478 501 1364 501 m 943 363 q 876 335 896 363 q 856 247 856 308 q 876 151 856 181 q 944 121 897 121 q 1013 149 992 121 q 1035 239 1035 178 q 1013 333 1035 304 q 943 363 990 363 m 1464 363 q 1397 335 1418 363 q 1376 247 1376 307 q 1397 151 1376 182 q 1465 121 1418 121 q 1535 149 1514 121 q 1557 239 1557 178 q 1535 333 1557 304 q 1464 363 1513 363 z "},"′":{"ha":310,"x_min":75,"x_max":257,"o":"m 201 550 l 100 535 l 83 549 l 75 883 l 246 894 l 257 879 l 201 550 z "},"″":{"ha":547,"x_min":75,"x_max":493,"o":"m 438 550 l 336 535 l 319 549 l 311 883 l 482 894 l 493 879 l 438 550 m 201 550 l 100 535 l 83 549 l 75 883 l 246 894 l 257 879 l 201 550 z "},"‹":{"ha":347,"x_min":32,"x_max":321,"o":"m 32 331 l 214 582 l 317 528 l 321 507 l 190 317 l 321 128 l 317 108 l 214 54 l 32 297 l 32 331 z "},"›":{"ha":350,"x_min":33,"x_max":322,"o":"m 322 308 l 140 57 l 38 111 l 33 132 l 164 322 l 33 511 l 38 531 l 140 585 l 322 342 l 322 308 z "},"⁄":{"ha":164,"x_min":-315,"x_max":432,"o":"m 432 875 l -214 -129 l -307 -72 l -315 -51 l 332 957 l 419 903 l 432 875 z "},"⁰":{"ha":521,"x_min":36,"x_max":483,"o":"m 272 983 q 429 915 375 983 q 483 715 483 846 q 423 500 483 575 q 250 425 363 425 q 92 494 147 425 q 36 692 36 563 q 97 908 36 832 q 272 983 158 983 m 258 831 q 191 801 211 831 q 171 704 171 771 q 192 599 171 632 q 260 567 213 567 q 328 598 307 567 q 350 696 350 629 q 328 799 350 767 q 258 831 307 831 z "}}}
